<?xml version="1.0" encoding="UTF-8"?>
<svg xmlns="http://www.w3.org/2000/svg" viewBox="0 0 57.85 61.72">
  <defs>
    <style>
      .cls-1, .cls-2, .cls-3 {
        fill: none;
      }

      .cls-1, .cls-4, .cls-3, .cls-5 {
        stroke: #001881;
      }

      .cls-1, .cls-4, .cls-5 {
        stroke-miterlimit: 10;
      }

      .cls-6 {
        fill: #001881;
      }

      .cls-6, .cls-7, .cls-8 {
        stroke-width: 0px;
      }

      .cls-2 {
        stroke: #fff;
      }

      .cls-2, .cls-3 {
        stroke-linecap: round;
        stroke-linejoin: round;
      }

      .cls-4, .cls-7 {
        fill: #f09e95;
      }

      .cls-9 {
        isolation: isolate;
      }

      .cls-7, .cls-8 {
        mix-blend-mode: multiply;
      }

      .cls-8, .cls-5 {
        fill: #fcd033;
      }
    </style>
  </defs>
  <g class="cls-9">
    <g id="Capa_2" data-name="Capa 2">
      <g id="Capa_1-2" data-name="Capa 1">
        <g>
          <g>
            <path class="cls-4" d="M45.11,26.54l4.63-4.97s-5.05-5.28-10.63,1.71c0,0,4.06,1.52,6,3.26Z"/>
            <g>
              <polygon class="cls-4" points="18.19 61.22 11.39 61.22 11.39 48.16 22.25 48.16 18.19 61.22"/>
              <polygon class="cls-7" points="18.19 61.22 11.39 61.22 11.39 48.16 22.25 48.16 18.19 61.22"/>
              <polygon class="cls-4" points="45.31 61.22 38.5 61.22 38.5 48.16 49.36 48.16 45.31 61.22"/>
            </g>
            <path class="cls-4" d="M54.37,35h-2.78c-2.65-7.74-11.12-13.41-21.15-13.41-12.16,0-22.02,8.31-22.02,18.56s9.86,18.56,22.02,18.56c10.03,0,18.5-5.66,21.15-13.41h2.78c1.64,0,2.98-1.22,2.98-2.73v-4.84c0-1.51-1.33-2.73-2.98-2.73Z"/>
            <path class="cls-7" d="M30.13,21.6c-12.01.14-21.7,8.4-21.7,18.56s9.69,18.42,21.7,18.56V21.6Z"/>
            <path class="cls-6" d="M35.42,26.54c-.12,0-.24-.02-.36-.08-5.22-2.32-9.58-.05-9.63-.03-.43.23-.97.07-1.2-.37-.23-.43-.07-.97.37-1.2.05-.03,1.33-.7,3.34-1.04,1.85-.31,4.71-.38,7.84,1.01.45.2.65.72.45,1.17-.15.33-.47.53-.82.53Z"/>
            <path class="cls-1" d="M8.42,38.65s-4.96,1.67-6.31-1.95c-.78-2.09,1.83-2.88,3.07-1.44.91,1.06.9,3.34.35,3.89-2.31,2.32-5.24.25-5.24.25"/>
            <g>
              <path class="cls-3" d="M40.59,34.31c1.57,1.57,4.11,1.57,5.68,0"/>
              <line class="cls-3" x1="43.43" y1="35.48" x2="43.43" y2="37.39"/>
              <line class="cls-3" x1="45.26" y1="35.04" x2="46.27" y2="36.58"/>
              <line class="cls-3" x1="41.6" y1="35.04" x2="40.59" y2="36.58"/>
            </g>
          </g>
          <g>
            <g>
              <g>
                <path class="cls-5" d="M40.5,14.25c0,5.81-4.71,10.51-10.51,10.51s-10.51-4.71-10.51-10.51S24.18,3.74,29.99,3.74s10.51,4.71,10.51,10.51Z"/>
                <path class="cls-5" d="M38.59,14.25c0,4.76-3.86,8.61-8.61,8.61s-8.61-3.85-8.61-8.61,3.85-8.61,8.61-8.61,8.61,3.85,8.61,8.61Z"/>
                <path class="cls-8" d="M29.96,3.74c-5.79.01-10.48,4.71-10.48,10.51s4.69,10.5,10.48,10.51V3.74Z"/>
                <g>
                  <path class="cls-1" d="M40.5,14.25c0,5.81-4.71,10.51-10.51,10.51s-10.51-4.71-10.51-10.51S24.18,3.74,29.99,3.74s10.51,4.71,10.51,10.51Z"/>
                  <path class="cls-1" d="M38.59,14.25c0,4.76-3.86,8.61-8.61,8.61s-8.61-3.85-8.61-8.61,3.85-8.61,8.61-8.61,8.61,3.85,8.61,8.61Z"/>
                </g>
                <g>
                  <line class="cls-1" x1="29.61" y1="3.74" x2="29.61" y2="5.64"/>
                  <line class="cls-1" x1="29.61" y1="22.86" x2="29.61" y2="24.77"/>
                </g>
                <g>
                  <line class="cls-1" x1="29.61" y1="3.74" x2="29.61" y2="5.64"/>
                  <line class="cls-1" x1="29.61" y1="22.86" x2="29.61" y2="24.77"/>
                </g>
                <g>
                  <line class="cls-1" x1="40.78" y1="14.25" x2="38.88" y2="14.25"/>
                  <line class="cls-1" x1="21.66" y1="14.25" x2="19.76" y2="14.25"/>
                </g>
                <g>
                  <line class="cls-1" x1="40.78" y1="14.25" x2="38.88" y2="14.25"/>
                  <line class="cls-1" x1="21.66" y1="14.25" x2="19.76" y2="14.25"/>
                </g>
                <g>
                  <line class="cls-1" x1="37.7" y1="6.82" x2="36.35" y2="8.17"/>
                  <line class="cls-1" x1="24.18" y1="20.34" x2="22.84" y2="21.69"/>
                </g>
                <g>
                  <line class="cls-1" x1="37.7" y1="6.82" x2="36.35" y2="8.17"/>
                  <line class="cls-1" x1="24.18" y1="20.34" x2="22.84" y2="21.69"/>
                </g>
                <g>
                  <line class="cls-1" x1="37.7" y1="21.69" x2="36.35" y2="20.34"/>
                  <line class="cls-1" x1="24.18" y1="8.17" x2="22.84" y2="6.82"/>
                </g>
                <g>
                  <line class="cls-1" x1="37.7" y1="21.69" x2="36.35" y2="20.34"/>
                  <line class="cls-1" x1="24.18" y1="8.17" x2="22.84" y2="6.82"/>
                </g>
                <g>
                  <line class="cls-1" x1="35.54" y1="5.16" x2="34.59" y2="6.81"/>
                  <line class="cls-1" x1="25.94" y1="21.7" x2="24.99" y2="23.35"/>
                </g>
                <g>
                  <line class="cls-1" x1="35.54" y1="5.16" x2="34.59" y2="6.81"/>
                  <line class="cls-1" x1="25.94" y1="21.7" x2="24.99" y2="23.35"/>
                </g>
                <g>
                  <line class="cls-1" x1="39.36" y1="19.53" x2="37.71" y2="18.58"/>
                  <line class="cls-1" x1="22.82" y1="9.93" x2="21.18" y2="8.98"/>
                </g>
                <g>
                  <line class="cls-1" x1="39.36" y1="19.53" x2="37.71" y2="18.58"/>
                  <line class="cls-1" x1="22.82" y1="9.93" x2="21.18" y2="8.98"/>
                </g>
                <g>
                  <line class="cls-1" x1="40.14" y1="11.56" x2="38.31" y2="12.05"/>
                  <line class="cls-1" x1="21.66" y1="16.46" x2="19.82" y2="16.95"/>
                </g>
                <g>
                  <line class="cls-1" x1="40.14" y1="11.56" x2="38.31" y2="12.05"/>
                  <line class="cls-1" x1="21.66" y1="16.46" x2="19.82" y2="16.95"/>
                </g>
                <g>
                  <line class="cls-1" x1="32.3" y1="24.41" x2="31.82" y2="22.58"/>
                  <line class="cls-1" x1="27.4" y1="5.93" x2="26.91" y2="4.09"/>
                </g>
                <g>
                  <line class="cls-1" x1="32.3" y1="24.41" x2="31.82" y2="22.58"/>
                  <line class="cls-1" x1="27.4" y1="5.93" x2="26.91" y2="4.09"/>
                </g>
                <g>
                  <line class="cls-1" x1="33.18" y1="4.16" x2="32.65" y2="5.98"/>
                  <line class="cls-1" x1="27.88" y1="22.53" x2="27.35" y2="24.35"/>
                </g>
                <g>
                  <line class="cls-1" x1="33.18" y1="4.16" x2="32.65" y2="5.98"/>
                  <line class="cls-1" x1="27.88" y1="22.53" x2="27.35" y2="24.35"/>
                </g>
                <g>
                  <line class="cls-1" x1="40.37" y1="17.17" x2="38.54" y2="16.64"/>
                  <line class="cls-1" x1="21.99" y1="11.87" x2="20.17" y2="11.34"/>
                </g>
                <g>
                  <line class="cls-1" x1="40.37" y1="17.17" x2="38.54" y2="16.64"/>
                  <line class="cls-1" x1="21.99" y1="11.87" x2="20.17" y2="11.34"/>
                </g>
                <g>
                  <line class="cls-1" x1="39.19" y1="9.17" x2="37.52" y2="10.09"/>
                  <line class="cls-1" x1="22.45" y1="18.42" x2="20.78" y2="19.33"/>
                </g>
                <g>
                  <line class="cls-1" x1="39.19" y1="9.17" x2="37.52" y2="10.09"/>
                  <line class="cls-1" x1="22.45" y1="18.42" x2="20.78" y2="19.33"/>
                </g>
                <g>
                  <line class="cls-1" x1="35.35" y1="23.46" x2="34.43" y2="21.79"/>
                  <line class="cls-1" x1="26.11" y1="6.72" x2="25.19" y2="5.05"/>
                </g>
                <g>
                  <line class="cls-1" x1="35.35" y1="23.46" x2="34.43" y2="21.79"/>
                  <line class="cls-1" x1="26.11" y1="6.72" x2="25.19" y2="5.05"/>
                </g>
                <g>
                  <path class="cls-2" d="M22.55,14.62c0-4.11,3.33-7.44,7.44-7.44"/>
                  <path class="cls-2" d="M31.1,7.19s1.39.04,2.71.97"/>
                </g>
              </g>
              <path class="cls-6" d="M33.62,12.23l-2.35.37c-.12-.3-.22-.51-.32-.62-.09-.12-.25-.23-.47-.35v1.83c1.28.34,2.13.7,2.56,1.08.57.51.85,1.16.85,1.94,0,.46-.1.88-.3,1.26-.21.38-.47.7-.79.96-.32.26-.65.44-1.01.56-.36.11-.79.18-1.31.2v1.19h-.92v-1.19c-.62-.06-1.12-.15-1.5-.3-.38-.15-.72-.35-1-.6-.28-.26-.5-.53-.65-.83-.15-.3-.27-.65-.34-1.08l2.55-.3c.07.42.18.72.3.9.13.19.34.35.63.49v-2.23c-.85-.24-1.45-.44-1.81-.61-.36-.17-.66-.45-.93-.83-.26-.38-.39-.85-.39-1.39,0-.75.26-1.38.79-1.88.52-.5,1.3-.78,2.34-.84v-.62h.92v.62c.94.06,1.66.28,2.16.67.5.39.82.92.98,1.59ZM29.56,11.6c-.27.09-.46.2-.56.33-.11.13-.16.29-.16.46s.06.35.16.49c.11.14.29.25.56.34v-1.62ZM30.48,17.81c.36-.08.62-.21.79-.4.17-.18.25-.39.25-.62,0-.2-.07-.38-.21-.55-.14-.17-.42-.32-.82-.46v2.03Z"/>
            </g>
            <g>
              <g>
                <line class="cls-3" x1="30.13" y1=".5" x2="30.13" y2="2.01"/>
                <g>
                  <line class="cls-3" x1="43.88" y1="14.25" x2="42.37" y2="14.25"/>
                  <line class="cls-3" x1="17.88" y1="14.25" x2="16.37" y2="14.25"/>
                </g>
                <g>
                  <line class="cls-3" x1="39.85" y1="4.53" x2="38.78" y2="5.6"/>
                  <line class="cls-3" x1="21.47" y1="22.91" x2="20.4" y2="23.98"/>
                </g>
                <g>
                  <line class="cls-3" x1="39.85" y1="23.98" x2="38.78" y2="22.91"/>
                  <line class="cls-3" x1="21.47" y1="5.6" x2="20.4" y2="4.53"/>
                </g>
              </g>
              <g>
                <line class="cls-3" x1="35.41" y1="1.56" x2="34.83" y2="2.95"/>
                <g>
                  <line class="cls-3" x1="42.82" y1="19.54" x2="41.43" y2="18.96"/>
                  <line class="cls-3" x1="18.82" y1="9.55" x2="17.43" y2="8.97"/>
                </g>
                <g>
                  <line class="cls-3" x1="42.84" y1="9.02" x2="41.45" y2="9.59"/>
                  <line class="cls-3" x1="18.81" y1="18.92" x2="17.41" y2="19.49"/>
                </g>
                <line class="cls-3" x1="25.46" y1="2.94" x2="24.89" y2="1.54"/>
              </g>
            </g>
          </g>
        </g>
      </g>
    </g>
  </g>
</svg>