<?xml version="1.0" encoding="UTF-8"?>
<svg xmlns="http://www.w3.org/2000/svg" xmlns:xlink="http://www.w3.org/1999/xlink" viewBox="0 0 309.57 228.28">
  <defs>
    <style>
      .cls-1 {
        fill: #1e2a7b;
      }

      .cls-1, .cls-2, .cls-3, .cls-4, .cls-5, .cls-6, .cls-7, .cls-8, .cls-9, .cls-10, .cls-11, .cls-12, .cls-13, .cls-14 {
        stroke-width: 0px;
      }

      .cls-15 {
        clip-path: url(#clippath);
      }

      .cls-2 {
        fill: none;
      }

      .cls-3 {
        fill: #430017;
      }

      .cls-4 {
        fill: #901957;
      }

      .cls-5 {
        fill: url(#_ÂÁ_Ï_ÌÌ_È_ËÂÌÚ_34-3);
      }

      .cls-6 {
        fill: url(#_ÂÁ_Ï_ÌÌ_È_ËÂÌÚ_34-2);
      }

      .cls-7 {
        fill: #ff3d8a;
      }

      .cls-8 {
        fill: #020b4e;
      }

      .cls-16 {
        isolation: isolate;
      }

      .cls-9 {
        fill: #92a1fd;
      }

      .cls-10 {
        fill: url(#_ÂÁ_Ï_ÌÌ_È_ËÂÌÚ_104);
        mix-blend-mode: multiply;
      }

      .cls-11 {
        fill: #fff;
      }

      .cls-12 {
        fill: url(#_ÂÁ_Ï_ÌÌ_È_ËÂÌÚ_34);
      }

      .cls-13 {
        fill: url(#_ÂÁ_Ï_ÌÌ_È_ËÂÌÚ_47);
      }

      .cls-14 {
        fill: #5766c4;
      }
    </style>
    <linearGradient id="_ÂÁ_Ï_ÌÌ_È_ËÂÌÚ_104" data-name="¡ÂÁ˚ÏˇÌÌ˚È „‡‰ËÂÌÚ 104" x1="109.11" y1="225.85" x2="201.1" y2="75.93" gradientUnits="userSpaceOnUse">
      <stop offset="0" stop-color="#a1a1bd"/>
      <stop offset="1" stop-color="#fff"/>
    </linearGradient>
    <linearGradient id="_ÂÁ_Ï_ÌÌ_È_ËÂÌÚ_47" data-name="¡ÂÁ˚ÏˇÌÌ˚È „‡‰ËÂÌÚ 47" x1="9.38" y1="60.37" x2="170.35" y2="60.37" gradientUnits="userSpaceOnUse">
      <stop offset="0" stop-color="#9346a0"/>
      <stop offset="1" stop-color="#480d7e"/>
    </linearGradient>
    <clipPath id="clippath">
      <path class="cls-2" d="M153.45,96.37c-6.53,3.77-17.15,3.77-23.68,0L19.87,32.92c-2.4-1.39-6.29-1.39-8.69,0L43.55,14.23,58.95,0l94.64,55.66-.15,27.04c6.53,3.77,6.53,9.9,0,13.67Z"/>
    </clipPath>
    <linearGradient id="_ÂÁ_Ï_ÌÌ_È_ËÂÌÚ_34" data-name="¡ÂÁ˚ÏˇÌÌ˚È „‡‰ËÂÌÚ 34" x1="25.85" y1="95.73" x2="137.94" y2="95.73" gradientUnits="userSpaceOnUse">
      <stop offset="0" stop-color="#ff8b5b"/>
      <stop offset="1" stop-color="#8b0f61"/>
    </linearGradient>
    <linearGradient id="_ÂÁ_Ï_ÌÌ_È_ËÂÌÚ_34-2" data-name="¡ÂÁ˚ÏˇÌÌ˚È „‡‰ËÂÌÚ 34" x1="33.33" y1="97.88" x2="145.42" y2="97.88" xlink:href="#_ÂÁ_Ï_ÌÌ_È_ËÂÌÚ_34"/>
    <linearGradient id="_ÂÁ_Ï_ÌÌ_È_ËÂÌÚ_34-3" data-name="¡ÂÁ˚ÏˇÌÌ˚È „‡‰ËÂÌÚ 34" x1="40.04" y1="108.18" x2="152.14" y2="108.18" xlink:href="#_ÂÁ_Ï_ÌÌ_È_ËÂÌÚ_34"/>
  </defs>
  <g class="cls-16">
    <g id="Capa_2" data-name="Capa 2">
      <g id="Layer_1" data-name="Layer 1">
        <g>
          <path class="cls-10" d="M10.46,160.84l105.06,60.74c15.44,8.92,34.46,8.93,49.9.02l144.13-83.14L172.65,59.75,10.59,148.86c-4.69,2.58-4.77,9.3-.13,11.98Z"/>
          <g>
            <path class="cls-8" d="M153.45,82.7L43.55,19.24c-1.11-.64-1.71-1.47-1.78-2.31h0v33.8c-.09.97.52,1.95,1.79,2.68l85.77,49.52c10.11,5.84,22.92,2.12,28.64-8.06.03-.05.06-.1.09-.15,2.44-4.09.61-9.02-4.6-12.03Z"/>
            <path class="cls-1" d="M160.43,101.15c-11.3,6.54-27.33,6.48-38.62-.06L11.17,37.93c-1.19-.69-1.79-1.6-1.79-2.5v119.41c.03.88.63,1.76,1.79,2.42l109.72,63.46c11.3,6.53,29.69,6.53,40.99,0,5.45-3.16,8.07-7.29,8.45-11.42.01-.14.02-120.59.02-120.59,0,4.3-4.29,9.18-9.93,12.45Z"/>
            <path class="cls-3" d="M9.39,35.32v.11s0-.07.01-.11h-.01Z"/>
            <path class="cls-13" d="M162.13,77.68L52.23,14.23c-2.4-1.38-6.29-1.38-8.68,0-2.4,1.38-2.4,3.63,0,5.01l109.9,63.46c6.53,3.77,6.53,9.9,0,13.67-6.53,3.77-17.15,3.77-23.68,0L19.86,32.91c-2.4-1.38-6.29-1.38-8.68,0-2.4,1.38-2.4,3.63,0,5.01l109.9,63.45c11.32,6.53,27.54,9.75,41.05,0,10.6-7.65,11.32-17.17,0-23.7Z"/>
            <path class="cls-8" d="M170.35,137.23c-.56,2.72-2.87,5.64-6.63,8.35-15.23,10.99-32.36,2.63-37.25-.19l-24.05-13.88c-1.67-.97-3.81-.39-4.78,1.28-.97,1.67-.39,3.81,1.28,4.78l24.05,13.88c7.7,4.44,15.7,6.66,23.35,6.66s20.49-4.05,24.03-10.75v-10.13Z"/>
            <path class="cls-8" d="M170.35,155.77c-.56,2.72-2.87,5.64-6.63,8.35-15.23,10.99-32.36,2.63-37.25-.19l-24.05-13.88c-1.67-.97-3.81-.39-4.78,1.28-.97,1.67-.39,3.81,1.28,4.78l24.05,13.88c7.7,4.44,15.7,6.66,23.35,6.66s20.49-4.05,24.03-10.75v-10.13Z"/>
            <path class="cls-8" d="M170.35,174.3c-.56,2.72-2.87,5.64-6.63,8.35-15.23,10.99-32.36,2.63-37.25-.19l-24.05-13.88c-1.67-.97-3.81-.39-4.78,1.28-.97,1.67-.39,3.82,1.28,4.78l24.05,13.88c7.7,4.44,15.7,6.66,23.35,6.66s20.49-4.05,24.03-10.75v-10.13Z"/>
            <g class="cls-15">
              <g>
                <g>
                  <path class="cls-4" d="M140.13,58.79l-60.99-35.22v69.77l73,42.15v-55.9c0-8.58-4.58-16.51-12.01-20.8Z"/>
                  <path class="cls-7" d="M150.72,136.55c-.25,0-.49-.06-.71-.19l-61.34-35.42c-.44-.25-.71-.72-.71-1.23v-58.56c0-.51.27-.98.71-1.23.44-.25.98-.25,1.42,0l54.4,31.41c4.73,2.76,7.65,7.97,7.65,13.6v50.2c0,.51-.27.98-.71,1.23-.22.13-.47.19-.71.19ZM90.81,98.88l58.49,33.77v-47.73c0-4.62-2.38-8.89-6.22-11.13l-52.27-30.18v55.27Z"/>
                </g>
                <g>
                  <path class="cls-4" d="M134,50.1L73.01,14.88v69.77l73,42.15v-55.9c0-8.58-4.58-16.51-12.01-20.8Z"/>
                  <path class="cls-7" d="M144.59,127.85c-.25,0-.49-.06-.71-.19l-61.34-35.42c-.44-.25-.71-.72-.71-1.23v-58.56c0-.51.27-.98.71-1.23.44-.25.98-.25,1.42,0l54.4,31.41c4.73,2.76,7.65,7.97,7.65,13.6v50.19c0,.51-.27.98-.71,1.23-.22.13-.47.19-.71.19ZM84.68,90.19l58.49,33.77v-47.73c0-4.62-2.38-8.89-6.22-11.13l-52.27-30.18v55.27Z"/>
                </g>
                <g>
                  <path class="cls-4" d="M126.52,47.95L65.53,12.73v69.77l73,42.15v-55.9c0-8.58-4.58-16.51-12.01-20.8Z"/>
                  <path class="cls-7" d="M137.11,125.71c-.25,0-.49-.06-.71-.19l-61.34-35.42c-.44-.25-.71-.72-.71-1.23V30.3c0-.51.27-.98.71-1.23.44-.25.98-.25,1.42,0l54.4,31.41c4.73,2.76,7.65,7.97,7.65,13.6v50.2c0,.51-.27.98-.71,1.23-.22.13-.47.19-.71.19ZM77.2,88.04l58.49,33.77v-47.73c0-4.62-2.38-8.89-6.22-11.13l-52.27-30.18v55.27Z"/>
                </g>
                <g>
                  <path class="cls-12" d="M103.37,70.56L36.21,32.22v85.07l66.51,38.46c8.05,4.65,21.15,4.65,29.19,0,3.88-2.25,5.75-5.19,6.02-8.13,0-.1.01-82.3.01-82.3,0,3.06-10.18,16.34-34.57,5.23Z"/>
                  <path class="cls-4" d="M117.32,147.85c-3.45,0-6.77-.73-8.9-1.96l-60.81-35.17v-58.87l50.11,28.61c5.66,3.28,12.4,5.02,19.47,5.02,8.78,0,15.15-.28,20.76-5.21v-3.62c-3.54,3.12-8.36,5.98-20.76,5.98-6.57,0-12.83-1.61-18.06-4.64l-54.38-31.04v65.42l62.24,35.99c2.58,1.49,6.34,2.34,10.32,2.34,14.18,0,20.49-7.56,20.62-7.76,0-.6,0-1.61,0-2.95-4.09,4.3-10.21,7.87-20.62,7.87Z"/>
                </g>
                <g>
                  <path class="cls-6" d="M110.85,72.7L43.69,34.36v85.07l66.51,38.46c8.05,4.65,21.15,4.65,29.19,0,3.88-2.25,5.75-5.19,6.02-8.13,0-.1.01-82.3.01-82.3,0,3.06-10.18,16.34-34.57,5.23Z"/>
                  <path class="cls-4" d="M124.8,149.99c-3.45,0-6.77-.73-8.9-1.96l-60.81-35.17v-58.87l50.11,28.61c5.66,3.28,12.4,5.02,19.47,5.02,8.77,0,15.15-.28,20.76-5.21,0-1.22,0-2.43,0-3.62-3.54,3.12-8.36,5.98-20.76,5.98-6.57,0-12.83-1.61-18.06-4.64l-54.38-31.04v65.42l62.24,35.99c2.58,1.49,6.34,2.34,10.32,2.34,14.18,0,20.49-7.56,20.62-7.76,0-.6,0-1.61,0-2.95-4.09,4.3-10.21,7.87-20.62,7.87Z"/>
                </g>
                <g>
                  <path class="cls-5" d="M117.57,83.01L50.41,44.67v85.07l66.51,38.47c8.05,4.65,21.15,4.65,29.19,0,3.88-2.25,5.75-5.2,6.02-8.13,0-.1.01-82.3.01-82.3,0,3.06-10.18,16.34-34.57,5.23Z"/>
                  <path class="cls-4" d="M131.51,160.3c-3.45,0-6.77-.73-8.9-1.96l-60.81-35.17v-58.87l50.11,28.61c5.66,3.28,12.4,5.02,19.47,5.02,8.78,0,15.15-.28,20.76-5.21,0-1.22,0-2.43,0-3.62-3.55,3.12-8.36,5.98-20.76,5.98-6.57,0-12.83-1.61-18.06-4.64l-54.38-31.04v65.42l62.24,35.99c2.58,1.49,6.34,2.34,10.32,2.34,14.18,0,20.49-7.56,20.62-7.77,0-.6,0-1.61,0-2.95-4.09,4.3-10.21,7.87-20.62,7.87Z"/>
                </g>
              </g>
            </g>
            <g>
              <path class="cls-14" d="M36.77,97.88l-26.57-15.5c-2.28-1.33-5.1-1.39-7.43-.15l-1.56.82,39.08,42.46,4.06-2.15c1.93-1.12,3.13-3.52,3.13-6.94,0-6.83-4.79-15.14-10.71-18.55Z"/>
              <path class="cls-9" d="M31.96,99.29L3.88,83.08c-1.73-1-3.88.25-3.88,2.24v13.87c0,3.95,2.1,7.59,5.52,9.56l27.46,15.86c2.96,1.71,5.63,1.87,7.57.75,2.7-1.56,3.96-5.59,2.55-11.41-1.5-6.21-5.62-11.47-11.16-14.66Z"/>
            </g>
            <path class="cls-14" d="M33.5,105.73c-3.24-1.87-5.87-.35-5.87,3.39s2.63,8.29,5.86,10.16c3.24,1.87,5.86.35,5.86-3.39s-2.63-8.29-5.86-10.16Z"/>
            <path class="cls-11" d="M32.16,107.69c-2.68-1.54-4.84-.29-4.84,2.8s2.17,6.84,4.84,8.39c2.67,1.55,4.84.29,4.84-2.79s-2.17-6.84-4.84-8.39Z"/>
          </g>
        </g>
      </g>
    </g>
  </g>
</svg>