<?xml version="1.0" encoding="UTF-8"?>
<svg xmlns="http://www.w3.org/2000/svg" viewBox="0 0 63.35 56.79">
  <defs>
    <style>
      .cls-1, .cls-2 {
        fill: #87b7e0;
      }

      .cls-1, .cls-3, .cls-4, .cls-5 {
        stroke: #001881;
        stroke-linecap: round;
        stroke-linejoin: round;
      }

      .cls-6 {
        fill: #d8dade;
      }

      .cls-6, .cls-2, .cls-7 {
        mix-blend-mode: multiply;
        stroke-width: 0px;
      }

      .cls-3 {
        fill: none;
      }

      .cls-4 {
        fill: #fff;
      }

      .cls-8 {
        isolation: isolate;
      }

      .cls-5, .cls-7 {
        fill: #fcd033;
      }
    </style>
  </defs>
  <g class="cls-8">
    <g id="Capa_2" data-name="Capa 2">
      <g id="Capa_1-2" data-name="Capa 1">
        <g>
          <rect class="cls-3" x="9.65" y="15.26" width="38.41" height="31.59"/>
          <g>
            <polygon class="cls-1" points="24.94 .5 6.06 .5 .5 5.93 19.39 5.93 24.94 .5"/>
            <rect class="cls-1" x=".5" y="5.93" width="18.89" height="18.89"/>
            <rect class="cls-2" x=".5" y="5.93" width="9.32" height="18.89"/>
            <polygon class="cls-2" points="9.82 5.93 .5 5.93 6.11 .5 15.42 .5 9.82 5.93"/>
            <polygon class="cls-1" points="24.94 19.39 19.39 24.82 19.39 5.93 24.94 .5 24.94 19.39"/>
          </g>
          <g>
            <rect class="cls-4" x="38.4" y="5.93" width="18.89" height="18.89"/>
            <rect class="cls-6" x="38.4" y="5.93" width="9.29" height="18.89"/>
            <polygon class="cls-4" points="62.85 .5 43.96 .5 38.4 5.93 57.29 5.93 62.85 .5"/>
            <polygon class="cls-4" points="62.85 19.39 57.29 24.82 57.29 5.93 62.85 .5 62.85 19.39"/>
            <polygon class="cls-6" points="47.7 5.93 38.4 5.93 43.92 .5 53.21 .5 47.7 5.93"/>
          </g>
          <g>
            <polygon class="cls-5" points="39.87 31.97 20.98 31.97 15.42 37.4 34.31 37.4 39.87 31.97"/>
            <rect class="cls-5" x="15.42" y="37.4" width="18.89" height="18.89"/>
            <rect class="cls-7" x="15.42" y="37.4" width="9.52" height="18.89"/>
            <polygon class="cls-7" points="30.54 31.97 21.02 31.97 15.42 37.4 24.94 37.4 30.54 31.97"/>
            <polygon class="cls-5" points="39.87 50.86 34.31 56.29 34.31 37.4 39.87 31.97 39.87 50.86"/>
          </g>
        </g>
      </g>
    </g>
  </g>
</svg>