<?xml version="1.0" encoding="UTF-8"?>
<svg id="Capa_2" data-name="Capa 2" xmlns="http://www.w3.org/2000/svg" viewBox="0 0 62.62 39.8">
  <defs>
    <style>
      .cls-1 {
        fill: none;
        stroke: #001881;
        stroke-miterlimit: 10;
      }

      .cls-2 {
        fill: #001881;
      }

      .cls-2, .cls-3, .cls-4 {
        stroke-width: 0px;
      }

      .cls-3 {
        fill: #87b7e0;
      }

      .cls-4 {
        fill: #fcd033;
      }
    </style>
  </defs>
  <g id="Capa_1-2" data-name="Capa 1">
    <g>
      <g>
        <polygon class="cls-4" points="7.85 25.23 2.27 30.54 2.27 39.8 7.85 39.8 7.85 25.23"/>
        <polygon class="cls-3" points="13.44 21.75 11.59 21.76 7.85 25.23 7.85 39.8 13.44 39.8 13.44 21.75"/>
        <rect class="cls-4" x="13.44" y="21.75" width="5.59" height="18.04"/>
        <rect class="cls-3" x="19.03" y="21.75" width="5.59" height="18.04"/>
        <polygon class="cls-4" points="30.2 17.37 25.54 21.76 24.62 21.75 24.62 39.8 30.2 39.8 30.2 17.37"/>
        <polygon class="cls-3" points="35.79 12.97 34.87 12.97 30.2 17.37 30.2 39.8 35.79 39.8 35.79 12.97"/>
        <rect class="cls-4" x="35.79" y="12.95" width="5.59" height="26.84"/>
        <rect class="cls-3" x="41.38" y="12.95" width="5.59" height="26.84"/>
        <polygon class="cls-4" points="52.55 9.46 48.81 12.97 46.96 12.97 46.96 39.8 52.55 39.8 52.55 9.46"/>
        <polygon class="cls-3" points="58.14 4.19 52.55 9.46 52.55 39.8 58.14 39.8 58.14 4.19"/>
      </g>
      <polyline class="cls-1" points="61.02 1.5 48.81 12.97 34.86 12.97 25.54 21.76 11.59 21.76 .34 32.37"/>
      <polygon class="cls-2" points="54.7 2.58 62.62 0 59.4 7.14 59.49 2.98 54.7 2.58"/>
    </g>
  </g>
</svg>