<?xml version="1.0" encoding="UTF-8"?>
<svg id="Capa_2" data-name="Capa 2" xmlns="http://www.w3.org/2000/svg" viewBox="0 0 1315.03 1188.13">
  <defs>
    <style>
      .cls-1 {
        fill: #fff;
        stroke-width: 0px;
      }
    </style>
  </defs>
  <g id="Layer_4" data-name="Layer 4">
    <g>
      <path class="cls-1" d="M1286.69,580.82L927.31,0l-243.15,243.15L533.73,0,0,533.73l259.01,418.64.16.16c93.99,147.61,254.03,235.6,429.03,235.6,127.83,0,250.02-47.62,344.04-134.09l216.8-216.79-.02-.02,10.24-10.19,1.18-1.23c35.21-38.33,54.59-88.14,54.59-140.25,0-36.85-9.8-73.07-28.34-104.74ZM912.46,127.89l305.49,493.71c11.23,19.34,17.16,41.44,17.16,63.96,0,31.77-11.71,62.13-33,85.6l-8.78,8.78c-.61.55-1.23,1.09-1.85,1.63-.64.56-1.27,1.13-1.92,1.67-.67.57-1.36,1.11-2.04,1.66-.66.53-1.31,1.07-1.98,1.59-.69.53-1.39,1.04-2.08,1.56-.68.51-1.36,1.02-2.05,1.52-.68.48-1.37.94-2.06,1.41-.73.5-1.45,1.01-2.19,1.49-.65.42-1.31.83-1.96,1.24-.79.5-1.58,1-2.38,1.48-.6.36-1.21.7-1.82,1.04-.87.5-1.74,1.01-2.62,1.49-.53.29-1.06.55-1.6.83-.98.51-1.95,1.03-2.94,1.52-.43.21-.86.4-1.29.61-1.11.53-2.22,1.06-3.34,1.56-.27.12-.55.23-.82.35-1.29.56-2.58,1.11-3.88,1.62-.1.04-.21.08-.31.12-10.89,4.26-22.4,7.02-34.33,8.15-4.12.4-8.26.61-12.3.61-2.58,0-5.15-.08-7.71-.24-.8-.05-1.6-.15-2.4-.22-1.75-.14-3.5-.27-5.23-.48-.99-.12-1.97-.3-2.95-.45-1.53-.22-3.07-.42-4.58-.7-1.07-.2-2.12-.45-3.18-.68-1.42-.3-2.84-.57-4.25-.91-1.07-.26-2.13-.59-3.19-.88-1.37-.37-2.75-.72-4.11-1.14-1.07-.33-2.11-.72-3.17-1.08-1.33-.45-2.67-.87-3.98-1.37-1.06-.4-2.09-.85-3.13-1.28-1.29-.52-2.58-1.02-3.85-1.59-1.03-.46-2.03-.97-3.04-1.46-1.26-.6-2.52-1.17-3.76-1.81-.99-.51-1.95-1.08-2.93-1.62-1.23-.68-2.46-1.33-3.67-2.05-.96-.57-1.89-1.19-2.83-1.79-1.19-.75-2.38-1.48-3.55-2.26-.92-.62-1.8-1.29-2.71-1.94-1.15-.82-2.31-1.63-3.43-2.49-.87-.67-1.71-1.39-2.57-2.08-1.11-.9-2.23-1.78-3.31-2.71-.84-.73-1.64-1.5-2.46-2.25-1.05-.96-2.12-1.91-3.14-2.9-.8-.78-1.56-1.6-2.34-2.41-.99-1.02-2-2.03-2.96-3.09-.76-.84-1.48-1.71-2.22-2.57-.93-1.08-1.87-2.14-2.77-3.26-.72-.9-1.4-1.83-2.1-2.75-.81-1.06-1.63-2.11-2.4-3.21l-276.28-446.49,185.08-185.09ZM977.55,995.76c-79.16,72.52-181.87,112.44-289.34,112.44-148.11,0-283.52-74.8-362.61-200.18l-2.05-4.15-1.45-1.45-220.83-356.93L518.87,127.89l107.23,173.32h0s36.73,59.36,36.73,59.36c62.72,101.36,251.55,406.54,262.92,424.92,3.67,6.67,7.74,13.19,12.09,19.37,2.29,3.25,4.67,6.4,7.12,9.5.8,1.01,1.64,1.97,2.46,2.96,1.69,2.05,3.4,4.09,5.16,6.07,1.01,1.13,2.04,2.22,3.07,3.33,1.65,1.78,3.32,3.54,5.04,5.25,1.11,1.11,2.24,2.21,3.38,3.3,1.71,1.64,3.45,3.25,5.22,4.82,1.17,1.04,2.33,2.08,3.52,3.09,1.84,1.58,3.72,3.1,5.62,4.61,1.16.92,2.3,1.85,3.48,2.75,2.13,1.62,4.32,3.18,6.51,4.72.98.69,1.94,1.41,2.93,2.08,3.19,2.16,6.44,4.24,9.75,6.22.54.32,1.09.6,1.63.92,2.79,1.64,5.62,3.23,8.48,4.73,1.21.63,2.44,1.22,3.67,1.83,2.24,1.12,4.49,2.23,6.77,3.27,1.39.64,2.8,1.23,4.21,1.84,2.17.93,4.34,1.83,6.54,2.69,1.47.57,2.95,1.12,4.43,1.66,2.2.8,4.42,1.56,6.65,2.29,1.48.48,2.96.96,4.45,1.41,2.35.71,4.71,1.35,7.08,1.97,1.39.37,2.78.76,4.18,1.09,2.78.67,5.59,1.25,8.4,1.81,1.01.2,2.01.44,3.02.62,3.72.68,7.46,1.26,11.23,1.74l-104.31,104.34Z"/>
      <path class="cls-1" d="M885.24,841.83c-3.69-5.24-211.42-341.12-317.45-512.61-19.26,11.46-41.74,18.07-65.78,18.07-31.19,0-59.79-11.09-82.08-29.54l-178.97,178.97c9.02,17.59,14.14,37.52,14.14,58.65,0,28.51-9.28,54.85-24.97,76.19l151.91,245.43c67.52,104.64,181.56,166.94,306.16,166.94,90.89,0,177.78-33.59,244.92-94.64l32.22-32.22c-31.12-19.11-58.51-44.54-80.1-75.22ZM567.49,826c-46.06,0-83.4-37.34-83.4-83.4s37.34-83.4,83.4-83.4,83.4,37.34,83.4,83.4-37.34,83.4-83.4,83.4Z"/>
    </g>
  </g>
</svg>