<?xml version="1.0" encoding="UTF-8"?>
<svg xmlns="http://www.w3.org/2000/svg" viewBox="0 0 35.23 62">
  <defs>
    <style>
      .cls-1 {
        fill: #001881;
      }

      .cls-1, .cls-2, .cls-3 {
        stroke-width: 0px;
      }

      .cls-4 {
        stroke-miterlimit: 10;
      }

      .cls-4, .cls-3 {
        fill: #87b7e0;
      }

      .cls-4, .cls-5 {
        stroke: #001881;
      }

      .cls-2 {
        fill: #d8dade;
      }

      .cls-2, .cls-3 {
        mix-blend-mode: multiply;
      }

      .cls-5 {
        fill: #fff;
        stroke-linecap: round;
        stroke-linejoin: round;
      }

      .cls-6 {
        isolation: isolate;
      }
    </style>
  </defs>
  <g class="cls-6">
    <g id="Capa_2" data-name="Capa 2">
      <g id="Capa_1-2" data-name="Capa 1">
        <g>
          <rect class="cls-4" x=".5" y=".5" width="34.23" height="61"/>
          <rect class="cls-1" x="10.4" y="2.24" width="14.43" height="1.54"/>
          <polygon class="cls-3" points=".5 .5 .5 61.5 17.61 61.5 17.61 59.76 17.61 57.57 17.61 55.81 17.61 4.89 17.61 3.78 17.61 2.24 17.61 .5 .5 .5"/>
          <rect class="cls-5" x="2.33" y="4.89" width="30.57" height="50.92"/>
          <rect class="cls-2" x="2.33" y="4.89" width="15.6" height="50.92"/>
          <path class="cls-5" d="M21.17,58.67c0,.61-.49,1.1-1.1,1.1h-4.93c-.61,0-1.1-.49-1.1-1.1h0c0-.61.49-1.1,1.1-1.1h4.93c.61,0,1.1.49,1.1,1.1h0Z"/>
          <path class="cls-2" d="M15.06,57.57c-.56,0-1,.49-1,1.1s.45,1.1,1,1.1h2.55v-2.19h-2.55Z"/>
        </g>
      </g>
    </g>
  </g>
</svg>