<?xml version="1.0" encoding="UTF-8"?>
<svg xmlns="http://www.w3.org/2000/svg" viewBox="0 0 55.56 45.32">
  <defs>
    <style>
      .cls-1 {
        fill: #001881;
      }

      .cls-1, .cls-2 {
        stroke-width: 0px;
      }

      .cls-3 {
        stroke-miterlimit: 10;
      }

      .cls-3, .cls-2 {
        fill: #87b7e0;
      }

      .cls-3, .cls-4, .cls-5 {
        stroke: #001881;
      }

      .cls-2 {
        mix-blend-mode: multiply;
      }

      .cls-4 {
        stroke-dasharray: 0 0 1.04 2.09;
      }

      .cls-4, .cls-5 {
        fill: none;
        stroke-linecap: round;
        stroke-linejoin: round;
      }

      .cls-6 {
        isolation: isolate;
      }
    </style>
  </defs>
  <g class="cls-6">
    <g id="Capa_2" data-name="Capa 2">
      <g id="Capa_1-2" data-name="Capa 1">
        <g>
          <path class="cls-3" d="M4.06.5h47.44c1.96,0,3.56,1.59,3.56,3.56v37.2c0,1.96-1.59,3.56-3.56,3.56H4.06c-1.96,0-3.56-1.59-3.56-3.56V4.06C.5,2.09,2.09.5,4.06.5Z"/>
          <g>
            <g>
              <line class="cls-5" x1="1.16" y1="2.55" x2="1.67" y2="2.55"/>
              <line class="cls-4" x1="3.76" y1="2.55" x2="52.84" y2="2.55"/>
              <line class="cls-5" x1="53.89" y1="2.55" x2="54.4" y2="2.55"/>
            </g>
            <g>
              <line class="cls-5" x1="1.16" y1="42.44" x2="1.67" y2="42.44"/>
              <line class="cls-4" x1="3.76" y1="42.44" x2="52.84" y2="42.44"/>
              <line class="cls-5" x1="53.89" y1="42.44" x2="54.4" y2="42.44"/>
            </g>
          </g>
          <g>
            <path class="cls-3" d="M55.06,17.41h-10.16c-1.12,0-2.02.91-2.02,2.02v6.45c0,1.12.91,2.02,2.02,2.02h10.16v-10.5Z"/>
            <path class="cls-1" d="M51.83,22.66c0,1.78-1.45,3.23-3.23,3.23s-3.23-1.45-3.23-3.23,1.45-3.23,3.23-3.23,3.23,1.45,3.23,3.23Z"/>
          </g>
          <g>
            <path class="cls-3" d="M39.89,22.66c0,8.16-6.62,14.78-14.78,14.78s-14.78-6.62-14.78-14.78,6.62-14.78,14.78-14.78,14.78,6.62,14.78,14.78Z"/>
            <path class="cls-1" d="M32.57,17.59l-4.82.76c-.24-.61-.46-1.04-.65-1.28-.19-.24-.52-.48-.96-.72v3.74c2.62.7,4.38,1.44,5.25,2.22,1.17,1.04,1.75,2.37,1.75,3.98,0,.94-.21,1.81-.63,2.59-.42.79-.95,1.44-1.6,1.97-.65.53-1.34.91-2.08,1.15-.73.24-1.63.38-2.69.42v2.45h-1.89v-2.45c-1.27-.11-2.3-.32-3.09-.62-.79-.3-1.47-.71-2.05-1.24-.57-.53-1.02-1.09-1.33-1.7-.31-.61-.54-1.34-.7-2.21l5.23-.61c.15.85.36,1.47.63,1.85.26.38.7.72,1.3,1.01v-4.58c-1.74-.48-2.98-.9-3.71-1.26-.73-.35-1.36-.92-1.9-1.7-.53-.78-.8-1.73-.8-2.86,0-1.54.54-2.82,1.61-3.85,1.07-1.03,2.67-1.6,4.8-1.72v-1.28h1.89v1.28c1.93.12,3.41.58,4.43,1.37,1.02.79,1.69,1.88,2,3.26ZM24.24,16.29c-.55.18-.94.41-1.15.68-.21.27-.32.59-.32.95s.11.71.33.99c.22.28.6.52,1.15.71v-3.33ZM26.13,29.04c.73-.17,1.27-.43,1.61-.81.34-.38.51-.8.51-1.27,0-.41-.15-.78-.43-1.12-.29-.34-.85-.66-1.69-.95v4.15Z"/>
          </g>
          <path class="cls-2" d="M25.11.5H3.61C1.89.5.5,2.09.5,4.06v37.2c0,1.97,1.39,3.56,3.11,3.56h21.5V.5Z"/>
        </g>
      </g>
    </g>
  </g>
</svg>