<?xml version="1.0" encoding="UTF-8"?>
<svg id="Capa_2" data-name="Capa 2" xmlns="http://www.w3.org/2000/svg" viewBox="0 0 61.34 52.37">
  <defs>
    <style>
      .cls-1 {
        fill: #6fd550;
      }

      .cls-1, .cls-2, .cls-3, .cls-4, .cls-5, .cls-6, .cls-7, .cls-8, .cls-9, .cls-10, .cls-11, .cls-12 {
        stroke-width: 0px;
      }

      .cls-2 {
        fill: #afb3f5;
      }

      .cls-3 {
        fill: #e60000;
      }

      .cls-4 {
        fill: #df9000;
      }

      .cls-5 {
        fill: #5a4139;
      }

      .cls-6 {
        fill: #7deb5d;
      }

      .cls-7 {
        fill: #d8dbff;
      }

      .cls-8 {
        fill: #eba83a;
      }

      .cls-9 {
        fill: #898bc0;
      }

      .cls-10 {
        fill: #886d62;
      }

      .cls-11 {
        fill: #ee484f;
      }

      .cls-12 {
        fill: #55a142;
      }
    </style>
  </defs>
  <g id="_ëÎÓÈ_1" data-name="ëÎÓÈ 1">
    <g>
      <g>
        <path class="cls-2" d="M56.88,33.24l-1.17,4.69c0,1.55-.44,3.11-1.32,4.57-1.17,2.05-3.17,3.99-6.04,5.63-9.76,5.66-25.61,5.66-35.37,0-2.84-1.64-4.86-3.58-6.04-5.63-.88-1.47-1.32-3.02-1.32-4.57l-1.17-4.69h52.43Z"/>
        <path class="cls-9" d="M56.88,33.24l-1.17,4.69c0,1.55-.44,3.11-1.32,4.57-.64.47-1.32.91-2.05,1.32-11.96,6.92-31.39,6.92-43.34,0-.73-.41-1.41-.85-2.05-1.32-.88-1.47-1.32-3.02-1.32-4.57l-1.17-4.69h52.43Z"/>
        <path class="cls-2" d="M61.34,26.65v2.49c0,4.54-2.99,9.06-9,12.51-11.96,6.92-31.39,6.92-43.34,0C3.02,38.19,0,33.68,0,29.14v-2.49h61.34Z"/>
        <g>
          <path class="cls-7" d="M52.35,39.16c-11.97,6.91-31.39,6.91-43.36,0-11.97-6.91-11.97-18.12,0-25.04,11.97-6.91,31.39-6.91,43.36,0,11.97,6.91,11.97,18.12,0,25.04Z"/>
          <path class="cls-2" d="M49.27,39.04c-10.27,5.93-26.92,5.93-37.2,0-10.27-5.93-10.27-15.54,0-21.47,10.27-5.93,26.92-5.93,37.2,0,10.27,5.93,10.27,15.54,0,21.47Z"/>
          <path class="cls-7" d="M47.91,38.26c-9.52,5.5-24.96,5.5-34.48,0-9.52-5.5-9.52-14.41,0-19.9,9.52-5.5,24.96-5.5,34.48,0,9.52,5.5,9.52,14.41,0,19.9Z"/>
        </g>
      </g>
      <g>
        <g>
          <path class="cls-4" d="M47.56,23.16c0,9.32-7.58,14.65-16.9,14.65s-16.9-5.33-16.9-14.65c0-2.5,1.67-4.97,4.97-6.89,6.6-3.81,17.3-3.81,23.89,0,3.3,1.92,4.93,4.39,4.93,6.89Z"/>
          <path class="cls-8" d="M47.56,23.16c0,2.5-1.63,4.97-4.93,6.89-6.6,3.81-17.3,3.81-23.89,0-3.3-1.92-4.97-4.39-4.97-6.89s1.67-4.97,4.97-6.89c6.6-3.81,17.3-3.81,23.89,0,3.3,1.92,4.93,4.39,4.93,6.89Z"/>
        </g>
        <path class="cls-12" d="M16.79,21.57c-.65.56-2.21,1.9-2.4,3.96-.18,1.88.82,4.05,2.47,4.88,1.29.64,2.07.02,3.89.35,2.67.5,2.85,2.53,4.38,2.54,2.58.03,3.26-5.18,5.88-5.36,2.54-.17,3.93,4.58,6.06,4.16,1.79-.36,1.52-3.87,4.17-4.88,1.63-.62,2.73.33,3.75-.49,1.15-.93,1.08-3.22.64-4.45-2.3-6.38-22.39-6.26-28.84-.71Z"/>
        <g>
          <path class="cls-1" d="M33.33,30.47c0,.68-.45,1.36-1.35,1.88-1.8,1.04-4.73,1.04-6.53,0-.9-.53-1.36-1.2-1.36-1.88v-1.19h9.23v1.06s0,.09,0,.13Z"/>
          <path class="cls-6" d="M33.33,29.27c0,.68-.45,1.36-1.35,1.88-1.8,1.04-4.73,1.04-6.53,0-.9-.53-1.36-1.2-1.36-1.88s.46-1.36,1.36-1.88c1.8-1.04,4.73-1.04,6.53,0,.9.53,1.35,1.2,1.35,1.88Z"/>
          <path class="cls-1" d="M31.96,29.27c0,.48-.31.95-.95,1.32-1.27.73-3.32.73-4.59,0-.63-.37-.95-.84-.95-1.32s.32-.95.95-1.32c1.27-.73,3.32-.73,4.59,0,.63.37.95.84.95,1.32Z"/>
        </g>
        <g>
          <path class="cls-1" d="M41.97,28.66c0,.68-.45,1.36-1.35,1.88-1.8,1.04-4.73,1.04-6.53,0-.9-.53-1.36-1.2-1.36-1.88v-1.19h9.23v1.06s0,.09,0,.13Z"/>
          <path class="cls-6" d="M41.97,27.47c0,.68-.45,1.36-1.35,1.88-1.8,1.04-4.73,1.04-6.53,0-.9-.53-1.36-1.2-1.36-1.88s.46-1.36,1.36-1.88c1.8-1.04,4.73-1.04,6.53,0,.9.53,1.35,1.2,1.35,1.88Z"/>
          <path class="cls-1" d="M40.6,27.47c0,.48-.31.95-.95,1.32-1.27.73-3.32.73-4.59,0-.63-.37-.95-.84-.95-1.32s.32-.95.95-1.32c1.27-.73,3.32-.73,4.59,0,.63.37.95.84.95,1.32Z"/>
        </g>
        <g>
          <path class="cls-1" d="M24.89,26.19c0,.68-.45,1.36-1.35,1.88-1.8,1.04-4.73,1.04-6.53,0-.9-.53-1.36-1.2-1.36-1.88v-1.19h9.23v1.06s0,.09,0,.13Z"/>
          <path class="cls-6" d="M24.89,25c0,.68-.45,1.36-1.35,1.88-1.8,1.04-4.73,1.04-6.53,0-.9-.53-1.36-1.2-1.36-1.88s.46-1.36,1.36-1.88c1.8-1.04,4.73-1.04,6.53,0,.9.53,1.35,1.2,1.35,1.88Z"/>
          <path class="cls-1" d="M23.51,25c0,.48-.31.95-.95,1.32-1.27.73-3.32.73-4.59,0-.63-.37-.95-.84-.95-1.32s.32-.95.95-1.32c1.27-.73,3.32-.73,4.59,0,.63.37.95.84.95,1.32Z"/>
        </g>
        <g>
          <path class="cls-5" d="M46.45,21.58c0,2.34-1.52,4.64-4.6,6.43-6.16,3.55-16.15,3.55-22.31,0-3.08-1.79-4.64-4.1-4.64-6.43v-4.06h31.52v3.62c.03.14.03.3.03.44Z"/>
          <path class="cls-10" d="M46.45,17.5c0,2.34-1.52,4.64-4.6,6.43-6.16,3.56-16.15,3.56-22.31,0-3.08-1.79-4.64-4.1-4.64-6.43s1.56-4.64,4.64-6.43c6.16-3.55,16.15-3.55,22.31,0,3.08,1.79,4.6,4.1,4.6,6.43Z"/>
        </g>
        <g>
          <path class="cls-3" d="M27.86,22.88c0,.9-.59,1.8-1.78,2.49-2.39,1.38-6.25,1.38-8.64,0-1.19-.69-1.8-1.59-1.8-2.49v-1.57h12.2v1.4c.01.05.01.12.01.17Z"/>
          <path class="cls-11" d="M27.86,21.3c0,.9-.59,1.8-1.78,2.49-2.39,1.38-6.25,1.38-8.64,0-1.19-.69-1.8-1.59-1.8-2.49s.6-1.8,1.8-2.49c2.39-1.38,6.25-1.38,8.64,0,1.19.69,1.78,1.59,1.78,2.49Z"/>
        </g>
        <g>
          <path class="cls-3" d="M45.23,24.64c0,.9-.59,1.8-1.78,2.49-2.39,1.38-6.25,1.38-8.64,0-1.19-.69-1.8-1.59-1.8-2.49v-1.57h12.2v1.4c.01.05.01.12.01.17Z"/>
          <path class="cls-11" d="M45.23,23.06c0,.9-.59,1.8-1.78,2.49-2.39,1.38-6.25,1.38-8.64,0-1.19-.69-1.8-1.59-1.8-2.49s.6-1.8,1.8-2.49c2.39-1.38,6.25-1.38,8.64,0,1.19.69,1.78,1.59,1.78,2.49Z"/>
        </g>
        <path class="cls-4" d="M47.56,15.16c0,2.5-1.63,4.97-4.93,6.89-6.6,3.81-17.3,3.81-23.89,0-3.3-1.92-4.97-4.39-4.97-6.89,0-1.2.11-2.36.36-3.44.65,1.81,2.18,3.52,4.6,4.93,6.6,3.81,17.3,3.81,23.89,0,2.39-1.41,3.92-3.08,4.57-4.89.25,1.09.36,2.21.36,3.41Z"/>
        <path class="cls-8" d="M47.2,11.75c-.65,1.81-2.18,3.48-4.57,4.89-6.6,3.81-17.3,3.81-23.89,0-2.43-1.41-3.95-3.12-4.6-4.93C15.77,4.42,22.55,0,30.67,0s14.94,4.42,16.53,11.75Z"/>
        <circle class="cls-4" cx="32.09" cy="5.59" r=".93"/>
        <path class="cls-4" d="M26.92,9.37c0,.4-.33.73-.73.73s-.73-.33-.73-.73.33-.73.73-.73.73.33.73.73Z"/>
        <path class="cls-4" d="M24.89,5.86c0,.38-.31.69-.69.69s-.69-.31-.69-.69.31-.69.69-.69.69.31.69.69Z"/>
        <circle class="cls-4" cx="28.64" cy="4.4" r=".78"/>
        <path class="cls-4" d="M33.96,11.68c0,.43-.35.78-.78.78s-.78-.35-.78-.78.35-.78.78-.78.78.35.78.78Z"/>
        <path class="cls-4" d="M40.53,7.79c0,.51-.41.92-.92.92s-.92-.41-.92-.92.41-.92.92-.92.92.41.92.92Z"/>
        <circle class="cls-4" cx="21.21" cy="11.04" r=".95"/>
      </g>
    </g>
  </g>
</svg>