<?xml version="1.0" encoding="UTF-8"?>
<svg id="Capa_2" data-name="Capa 2" xmlns="http://www.w3.org/2000/svg" xmlns:xlink="http://www.w3.org/1999/xlink" viewBox="0 0 85 101.11">
  <defs>
    <style>
      .cls-1 {
        clip-path: url(#clippath);
      }

      .cls-2 {
        fill: none;
      }

      .cls-2, .cls-3, .cls-4, .cls-5, .cls-6, .cls-7, .cls-8, .cls-9, .cls-10, .cls-11, .cls-12, .cls-13, .cls-14, .cls-15, .cls-16, .cls-17, .cls-18 {
        stroke-width: 0px;
      }

      .cls-19 {
        isolation: isolate;
      }

      .cls-3 {
        fill: #4fa607;
      }

      .cls-4 {
        fill: #6361c2;
      }

      .cls-5 {
        fill: #403d8b;
      }

      .cls-6 {
        fill: #221c3a;
      }

      .cls-7 {
        fill: #d33636;
      }

      .cls-8 {
        fill: #85b208;
      }

      .cls-9 {
        fill: #fda4fe;
      }

      .cls-10 {
        fill: #fbbd9e;
      }

      .cls-11 {
        fill: #ff637b;
      }

      .cls-12 {
        fill: #ff8cfe;
      }

      .cls-13 {
        fill: #f2a883;
      }

      .cls-14 {
        fill: #ffe04a;
      }

      .cls-15 {
        fill: #fff8f8;
      }

      .cls-16 {
        fill: #ffce45;
      }

      .cls-17 {
        fill: #ffb59c;
      }

      .cls-18 {
        fill: #eaa510;
      }
    </style>
    <clipPath id="clippath">
      <path class="cls-2" d="M38.68,43.61c18.4-10.62,33.36-2.1,33.42,19.04l-9.33,5.39c-.04-15.22-10.81-21.36-24.06-13.71-13.24,7.65-23.94,26.18-23.9,41.4l-9.33,5.39c-.06-21.14,14.8-46.89,33.19-57.5Z"/>
    </clipPath>
  </defs>
  <g id="_0" data-name="0">
    <g id="_6" data-name="6">
      <g>
        <path class="cls-5" d="M70.83,10.89c-.89-1.6-1.78-3.2-2.67-4.8-.23-.42-.88-.04-.65.38.89,1.6,1.78,3.2,2.67,4.8.23.42.88.04.65-.38h0Z"/>
        <path class="cls-5" d="M69.76,12.73c-1.11-.67-2.22-1.33-3.34-2-.41-.25-.79.4-.38.65,1.11.67,2.22,1.33,3.34,2,.41.25.79-.4.38-.65h0Z"/>
        <path class="cls-5" d="M73.09,10.81c-.12-1.1-.24-2.21-.36-3.31-.05-.47-.8-.48-.75,0,.12,1.1.24,2.21.36,3.31.05.47.8.48.75,0h0Z"/>
      </g>
      <path class="cls-9" d="M59.47,27.4c0,1.18-.96,2.69-2.14,3.37-1.18.68-2.14.28-2.14-.9s.96-2.69,2.14-3.37c1.18-.68,2.14-.28,2.14.9Z"/>
      <g>
        <path class="cls-5" d="M40.19,73.7c-40.8,17.88-7.24,18.71-7.24,18.71l7.24-18.71Z"/>
        <g>
          <g>
            <path class="cls-4" d="M33.35,40.53c18.4-10.62,33.36-2.1,33.42,19.04l-9.33,5.39c-.04-15.22-10.81-21.36-24.06-13.71-13.24,7.65-23.94,26.18-23.9,41.4L.15,98.03c-.06-21.14,14.8-46.89,33.19-57.5Z"/>
            <path class="cls-5" d="M.15,98.18s-.05,0-.07-.02c-.05-.03-.08-.08-.08-.13-.06-21.15,14.87-47.01,33.27-57.63,8.98-5.18,17.43-6.02,23.79-2.36,6.32,3.64,9.82,11.28,9.85,21.53,0,.05-.03.1-.07.13l-9.33,5.39s-.1.03-.15,0c-.05-.03-.08-.08-.08-.13-.02-7.28-2.49-12.71-6.96-15.28-4.5-2.59-10.49-1.99-16.87,1.7-13.18,7.61-23.87,26.12-23.82,41.27,0,.05-.03.1-.07.13L.23,98.16s-.05.02-.08.02ZM33.34,40.53l.08.13C15.17,51.19.36,76.76.3,97.77l9.03-5.21c0-15.23,10.74-33.8,23.97-41.44,6.48-3.74,12.58-4.34,17.17-1.7,4.51,2.6,7.03,8.02,7.11,15.28l9.03-5.21c-.05-10.09-3.49-17.61-9.7-21.18-6.27-3.61-14.61-2.77-23.49,2.36l-.08-.13Z"/>
          </g>
          <g class="cls-1">
            <g>
              <path class="cls-3" d="M68.76,47.3c2.32,4.26,3.42,9.13,3.44,15.35l-33.43,19.33,29.99-34.68Z"/>
              <path class="cls-8" d="M59.24,38.97c4.16,1.43,7.19,4.07,9.52,8.33l-29.99,34.68,20.48-43Z"/>
              <path class="cls-14" d="M46.16,39.17c5.13-1.57,8.93-1.62,13.09-.19l-20.48,43,7.39-42.81Z"/>
              <path class="cls-16" d="M38.66,42.45c2.47-1.43,4.94-2.5,7.49-3.28l-7.39,42.81-7.65-34.11c2.57-2.19,5.06-3.98,7.55-5.42Z"/>
              <path class="cls-11" d="M8.41,82.82l30.36-.84L5.33,101.31c-.02-6.21.87-11.58,3.08-18.49Z"/>
              <path class="cls-17" d="M31.11,47.87l7.65,34.11-21.14-18.51c4.07-6.28,8.37-11.24,13.49-15.6Z"/>
              <path class="cls-12" d="M17.62,63.47l21.14,18.51-30.36.84c2.21-6.92,5.14-13.08,9.21-19.35Z"/>
            </g>
          </g>
          <g class="cls-19">
            <path class="cls-15" d="M72.6,58.02s-.06-.01-.11.01l-21.69,12.56,3.16,1.84,21.69-12.56s.09-.03.11-.01l-3.16-1.84Z"/>
            <path class="cls-6" d="M75.65,59.88l-21.69,12.56,1.16,3,20.56-15.22c.19-.14.17-.45-.02-.34Z"/>
          </g>
          <g class="cls-19">
            <g>
              <path class="cls-4" d="M49.78,65.2c-2.41-1.4-5.75-1.2-9.43.92-7.33,4.23-13.24,14.47-13.22,22.89l5.82,3.39c-.02-8.42,5.89-18.66,13.22-22.89,3.68-2.13,7.02-2.32,9.43-.92l-5.82-3.39Z"/>
              <path class="cls-5" d="M32.95,92.56s-.05,0-.08-.02l-5.82-3.39s-.07-.08-.07-.13c-.02-8.45,5.94-18.78,13.29-23.02,3.61-2.09,7.01-2.41,9.58-.92,0,0,5.82,3.4,5.82,3.4.07.04.1.13.05.21-.04.07-.13.09-.2.05-2.47-1.43-5.76-1.11-9.28.92-7.27,4.2-13.16,14.41-13.14,22.76,0,.05-.03.1-.08.13-.02.01-.05.02-.07.02ZM27.28,88.93l5.52,3.22c.1-8.4,6.01-18.56,13.29-22.76,2.8-1.62,5.48-2.18,7.73-1.65l-4.13-2.41c-2.47-1.43-5.76-1.11-9.28.92-7.25,4.18-13.12,14.34-13.14,22.67Z"/>
            </g>
            <g>
              <path class="cls-6" d="M46.17,69.52c-7.33,4.23-13.24,14.47-13.22,22.89l26.51-15.31c-.02-8.42-5.98-11.81-13.3-7.58Z"/>
              <path class="cls-6" d="M32.95,92.51s-.03,0-.05-.01c-.03-.02-.05-.05-.05-.09-.02-8.43,5.93-18.74,13.27-22.98,3.58-2.07,6.96-2.4,9.51-.94,2.53,1.46,3.93,4.51,3.94,8.61,0,.04-.02.07-.05.09l-26.51,15.31s-.03.01-.05.01ZM46.17,69.52l.05.09c-7.23,4.18-13.11,14.29-13.17,22.63l26.31-15.19c-.02-3.99-1.39-6.96-3.84-8.38-2.48-1.43-5.79-1.1-9.31.94l-.05-.09Z"/>
            </g>
          </g>
        </g>
        <g>
          <g>
            <path class="cls-18" d="M67.79,59.64c.42-.37,1.22-1,2.03-1.43.49.05,1,.06,1.52.04,1.07-.05,2.32-.19,3.24-.8.02.2.02.42,0,.63-.03.42-.06.6-.55.9-2.47,1.51-2.81,1.71-3.26,1.93-.51.25-1.13.57-2.46.19-.67-.3-.72-.58-.69-.82.02-.13-.01-.48.16-.63Z"/>
            <path class="cls-6" d="M67.92,59.41c.61-.49,2.09-1.49,2.83-2.14.2-.18.68-.67.8-.93.29-.66,1.8-.66,2.64-.22.4.21.47.89.43,1.52-.03.42-.06.6-.55.9-2.47,1.51-3.01,1.78-3.47,1.98-.44.19-.9.37-1.87.16-.33-.07-.64-.23-.87-.48-.2-.22-.3-.49.07-.79Z"/>
          </g>
          <g id="_4" data-name="4">
            <g>
              <path class="cls-18" d="M81.84,67.16c-.8.72-2.77,1.06-3.33-.05-.26-.51.38-4.03.4-5.03,0-.29.01-.79.01-.79.07-.1.37-.18.48-.23.48-.24,1.35-.04,1.88-.08.27-.02.53,1.78.55,1.96.15,1.1.62,3.66,0,4.22Z"/>
              <path class="cls-6" d="M81.84,66.57c-.8.72-2.77,1.06-3.33-.05-.26-.51.3-4.02.32-5.02,0-.29.01-.79.01-.79.07-.1.45-.19.56-.24.48-.24,1.35-.04,1.88-.08.27-.02.53,1.78.55,1.96.15,1.1.62,3.66,0,4.22Z"/>
            </g>
          </g>
          <g id="_4-2" data-name="4">
            <path class="cls-15" d="M80.34,12.77s1.59-8.41,1.72-9.05c.14-.74,2.41-.34,2.32.31-.03.24-.66,8.55-1.12,10.01-.69,2.2-1.34,3.97-2.05,6.17-.39,1.19-.74,2.22-.44,3.59.04.18-4.91-2.81-4.78-3.66,0,0,.91-1.41,1.48-2.19,1.27-1.74,2.41-4.06,2.89-5.17Z"/>
            <g>
              <path class="cls-6" d="M82.24,53.62c-.19-1-.24-1.45-.24-2.67,0-6.41,0-13.18-.19-13.68,0,0-.02-1.63-3.2-1.42l-5.18.78c-.68.15-.86.33-1.46,1.44-1.14,2.12-6.32,7.4-6.51,10.62-.11,1.95,4.57,5.85,5.43,8.17.54,1.11,4.12.59,3.47-.95-1.88-4.5-2.44-6.63-3.91-7.65,0,0,4.83-4.43,5.6-5.2,0,0,1.18,6.38,1.8,8.39.33,1.06.25,1.22.13,2.22-.29,2.37.35,4.38.63,7.28.09.94,3.29,1.21,3.36-.18.11-2.43.66-5.07.27-7.16Z"/>
              <path class="cls-15" d="M69.23,24.8c-.06,1.16.47,2.83.98,3.88l.76,1.55c.96,1.96,1.36,4.07,1.36,7.12,0,2.47,9.76,2.27,9.23-.91-.41-2.47-.48-2.59-.47-3.82,0-1.45.12-5.12-.32-11.57-.07-1.06-1-2.36-2.18-2.2-1.89.25-2.14,1.43-4.5,2.83-2.37,1.41-4.86,1.74-4.86,3.12Z"/>
            </g>
            <path class="cls-15" d="M68.87,25.04c-.71,1.63-1.54,3.21-2.31,4.82-1.32,2.74-1.44,4.12-.41,4.61,1.27.6,2.24-1.31,2.52-1.75.33-.51,1.73-2.45,2.27-3.26.95-1.42,1.16-3.85-.24-5.77-.33-.45-1.35.24-1.84,1.35Z"/>
            <path class="cls-15" d="M64.93,28.2c-.42-.64-2.35.41-1.95,1.13.52.93,2.1,4.24,2.46,4.65,1.17,1.32,2.77.21,2.38-1.07-.2-.66-2.5-4.11-2.9-4.71Z"/>
            <path class="cls-10" d="M64.54,26.69c.15-.25.15-.59-.18-.67.2-.22.05-.56-.43-.67-.16-.03-.47.04-.73.11-.31.09-.6.25-.83.47-.29.28-.45.51-.48.75-.06.39.19.83.94,1.84.05.07.26.51.31.59.28.52,1.85-.49,1.65-.83-.07-.11-.13-.19-.22-.28-.1-.1.07-.25.12-.41.04-.15-.08-.28-.11-.26.3-.19.14-.61-.01-.66Z"/>
            <g>
              <path class="cls-10" d="M84.5.79c0-.21-.27-.37-.46-.3-.1-.29-.5-.4-.7-.26.04-.03-.18-.18-.2-.18-.11-.05-.24-.06-.35-.04-.32.05-.32.28-.38.55,0,.03-.01.06-.03.08-.02.04-.05.07-.08.1-.14.13-.27.26-.41.39-.09.09-.19.18-.26.29-.09.13-.1.24-.08.39.03.24.08.54.24.73.36.43.38,1.01.41,1.14.05.48,1.97.71,2.05.29.02-.14,0-.45.37-.96.25-.35.34-.7.36-1.18,0-.26,0-1.1-.49-1.04Z"/>
              <path class="cls-13" d="M82.6,2.22c.1.18.15.39.3.53.14.12.42.17.6.14.14-.02.26-.11.37-.2.15-.12.3-.25.44-.39.05-.05.1-.11.1-.18-.17.11-.38.08-.4-.09-.06.07-.25.08-.4.01-.09-.04-.13-.14-.17-.22-.1.08-.24.1-.36.07-.12-.04-.22-.13-.27-.25,0,0-.13.09-.31.02-.14-.05-.27-.2-.24-.33,0,0-.16-.08-.18-.03-.06.13.05.33.16.41.18.13.27.31.37.5Z"/>
              <path class="cls-10" d="M81.9,1.69c-.06.06-.17.25-.28.25-.05,0-.08-.24-.07-.34.02-.26.1-1.07.8-1.15.25-.03.46.11.71.05.04,0,.08-.02.12-.02.09,0,.18.04.22.11.19.29-.24.51-.45.56-.88.22-.8.29-1.06.54Z"/>
            </g>
            <g>
              <g>
                <path class="cls-13" d="M77,20.21c-1.38-.01-2.88-.46-4.13-.85.54.88.55,2.1.6,2.64.06.72.58,1.96,2.05,1.79.39-.05.52-.27.76-.4l.51.75.06-1.03c.52-.16.8-.65.66-1.04-.19-.53-.42-1.29-.51-1.85Z"/>
                <g>
                  <path class="cls-7" d="M81.49,33.27c-.03-.06-.07-.11-.12-.15-1.95-1.57-2.99-3.89-4.12-9.24l-.8.36s.85,7.82,3.41,10.86c.5.59,2.12.39,2.59.32.06,0,.1-.08.07-.13l-1.03-2.02Z"/>
                  <path class="cls-7" d="M77.77,22.68c-.05.41-.24.81-.53,1.13l-.21-.53c.22-.27.4-.57.53-.89.06.06.21.28.21.3ZM75.3,23.97c.31.2.71.27,1.1.2l-.24-.51c-.32.05-.64.03-.94-.05,0,.09.06.36.08.37Z"/>
                  <path class="cls-7" d="M75.93,23.78c-.1.29.28,1.06.69,1.04.66-.03,1.14-.58.75-1.74-.04-.11-.34.17-.7.35-.33.16-.7.21-.75.35Z"/>
                </g>
                <path class="cls-15" d="M75.55,24.85l.72-1.45c-1.39.4-2.81-.45-2.85-1.93l-.17.44c-.12.31-.13.65,0,.96.36.85,1.01,1.71,2.29,1.98Z"/>
                <path class="cls-15" d="M77.28,21.52c.05.06.11,1.04-.44,1.59l1.4.22s-.51-1.12-.97-1.81Z"/>
              </g>
              <g>
                <path class="cls-10" d="M77.29,18.16c-.16-.99-.69-2.35-1.17-3.2-.49-.87-1.47-1.05-2.45-.87-1.34.25-3.07,1.75-2.73,3.2.13.57.22,2.13,1.81,3.38,2.05,1.8,4.57,1.92,4.87.89.15-.5-.21-2.71-.32-3.4Z"/>
                <path class="cls-6" d="M76.25,15.2c.02-.44-.96-2.22-3.23-1.25-.3.13-.58.27-.82.41-.49.29-.94.65-1.28,1.1-.87,1.18-.66,2.62.02,3.81.78,1.35,2.42,1.89,2.4,1.87-.23-.2-1.18-1-1.38-1.22-.24-.28-.6-.85-.23-1.16.36-.32.53.28.94.09.37-.18.04-.63-.09-.84-.74-1.26,3.03-3.58,3.67-2.79Z"/>
              </g>
            </g>
          </g>
        </g>
      </g>
      <path class="cls-8" d="M14.4,43.98c0,1.26-1.02,2.87-2.28,3.59-1.26.73-2.28.3-2.28-.96s1.02-2.87,2.28-3.59c1.26-.73,2.28-.3,2.28.96Z"/>
      <g>
        <path class="cls-4" d="M23.21,48.68c0,2.75-2.23,6.26-4.98,7.85s-4.98.65-4.98-2.1,2.23-6.26,4.98-7.85c2.75-1.59,4.98-.65,4.98,2.1Z"/>
        <path class="cls-5" d="M15.75,57.45c-.5,0-.96-.11-1.35-.34-.83-.48-1.29-1.43-1.29-2.69,0-2.79,2.27-6.37,5.05-7.98,1.49-.86,2.92-1.03,3.91-.45.83.48,1.29,1.43,1.29,2.69,0,2.79-2.27,6.37-5.05,7.98-.91.52-1.79.79-2.56.79ZM20.72,45.96c-.72,0-1.55.25-2.41.75-2.7,1.56-4.9,5.02-4.9,7.72,0,1.14.4,2,1.14,2.43.9.52,2.22.35,3.61-.45,2.7-1.56,4.9-5.02,4.9-7.72,0-1.14-.4-2-1.14-2.43-.35-.2-.75-.3-1.2-.3Z"/>
      </g>
      <path class="cls-11" d="M21.93,45.13c0,.71-.57,1.61-1.28,2.02-.71.41-1.28.17-1.28-.54s.57-1.61,1.28-2.02c.71-.41,1.28-.17,1.28.54Z"/>
    </g>
  </g>
</svg>