<?xml version="1.0" encoding="UTF-8"?>
<svg xmlns="http://www.w3.org/2000/svg" xmlns:xlink="http://www.w3.org/1999/xlink" viewBox="0 0 500 500">
  <defs>
    <style>
      .cls-1 {
        fill: url(#linear-gradient-28);
      }

      .cls-1, .cls-2, .cls-3, .cls-4, .cls-5 {
        mix-blend-mode: overlay;
      }

      .cls-1, .cls-2, .cls-6, .cls-7, .cls-8, .cls-9, .cls-10, .cls-11, .cls-12, .cls-13, .cls-14, .cls-15, .cls-16, .cls-17, .cls-18, .cls-19, .cls-20, .cls-21, .cls-22, .cls-23, .cls-24, .cls-25, .cls-26, .cls-27, .cls-28, .cls-29, .cls-30, .cls-31, .cls-32, .cls-33, .cls-34, .cls-35, .cls-36, .cls-37, .cls-38, .cls-39, .cls-40, .cls-41, .cls-42, .cls-43, .cls-44, .cls-45, .cls-46, .cls-47, .cls-48, .cls-49, .cls-50, .cls-51, .cls-52, .cls-53, .cls-54, .cls-55, .cls-56, .cls-57, .cls-58, .cls-5, .cls-59, .cls-60, .cls-61, .cls-62, .cls-63, .cls-64, .cls-65, .cls-66, .cls-67, .cls-68, .cls-69, .cls-70, .cls-71, .cls-72, .cls-73 {
        stroke-width: 0px;
      }

      .cls-1, .cls-2, .cls-59 {
        opacity: .57;
      }

      .cls-2 {
        fill: url(#linear-gradient-52);
      }

      .cls-3 {
        opacity: .35;
      }

      .cls-6 {
        fill: url(#linear-gradient);
      }

      .cls-7 {
        fill: url(#radial-gradient);
      }

      .cls-8 {
        fill: #45b1d5;
        mix-blend-mode: multiply;
        opacity: .18;
      }

      .cls-9 {
        fill: url(#linear-gradient-38);
      }

      .cls-10 {
        fill: url(#linear-gradient-33);
      }

      .cls-11 {
        fill: url(#linear-gradient-29);
      }

      .cls-12 {
        fill: url(#linear-gradient-32);
      }

      .cls-13 {
        fill: url(#linear-gradient-30);
      }

      .cls-14 {
        fill: url(#linear-gradient-31);
      }

      .cls-15 {
        fill: url(#linear-gradient-36);
      }

      .cls-16 {
        fill: url(#linear-gradient-39);
      }

      .cls-17 {
        fill: url(#linear-gradient-34);
      }

      .cls-18 {
        fill: url(#linear-gradient-37);
      }

      .cls-19 {
        fill: url(#linear-gradient-35);
      }

      .cls-20 {
        fill: url(#linear-gradient-11);
      }

      .cls-21 {
        fill: url(#linear-gradient-12);
      }

      .cls-22 {
        fill: url(#linear-gradient-13);
      }

      .cls-23 {
        fill: url(#linear-gradient-10);
      }

      .cls-24 {
        fill: url(#linear-gradient-17);
      }

      .cls-25 {
        fill: url(#linear-gradient-16);
      }

      .cls-26 {
        fill: url(#linear-gradient-19);
      }

      .cls-27 {
        fill: url(#linear-gradient-15);
      }

      .cls-28 {
        fill: url(#linear-gradient-21);
      }

      .cls-29 {
        fill: url(#linear-gradient-18);
      }

      .cls-30 {
        fill: url(#linear-gradient-14);
      }

      .cls-31 {
        fill: url(#linear-gradient-20);
      }

      .cls-32 {
        fill: url(#linear-gradient-27);
      }

      .cls-33 {
        fill: url(#linear-gradient-26);
      }

      .cls-34 {
        fill: url(#linear-gradient-45);
      }

      .cls-35 {
        fill: url(#linear-gradient-46);
      }

      .cls-36 {
        fill: url(#linear-gradient-44);
      }

      .cls-37 {
        fill: url(#linear-gradient-48);
      }

      .cls-38 {
        fill: url(#linear-gradient-49);
      }

      .cls-39 {
        fill: url(#linear-gradient-47);
      }

      .cls-40 {
        fill: url(#linear-gradient-42);
      }

      .cls-41 {
        fill: url(#linear-gradient-43);
      }

      .cls-42 {
        fill: url(#linear-gradient-40);
      }

      .cls-43 {
        fill: url(#linear-gradient-41);
      }

      .cls-44 {
        fill: url(#linear-gradient-51);
      }

      .cls-45 {
        fill: url(#linear-gradient-50);
      }

      .cls-46 {
        opacity: .38;
      }

      .cls-46, .cls-71 {
        fill: #e3eaff;
      }

      .cls-74 {
        mix-blend-mode: hard-light;
      }

      .cls-47 {
        fill: url(#linear-gradient-25);
      }

      .cls-47, .cls-48, .cls-49, .cls-50, .cls-75 {
        mix-blend-mode: screen;
      }

      .cls-48 {
        fill: url(#linear-gradient-24);
      }

      .cls-49 {
        fill: url(#linear-gradient-23);
      }

      .cls-50 {
        fill: url(#linear-gradient-22);
      }

      .cls-76 {
        opacity: .69;
      }

      .cls-77 {
        opacity: .53;
      }

      .cls-51 {
        fill: url(#linear-gradient-4);
      }

      .cls-52 {
        fill: url(#linear-gradient-2);
      }

      .cls-53 {
        fill: url(#linear-gradient-3);
      }

      .cls-54 {
        fill: url(#linear-gradient-8);
      }

      .cls-55 {
        fill: url(#linear-gradient-9);
      }

      .cls-56 {
        fill: url(#linear-gradient-7);
      }

      .cls-57 {
        fill: url(#linear-gradient-5);
      }

      .cls-58 {
        fill: url(#linear-gradient-6);
      }

      .cls-5 {
        opacity: .43;
      }

      .cls-5, .cls-70 {
        fill: #fff;
      }

      .cls-78 {
        isolation: isolate;
      }

      .cls-59 {
        fill: #eb6264;
      }

      .cls-60 {
        fill: #f2f8fd;
      }

      .cls-61 {
        fill: #faa993;
      }

      .cls-62 {
        fill: #f9fbfc;
      }

      .cls-63 {
        fill: #282a57;
      }

      .cls-64 {
        fill: #3bc9ff;
      }

      .cls-65 {
        fill: #1ae5ff;
      }

      .cls-66 {
        fill: #d1d6e4;
      }

      .cls-67 {
        fill: #d7dbd9;
      }

      .cls-68 {
        fill: #ff7723;
      }

      .cls-69 {
        fill: #f1f0f5;
      }

      .cls-72 {
        fill: #ff9a34;
      }

      .cls-73 {
        fill: #eb6e7a;
      }
    </style>
    <radialGradient id="radial-gradient" cx="274.01" cy="281.33" fx="274.01" fy="281.33" r="20.73" gradientTransform="translate(479.35 -103.46) rotate(71.29)" gradientUnits="userSpaceOnUse">
      <stop offset="0" stop-color="#ffec41"/>
      <stop offset=".2" stop-color="#ffb44e"/>
      <stop offset=".49" stop-color="#ff6760"/>
      <stop offset=".73" stop-color="#ff2f6d"/>
      <stop offset=".9" stop-color="#ff0d75"/>
      <stop offset="1" stop-color="#ff0079"/>
    </radialGradient>
    <linearGradient id="linear-gradient" x1="289.99" y1="257.88" x2="212.37" y2="527.88" gradientUnits="userSpaceOnUse">
      <stop offset="0" stop-color="#5155d4"/>
      <stop offset="1" stop-color="#45f7ff"/>
    </linearGradient>
    <linearGradient id="linear-gradient-2" x1="283.98" y1="445.48" x2="283.98" y2="314.34" gradientUnits="userSpaceOnUse">
      <stop offset="0" stop-color="#1ae5ff"/>
      <stop offset=".26" stop-color="#63e8f8"/>
      <stop offset=".7" stop-color="#eaeeee"/>
    </linearGradient>
    <linearGradient id="linear-gradient-3" x1="168.61" y1="361.55" x2="296.34" y2="427.01" xlink:href="#linear-gradient-2"/>
    <linearGradient id="linear-gradient-4" x1="268.99" y1="283.97" x2="232.12" y2="412.21" xlink:href="#linear-gradient"/>
    <linearGradient id="linear-gradient-5" y1="381.75" y2="288.97" xlink:href="#linear-gradient-2"/>
    <linearGradient id="linear-gradient-6" x1="173.52" y1="317.74" x2="288.09" y2="376.45" xlink:href="#linear-gradient-2"/>
    <linearGradient id="linear-gradient-7" x1="268.99" y1="248.17" x2="232.12" y2="376.41" xlink:href="#linear-gradient"/>
    <linearGradient id="linear-gradient-8" x1="200.44" y1="374.98" x2="191.81" y2="406.24" gradientUnits="userSpaceOnUse">
      <stop offset="0" stop-color="#ffe900"/>
      <stop offset="1" stop-color="#ff13bd"/>
    </linearGradient>
    <linearGradient id="linear-gradient-9" x1="198.7" y1="388.19" x2="213.53" y2="379.3" xlink:href="#linear-gradient-8"/>
    <linearGradient id="linear-gradient-10" x1="198.49" y1="396.21" x2="215.06" y2="396.21" xlink:href="#linear-gradient-8"/>
    <linearGradient id="linear-gradient-11" x1="214.45" y1="376.73" x2="205.55" y2="414.46" xlink:href="#linear-gradient-8"/>
    <linearGradient id="linear-gradient-12" x1="210.59" y1="397.77" x2="227.57" y2="386.18" xlink:href="#linear-gradient-8"/>
    <linearGradient id="linear-gradient-13" x1="211.91" y1="404.45" x2="228.48" y2="404.45" xlink:href="#linear-gradient-8"/>
    <linearGradient id="linear-gradient-14" x1="314.02" y1="392.58" x2="317.26" y2="413.61" gradientTransform="translate(626.7) rotate(-180) scale(1 -1)" xlink:href="#linear-gradient-8"/>
    <linearGradient id="linear-gradient-15" x1="319.63" y1="388.19" x2="334.45" y2="379.3" gradientTransform="translate(626.7) rotate(-180) scale(1 -1)" xlink:href="#linear-gradient-8"/>
    <linearGradient id="linear-gradient-16" x1="330.86" y1="371.42" x2="326.55" y2="401.07" gradientTransform="translate(626.7) rotate(-180) scale(1 -1)" xlink:href="#linear-gradient-8"/>
    <linearGradient id="linear-gradient-17" x1="324.91" y1="402.57" x2="338.66" y2="418.74" gradientTransform="translate(626.7) rotate(-180) scale(1 -1)" xlink:href="#linear-gradient-8"/>
    <linearGradient id="linear-gradient-18" x1="331.51" y1="397.77" x2="348.49" y2="386.18" gradientTransform="translate(626.7) rotate(-180) scale(1 -1)" xlink:href="#linear-gradient-8"/>
    <linearGradient id="linear-gradient-19" x1="342.7" y1="381.26" x2="339.74" y2="418.99" gradientTransform="translate(626.7) rotate(-180) scale(1 -1)" xlink:href="#linear-gradient-8"/>
    <linearGradient id="linear-gradient-20" x1="275.6" y1="319.62" x2="275.6" y2="168.52" gradientUnits="userSpaceOnUse">
      <stop offset="0" stop-color="#00cfff"/>
      <stop offset=".1" stop-color="#06bbe7" stop-opacity=".88"/>
      <stop offset=".44" stop-color="#1b7d9c" stop-opacity=".51"/>
      <stop offset=".71" stop-color="#2b4f65" stop-opacity=".23"/>
      <stop offset=".9" stop-color="#353243" stop-opacity=".06"/>
      <stop offset="1" stop-color="#392836" stop-opacity="0"/>
    </linearGradient>
    <linearGradient id="linear-gradient-21" x1="222.63" y1="335.27" x2="222.63" y2="168.25" xlink:href="#linear-gradient-20"/>
    <linearGradient id="linear-gradient-22" x1="143.36" y1="332.35" x2="170.07" y2="234.56" gradientTransform="translate(17.99 -20.54)" gradientUnits="userSpaceOnUse">
      <stop offset="0" stop-color="#000"/>
      <stop offset=".08" stop-color="#000707"/>
      <stop offset=".21" stop-color="#031a1d"/>
      <stop offset=".36" stop-color="#063a41"/>
      <stop offset=".53" stop-color="#0b6672"/>
      <stop offset=".73" stop-color="#129fb2"/>
      <stop offset=".94" stop-color="#19e4fd"/>
      <stop offset=".94" stop-color="#1ae5ff"/>
    </linearGradient>
    <linearGradient id="linear-gradient-23" x1="156.28" y1="278.18" x2="164.69" y2="247.37" gradientTransform="translate(-65.55 56.92) rotate(-21.4)" xlink:href="#linear-gradient-22"/>
    <linearGradient id="linear-gradient-24" x1="177.28" y1="211.73" x2="193.24" y2="153.3" gradientTransform="translate(21.75 70.51)" xlink:href="#linear-gradient-22"/>
    <linearGradient id="linear-gradient-25" x1="185" y1="179.36" x2="190.03" y2="160.96" gradientTransform="translate(91.92 15.34) rotate(20.3)" xlink:href="#linear-gradient-22"/>
    <linearGradient id="linear-gradient-26" x1="59" y1="594.4" x2="63.79" y2="682.32" gradientTransform="translate(-165.64 -241.12) rotate(125.13) scale(1 -1)" gradientUnits="userSpaceOnUse">
      <stop offset="0" stop-color="#0cf"/>
      <stop offset="1" stop-color="#6b40ea"/>
    </linearGradient>
    <linearGradient id="linear-gradient-27" x1="91.11" y1="620.84" x2="-13.51" y2="613.63" gradientTransform="translate(364.76 -456.57) rotate(180) scale(1 -1)" xlink:href="#linear-gradient-2"/>
    <linearGradient id="linear-gradient-28" x1="-202.62" y1="-59.06" x2="-169.26" y2="109.1" gradientTransform="translate(188.68 22.33) rotate(-166.37) scale(1 -1)" gradientUnits="userSpaceOnUse">
      <stop offset="0" stop-color="#282a57" stop-opacity="0"/>
      <stop offset=".38" stop-color="#787995" stop-opacity=".37"/>
      <stop offset="1" stop-color="#fff"/>
    </linearGradient>
    <linearGradient id="linear-gradient-29" x1="277.21" y1="182.23" x2="270.34" y2="228.24" gradientUnits="userSpaceOnUse">
      <stop offset="0" stop-color="#bdf7a3"/>
      <stop offset="1" stop-color="#009ee0"/>
    </linearGradient>
    <linearGradient id="linear-gradient-30" x1="268.59" y1="-10.06" x2="290.3" y2="40.59" gradientTransform="translate(-61.53 153.3)" gradientUnits="userSpaceOnUse">
      <stop offset="0" stop-color="#fbb03b"/>
      <stop offset=".7" stop-color="#fb8e31"/>
    </linearGradient>
    <linearGradient id="linear-gradient-31" x1="271.04" y1="-.04" x2="292.04" y2="31.46" gradientTransform="translate(-49.52 243) rotate(-18.82)" gradientUnits="userSpaceOnUse">
      <stop offset="0" stop-color="#fbc93b"/>
      <stop offset="1" stop-color="#fb8e31"/>
    </linearGradient>
    <linearGradient id="linear-gradient-32" x1="272.58" y1="-5.32" x2="275.47" y2="11.52" gradientTransform="translate(-61.89 153.98)" xlink:href="#linear-gradient-31"/>
    <linearGradient id="linear-gradient-33" x1="200.4" y1="159.02" x2="202.33" y2="200.33" gradientTransform="translate(189.56 -75.82) rotate(49.31)" xlink:href="#linear-gradient-8"/>
    <linearGradient id="linear-gradient-34" x1="190.94" y1="182.31" x2="191.26" y2="205.87" gradientTransform="translate(189.56 -75.82) rotate(49.31)" xlink:href="#linear-gradient-8"/>
    <linearGradient id="linear-gradient-35" x1="183.19" y1="182.93" x2="204.71" y2="182.93" gradientTransform="translate(189.56 -75.82) rotate(49.31)" xlink:href="#linear-gradient-8"/>
    <linearGradient id="linear-gradient-36" x1="249.3" y1="134.35" x2="249.94" y2="147.92" gradientTransform="translate(121.8 -113.65) rotate(33.73)" xlink:href="#linear-gradient-8"/>
    <linearGradient id="linear-gradient-37" x1="246.19" y1="142" x2="246.3" y2="149.75" gradientTransform="translate(121.8 -113.65) rotate(33.73)" xlink:href="#linear-gradient-8"/>
    <linearGradient id="linear-gradient-38" x1="243.65" y1="142.2" x2="250.72" y2="142.2" gradientTransform="translate(121.8 -113.65) rotate(33.73)" xlink:href="#linear-gradient-8"/>
    <linearGradient id="linear-gradient-39" x1="263.18" y1="326.41" x2="263.82" y2="339.99" gradientTransform="translate(-129.15 1.91) rotate(-6.32)" xlink:href="#linear-gradient-8"/>
    <linearGradient id="linear-gradient-40" x1="260.08" y1="334.07" x2="260.18" y2="341.81" gradientTransform="translate(-129.15 1.91) rotate(-6.32)" xlink:href="#linear-gradient-8"/>
    <linearGradient id="linear-gradient-41" x1="257.53" y1="334.27" x2="264.6" y2="334.27" gradientTransform="translate(-129.15 1.91) rotate(-6.32)" xlink:href="#linear-gradient-8"/>
    <linearGradient id="linear-gradient-42" x1="432.08" y1="244.11" x2="433.04" y2="264.65" gradientTransform="translate(-129.15 1.91) rotate(-6.32)" xlink:href="#linear-gradient-8"/>
    <linearGradient id="linear-gradient-43" x1="427.38" y1="255.69" x2="427.54" y2="267.41" gradientTransform="translate(-129.15 1.91) rotate(-6.32)" xlink:href="#linear-gradient-8"/>
    <linearGradient id="linear-gradient-44" x1="423.52" y1="256" x2="434.22" y2="256" gradientTransform="translate(-129.15 1.91) rotate(-6.32)" xlink:href="#linear-gradient-8"/>
    <linearGradient id="linear-gradient-45" x1="234.18" y1="75.8" x2="235.07" y2="109.06" xlink:href="#linear-gradient-8"/>
    <linearGradient id="linear-gradient-46" x1="206.29" y1="123.38" x2="272.27" y2="123.38" xlink:href="#linear-gradient-8"/>
    <linearGradient id="linear-gradient-47" x1="234.65" y1="97.5" x2="238.25" y2="130.76" xlink:href="#linear-gradient-8"/>
    <linearGradient id="linear-gradient-48" x1="265.56" y1="111.28" x2="264.97" y2="90.6" gradientUnits="userSpaceOnUse">
      <stop offset="0" stop-color="#6b40ea"/>
      <stop offset=".46" stop-color="#4689f3"/>
      <stop offset="1" stop-color="#1ae5ff"/>
    </linearGradient>
    <linearGradient id="linear-gradient-49" x1="269" y1="115.44" x2="261.8" y2="73.2" xlink:href="#linear-gradient-2"/>
    <linearGradient id="linear-gradient-50" x1="262.08" y1="106.23" x2="288.75" y2="107.72" xlink:href="#linear-gradient-48"/>
    <linearGradient id="linear-gradient-51" x1="282.9" y1="73.89" x2="283.57" y2="82.18" gradientTransform="matrix(1,0,0,1,0,0)" xlink:href="#linear-gradient-26"/>
    <linearGradient id="linear-gradient-52" x1="285.76" y1="55.07" x2="283.96" y2="68.96" gradientTransform="matrix(1,0,0,1,0,0)" xlink:href="#linear-gradient-28"/>
  </defs>
  <g class="cls-78">
    <g id="OBJECTS">
      <g>
        <g>
          <g class="cls-4">
            <path class="cls-70" d="M158.04,215.18c1.81,0,3.28,1.47,3.28,3.28s-1.47,3.28-3.28,3.28-3.28-1.47-3.28-3.28,1.47-3.28,3.28-3.28Z"/>
            <circle class="cls-70" cx="333.3" cy="267.01" r="3.96"/>
            <path class="cls-70" d="M390.2,350.03c.74,0,1.35.6,1.35,1.35s-.6,1.35-1.35,1.35-1.35-.6-1.35-1.35.6-1.35,1.35-1.35Z"/>
            <path class="cls-70" d="M316.85,321.82c.74,0,1.35.6,1.35,1.35s-.6,1.35-1.35,1.35-1.35-.6-1.35-1.35.6-1.35,1.35-1.35Z"/>
            <path class="cls-70" d="M221.82,218.24c.74,0,1.35.6,1.35,1.35s-.6,1.35-1.35,1.35-1.35-.6-1.35-1.35.6-1.35,1.35-1.35Z"/>
            <path class="cls-70" d="M391.96,223.83c.74,0,1.35.6,1.35,1.35s-.6,1.35-1.35,1.35-1.35-.6-1.35-1.35.6-1.35,1.35-1.35Z"/>
            <path class="cls-70" d="M346.54,131.63c.74,0,1.35.6,1.35,1.35s-.6,1.35-1.35,1.35-1.35-.6-1.35-1.35.6-1.35,1.35-1.35Z"/>
            <circle class="cls-70" cx="249.89" cy="134.6" r="1.35"/>
            <path class="cls-70" d="M195.46,264.04c1.81,0,3.28,1.47,3.28,3.28s-1.47,3.28-3.28,3.28-3.28-1.47-3.28-3.28,1.47-3.28,3.28-3.28Z"/>
            <path class="cls-70" d="M114.92,263.77c.61,0,1.11.5,1.11,1.11s-.5,1.11-1.11,1.11-1.11-.5-1.11-1.11.5-1.11,1.11-1.11Z"/>
            <path class="cls-70" d="M366.96,304.98c.61,0,1.11.5,1.11,1.11s-.5,1.11-1.11,1.11-1.11-.5-1.11-1.11.5-1.11,1.11-1.11Z"/>
            <path class="cls-70" d="M322.04,310.54c.61,0,1.11.5,1.11,1.11s-.5,1.11-1.11,1.11-1.11-.5-1.11-1.11.5-1.11,1.11-1.11Z"/>
            <path class="cls-70" d="M289.75,158.73c.61,0,1.11.5,1.11,1.11s-.5,1.11-1.11,1.11-1.11-.5-1.11-1.11.5-1.11,1.11-1.11Z"/>
            <path class="cls-70" d="M186.19,98.85c.61,0,1.11.5,1.11,1.11s-.5,1.11-1.11,1.11-1.11-.5-1.11-1.11.5-1.11,1.11-1.11Z"/>
          </g>
          <g class="cls-4">
            <path class="cls-70" d="M345.13,94.89c-.61,0-1.11-.5-1.11-1.11s.5-1.11,1.11-1.11,1.11.5,1.11,1.11-.5,1.11-1.11,1.11Z"/>
            <circle class="cls-70" cx="265.09" cy="85.1" r="1.35"/>
            <path class="cls-70" d="M119.59,99.57c-.74,0-1.35-.6-1.35-1.35s.6-1.35,1.35-1.35,1.35.6,1.35,1.35-.6,1.35-1.35,1.35Z"/>
            <path class="cls-70" d="M192.94,127.78c-.74,0-1.35-.6-1.35-1.35s.6-1.35,1.35-1.35,1.35.6,1.35,1.35-.6,1.35-1.35,1.35Z"/>
            <path class="cls-70" d="M287.96,231.36c-.74,0-1.35-.6-1.35-1.35s.6-1.35,1.35-1.35,1.35.6,1.35,1.35-.6,1.35-1.35,1.35Z"/>
            <path class="cls-70" d="M117.82,225.78c-.74,0-1.35-.6-1.35-1.35s.6-1.35,1.35-1.35,1.35.6,1.35,1.35-.6,1.35-1.35,1.35Z"/>
            <path class="cls-70" d="M163.25,317.97c-.74,0-1.35-.6-1.35-1.35s.6-1.35,1.35-1.35,1.35.6,1.35,1.35-.6,1.35-1.35,1.35Z"/>
            <path class="cls-70" d="M259.89,316.35c-.74,0-1.35-.6-1.35-1.35s.6-1.35,1.35-1.35,1.35.6,1.35,1.35-.6,1.35-1.35,1.35Z"/>
            <path class="cls-70" d="M329.54,115.3c-.61,0-1.11-.5-1.11-1.11s.5-1.11,1.11-1.11,1.11.5,1.11,1.11-.5,1.11-1.11,1.11Z"/>
            <path class="cls-70" d="M394.86,185.83c-.61,0-1.11-.5-1.11-1.11s.5-1.11,1.11-1.11,1.11.5,1.11,1.11-.5,1.11-1.11,1.11Z"/>
            <path class="cls-70" d="M142.83,144.63c-.61,0-1.11-.5-1.11-1.11s.5-1.11,1.11-1.11,1.11.5,1.11,1.11-.5,1.11-1.11,1.11Z"/>
            <path class="cls-70" d="M187.74,139.06c-.61,0-1.11-.5-1.11-1.11s.5-1.11,1.11-1.11,1.11.5,1.11,1.11-.5,1.11-1.11,1.11Z"/>
            <path class="cls-70" d="M220.04,290.87c-.61,0-1.11-.5-1.11-1.11s.5-1.11,1.11-1.11,1.11.5,1.11,1.11-.5,1.11-1.11,1.11Z"/>
            <path class="cls-70" d="M323.6,350.76c-.61,0-1.11-.5-1.11-1.11s.5-1.11,1.11-1.11,1.11.5,1.11,1.11-.5,1.11-1.11,1.11Z"/>
          </g>
        </g>
        <g>
          <g>
            <circle class="cls-7" cx="297.73" cy="253.45" r="11.51" transform="translate(-92.01 284.76) rotate(-45)"/>
            <g class="cls-4">
              <path class="cls-70" d="M308.12,255.43c3.91,2.06,7.73,4.28,11.39,6.78.91.63,1.8,1.3,2.66,2,.86.71,1.7,1.45,2.4,2.38.17.24.33.49.44.8.11.29.16.75-.11,1.09-.26.32-.62.44-.91.5-.31.07-.6.08-.89.08-1.16,0-2.26-.22-3.36-.45-4.35-1-8.49-2.61-12.6-4.25-4.1-1.68-8.13-3.51-12.1-5.45-3.96-1.97-7.87-4.05-11.7-6.28-3.81-2.25-7.61-4.55-11.07-7.37-.86-.71-1.71-1.45-2.45-2.32-.36-.45-.74-.9-.91-1.56-.08-.33.01-.83.34-1.06.31-.24.63-.3.93-.34,1.19-.12,2.29.11,3.39.34,1.09.24,2.16.54,3.22.87,4.22,1.36,8.31,3.04,12.33,4.88-4.1-1.63-8.23-3.22-12.47-4.41-1.06-.3-2.12-.57-3.19-.79-1.06-.2-2.17-.39-3.18-.26-.24.04-.48.11-.61.22-.12.1-.14.23-.1.43.11.41.44.85.79,1.24.71.79,1.55,1.5,2.4,2.18,3.47,2.67,7.23,4.98,11.04,7.18,3.82,2.19,7.72,4.23,11.68,6.17,3.95,1.96,7.95,3.81,12.01,5.5,4.07,1.68,8.19,3.26,12.43,4.35,1.06.25,2.14.48,3.18.5.5.01,1.09-.06,1.28-.29.19-.18-.02-.72-.32-1.13-.61-.85-1.42-1.6-2.25-2.31-.83-.71-1.7-1.38-2.59-2.04-3.54-2.62-7.31-4.93-11.1-7.18Z"/>
            </g>
          </g>
          <g>
            <path class="cls-46" d="M357.73,243.96c-2.72,7.73-11.19,11.79-18.92,9.07-7.73-2.72-11.79-11.19-9.07-18.92,2.72-7.73,11.19-11.79,18.92-9.07,7.73,2.72,11.79,11.19,9.07,18.92Z"/>
            <path class="cls-71" d="M341.06,238.38l1.39-3.96c.29-.83,1.39-.98,1.9-.27l1.94,2.74,2.27,3.19c.43.61.13,1.46-.59,1.66l-3.76,1.07-3.23.92c-.84.24-1.6-.57-1.31-1.4l1.39-3.96Z"/>
          </g>
          <g>
            <path class="cls-6" d="M335.96,401.05l-80.22,46.62c-3.37,1.96-7.54,1.97-10.92.02l-80.79-46.64c-3.13-1.81-3.14-6.33-.01-8.15l80.7-46.9c3.07-1.79,6.87-1.79,9.95-.01l81.27,46.92c3.14,1.81,3.14,6.33.01,8.15Z"/>
            <g class="cls-78">
              <path class="cls-52" d="M317.77,350l-67.55,39.25-.02,32.71,66.09-38.41c.92-.53,1.48-1.52,1.48-2.58v-30.98Z"/>
              <path class="cls-53" d="M182.4,350v31.1c0,1.07.57,2.05,1.49,2.59l66.31,38.28.02-32.81-67.82-39.16Z"/>
              <path class="cls-60" d="M316.7,351.59l-63.59,36.95c-1.79,1.04-4,1.04-5.8,0l-64.02-36.96c-1.19-.68-1.19-2.4,0-3.08l63.16-36.7c2.06-1.2,4.6-1.2,6.66,0l63.59,36.71c1.19.68,1.19,2.4,0,3.08Z"/>
              <path class="cls-51" d="M290.83,351.98l-38.1,22.14c-1.6.93-3.58.93-5.18,0l-38.37-22.15c-1.49-.86-1.49-3.01,0-3.87l38.33-22.28c1.46-.85,3.26-.85,4.72,0l38.6,22.29c1.49.86,1.49,3.01,0,3.87Z"/>
            </g>
            <g class="cls-78">
              <path class="cls-57" d="M317.77,314.2l-67.55,39.25-.02,11.66,66.09-38.41c.92-.53,1.48-1.52,1.48-2.58v-9.93Z"/>
              <path class="cls-58" d="M182.4,314.2v10.05c0,1.07.57,2.05,1.49,2.59l66.31,38.28.02-11.76-67.82-39.16Z"/>
              <path class="cls-60" d="M316.7,315.79l-63.59,36.95c-1.79,1.04-4,1.04-5.8,0l-64.02-36.96c-1.19-.68-1.19-2.4,0-3.08l63.16-36.7c2.06-1.2,4.6-1.2,6.66,0l63.59,36.71c1.19.68,1.19,2.4,0,3.08Z"/>
              <path class="cls-56" d="M290.83,316.17l-38.1,22.14c-1.6.93-3.58.93-5.18,0l-38.37-22.15c-1.49-.86-1.49-3.01,0-3.87l38.33-22.28c1.46-.85,3.26-.85,4.72,0l38.6,22.29c1.49.86,1.49,3.01,0,3.87Z"/>
            </g>
            <g>
              <g class="cls-78">
                <polygon class="cls-54" points="198.49 393.48 189.44 388.21 189.48 403.24 198.54 408.5 198.49 393.48"/>
                <polygon class="cls-55" points="215.03 383.93 205.98 378.67 189.44 388.21 198.49 393.48 215.03 383.93"/>
                <polygon class="cls-23" points="198.49 393.48 198.54 408.5 206.3 404.02 206.28 397.91 215.06 392.84 215.03 383.93 198.49 393.48"/>
              </g>
              <g class="cls-78">
                <polygon class="cls-20" points="211.91 401.71 202.86 396.45 202.9 411.48 211.96 416.74 211.91 401.71"/>
                <polygon class="cls-21" points="228.45 392.17 219.4 386.9 202.86 396.45 211.91 401.71 228.45 392.17"/>
                <polygon class="cls-22" points="211.91 401.71 211.96 416.74 219.72 412.26 219.7 406.15 228.48 401.08 228.45 392.17 211.91 401.71"/>
              </g>
            </g>
            <g>
              <g class="cls-78">
                <polygon class="cls-30" points="307.28 393.48 316.34 388.21 316.29 403.24 307.24 408.5 307.28 393.48"/>
                <polygon class="cls-27" points="290.74 383.93 299.8 378.67 316.34 388.21 307.28 393.48 290.74 383.93"/>
                <polygon class="cls-25" points="307.28 393.48 307.24 408.5 299.48 404.02 299.49 397.91 290.72 392.84 290.74 383.93 307.28 393.48"/>
              </g>
              <g class="cls-78">
                <polygon class="cls-24" points="293.86 401.71 302.92 396.45 302.88 411.48 293.82 416.74 293.86 401.71"/>
                <polygon class="cls-29" points="277.33 392.17 286.38 386.9 302.92 396.45 293.86 401.71 277.33 392.17"/>
                <polygon class="cls-26" points="293.86 401.71 293.82 416.74 286.06 412.26 286.08 406.15 277.3 401.08 277.33 392.17 293.86 401.71"/>
              </g>
            </g>
          </g>
          <g class="cls-74">
            <g>
              <g class="cls-75">
                <path class="cls-31" d="M302.05,145.11l-52.87,30.73-.02,169.97,51.73-30.06c.72-.42,1.16-1.19,1.16-2.02v-168.62Z"/>
              </g>
              <path class="cls-28" d="M196.09,145.11v168.71c0,.83.45,1.61,1.17,2.02l51.9,29.96.02-170.05-53.09-30.65Z"/>
            </g>
          </g>
          <g>
            <g class="cls-76">
              <rect class="cls-50" x="162.19" y="226.2" width="37.98" height="26.09" rx="2.48" ry="2.48" transform="translate(-74.8 82.6) rotate(-21.4)"/>
              <path class="cls-49" d="M190.83,233.07l-22.14,8.68c-1.15.45-2.44-.12-2.89-1.26h0c-.45-1.15.12-2.44,1.26-2.89l22.14-8.68c1.15-.45,2.44.12,2.89,1.26h0c.45,1.15-.12,2.44-1.26,2.89Z"/>
            </g>
            <g class="cls-76">
              <rect class="cls-48" x="199.53" y="231.09" width="22.69" height="15.59" rx="1.48" ry="1.48" transform="translate(95.99 -58.33) rotate(20.3)"/>
              <path class="cls-47" d="M217.63,239.96l-13.32-4.93c-.69-.26-1.04-1.02-.79-1.71h0c.26-.69,1.02-1.04,1.71-.79l13.32,4.93c.69.26,1.04,1.02.79,1.71h0c-.26.69-1.02,1.04-1.71.79Z"/>
            </g>
          </g>
          <g>
            <g class="cls-4">
              <path class="cls-70" d="M222.8,280.79c.19.11.35.38.35.6l-.02,6.08c0,.22-.16.31-.35.2l-7.69-4.44c-.19-.11-.35-.38-.35-.6l.02-6.08c0-.22.16-.31.35-.2l7.69,4.44Z"/>
              <path class="cls-70" d="M228.54,293.53c.19.11.35.38.35.6l-.02,6.08c0,.22-.16.31-.35.2l-7.69-4.44c-.19-.11-.35-.38-.35-.6l.02-6.08c0-.22.16-.31.35-.2l7.69,4.44Z"/>
            </g>
            <g class="cls-4">
              <path class="cls-70" d="M181.47,280.79c.19.11.35.38.35.6l-.02,6.08c0,.22-.16.31-.35.2l-7.69-4.44c-.19-.11-.35-.38-.35-.6l.02-6.08c0-.22.16-.31.35-.2l7.69,4.44Z"/>
              <path class="cls-70" d="M187.2,293.53c.19.11.35.38.35.6l-.02,6.08c0,.22-.16.31-.35.2l-7.69-4.44c-.19-.11-.35-.38-.35-.6l.02-6.08c0-.22.16-.31.35-.2l7.69,4.44Z"/>
            </g>
            <g class="cls-4">
              <path class="cls-70" d="M306.16,280.79c-.19.11-.35.38-.35.6l.02,6.08c0,.22.16.31.35.2l7.69-4.44c.19-.11.35-.38.35-.6l-.02-6.08c0-.22-.16-.31-.35-.2l-7.69,4.44Z"/>
              <path class="cls-70" d="M300.42,293.53c-.19.11-.35.38-.35.6l.02,6.08c0,.22.16.31.35.2l7.69-4.44c.19-.11.35-.38.35-.6l-.02-6.08c0-.22-.16-.31-.35-.2l-7.69,4.44Z"/>
            </g>
            <g class="cls-3">
              <path class="cls-70" d="M231.47,206.12c.19.11.35.38.35.6l-.02,6.08c0,.22-.16.31-.35.2l-7.69-4.44c-.19-.11-.35-.38-.35-.6l.02-6.08c0-.22.16-.31.35-.2l7.69,4.44Z"/>
              <path class="cls-70" d="M237.2,218.87c.19.11.35.38.35.6l-.02,6.08c0,.22-.16.31-.35.2l-7.69-4.44c-.19-.11-.35-.38-.35-.6l.02-6.08c0-.22.16-.31.35-.2l7.69,4.44Z"/>
            </g>
          </g>
          <g>
            <g>
              <path class="cls-33" d="M271.82,155.85l14.56-20.7c1.88-2.68,5.58-3.32,8.26-1.44l43.23,30.41c2.68,1.88,3.32,5.58,1.44,8.26l-14.56,20.7c-1.88,2.68-5.58,3.32-8.26,1.44l-43.23-30.41c-2.68-1.88-3.32-5.58-1.44-8.26Z"/>
              <g>
                <rect class="cls-32" x="288.48" y="129.63" width="37.17" height="64.71" rx="5.93" ry="5.93" transform="translate(-2.1 319.91) rotate(-54.87)"/>
                <path class="cls-62" d="M291.55,139.59h31.85c.33,0,.6.27.6.6v44.16c0,.33-.27.6-.6.6h-31.85c-.33,0-.6-.27-.6-.6v-44.16c0-.33.27-.6.6-.6Z" transform="translate(617.1 4.17) rotate(125.13)"/>
                <path class="cls-64" d="M284.42,150.04l3.76-5.34c.23-.32.15-.77-.17-1h0c-.32-.23-.77-.15-1,.17l-3.76,5.34c-.23.32-.15.77.17,1h0c.32.23.77.15,1-.17Z"/>
                <path class="cls-64" d="M328.11,179.16c.87.62,2.08.41,2.7-.47.62-.87.4-2.08-.47-2.7-.87-.61-2.08-.41-2.7.47-.62.87-.4,2.08.47,2.7Z"/>
              </g>
            </g>
            <polygon class="cls-1" points="287.48 151.31 338.74 53.19 404.33 105.49 323.12 179.86 287.48 151.31"/>
          </g>
          <g>
            <path class="cls-5" d="M274.92,182.95h0s-.04,0-.06,0c-.06,0-.12-.01-.18-.02h0c-.41-.02-.82-.04-1.23-.04-11.59,0-21,9.29-21.21,20.83v.55h0c0,.06,0,.11,0,.17v.35h.01c.37,11.69,10.2,21,22.09,20.51,10.84-.44,19.71-9.19,20.3-20.02.64-11.75-8.3-21.55-19.71-22.34ZM288.39,204.9c-.39,7.7-6.74,13.92-14.45,14.17-8.29.27-15.12-6.22-15.43-14.37v-.97h0c.21-8.08,6.82-14.56,14.95-14.56.42,0,.84.02,1.25.06,7.93.66,14.1,7.49,13.69,15.68Z"/>
            <path class="cls-11" d="M274.68,186.57h0c0,1.44.98,2.69,2.38,3.04,6.75,1.68,11.69,7.94,11.32,15.29-.39,7.7-6.74,13.92-14.45,14.17-7.56.24-13.91-5.13-15.2-12.26-.27-1.47-1.57-2.53-3.07-2.53h0c-1.94,0-3.44,1.75-3.09,3.66,1.85,10.18,10.95,17.82,21.76,17.38,10.84-.44,19.71-9.19,20.3-20.02.57-10.46-6.45-19.38-16.05-21.77-1.98-.49-3.91,1-3.91,3.04Z"/>
          </g>
          <g>
            <rect class="cls-13" x="200.6" y="150.7" width="28.92" height="22.45" rx="1.7" ry="1.7" transform="translate(-40.74 78.05) rotate(-18.82)"/>
            <path class="cls-14" d="M224.21,148.07l-1.32-3.88c-.03-.1-.14-.15-.24-.12l-12.24,4.17c-.08.03-.13.1-.13.19l.07,3.11c0,.08-.05.16-.13.19l-11.8,4.02c-.99.34-1.52,1.41-1.18,2.4l6.02,17.67c.34.99,1.41,1.52,2.4,1.18l23.79-8.11c.99-.34,1.52-1.41,1.18-2.4l-6.08-17.85c-.07-.22-.19-.41-.33-.57Z"/>
            <rect class="cls-12" x="203.29" y="159.89" width="19.05" height="2.55" transform="translate(-40.62 77.28) rotate(-18.82)"/>
          </g>
          <g>
            <g class="cls-78">
              <polygon class="cls-10" points="186.74 196.6 180.34 206.26 167.42 205.66 173.81 196.01 186.74 196.6"/>
              <polygon class="cls-17" points="173.81 196.01 167.42 205.66 161.48 194.1 167.87 184.44 173.81 196.01"/>
              <polygon class="cls-19" points="186.74 196.6 173.81 196.01 167.87 184.44 180.79 185.04 186.74 196.6"/>
            </g>
            <g class="cls-78">
              <polygon class="cls-15" points="251.95 142.94 250.78 146.56 246.64 147.52 247.81 143.9 251.95 142.94"/>
              <polygon class="cls-18" points="247.81 143.9 246.64 147.52 243.73 144.38 244.9 140.76 247.81 143.9"/>
              <polygon class="cls-9" points="251.95 142.94 247.81 143.9 244.9 140.76 249.05 139.81 251.95 142.94"/>
            </g>
            <g class="cls-78">
              <polygon class="cls-16" points="170.53 303.97 171.96 307.49 169.4 310.89 167.97 307.36 170.53 303.97"/>
              <polygon class="cls-42" points="167.97 307.36 169.4 310.89 165.16 310.36 163.73 306.83 167.97 307.36"/>
              <polygon class="cls-43" points="170.53 303.97 167.97 307.36 163.73 306.83 166.28 303.44 170.53 303.97"/>
            </g>
            <g class="cls-78">
              <polygon class="cls-40" points="330.44 206.97 332.6 212.3 328.73 217.44 326.56 212.1 330.44 206.97"/>
              <polygon class="cls-41" points="326.56 212.1 328.73 217.44 322.32 216.63 320.15 211.3 326.56 212.1"/>
              <polygon class="cls-36" points="330.44 206.97 326.56 212.1 320.15 211.3 324.02 206.16 330.44 206.97"/>
            </g>
          </g>
          <g>
            <path class="cls-65" d="M252.33,243.02v1.56c0,.92-1.01,1.5-1.8,1.03l-7.38-4.28c-.37-.21-.6-.61-.6-1.04v-1.56c0-.92,1.01-1.5,1.8-1.03l7.38,4.28c.37.21.6.61.6,1.04Z"/>
            <path class="cls-65" d="M275.67,264.27v1.57c0,.92-1,1.49-1.8,1.03l-30.74-17.75c-.37-.21-.6-.61-.6-1.04v-1.57c0-.92,1-1.49,1.8-1.03l30.74,17.75c.37.21.6.61.6,1.04Z"/>
            <g class="cls-77">
              <path class="cls-65" d="M262.95,272.53v1.57c0,.92-1,1.49-1.8,1.03l-18.07-10.43c-.37-.21-.6-.61-.6-1.04v-1.57c0-.92,1-1.49,1.8-1.03l18.07,10.43c.37.21.6.61.6,1.04Z"/>
            </g>
            <path class="cls-65" d="M270.88,269.31v1.57c0,.92-1,1.49-1.8,1.03l-25.97-15c-.37-.21-.6-.61-.6-1.04v-1.57c0-.92,1-1.49,1.8-1.03l25.97,15c.37.21.6.61.6,1.04Z"/>
          </g>
          <g>
            <g>
              <g>
                <path class="cls-69" d="M208.31,105.53s-2.35-.71-3.35-1.77c-.99-1.06-2.64-3.96-3.3-5.65-.66-1.68-1.63-.92-1.73-.37-.1.55-.03,3.24.75,6.04.78,2.8,1.95,3.23,2.32,4.27.36,1.04.44,1.12.91,1.3.47.17,4-1.29,4-1.29l.4-2.52Z"/>
                <path class="cls-34" d="M256.17,110.95s-7.33-3.24-17.04-6.41c-9.15-2.98-28.57-.5-31.53-.05-.27.04-.53.13-.76.27-1.07.62-1,1.04-.2,2.79.89,1.93,22.02,2.83,25.79,3.58,3.77.76,12.27,7.2,18.18,10.56,5.91,3.36,10.98,3.2,13.41,1.23,2.44-1.98-7.84-11.97-7.84-11.97Z"/>
                <path class="cls-35" d="M272.27,121.92s-7.1,9.11-21.95,8.31c-12.11-2.45-14.75-3.96-15.7-3.99-.95-.03-19.42,3.49-27.44,1.8-2.16-1.65.29-3.95.29-3.95,0,0,23.64-6.52,28.85-6.19,5.21.33,19.37-1.91,22.68-1.32,3.3.58,13.28,5.34,13.28,5.34Z"/>
                <path class="cls-39" d="M261.31,123.15s-11.62,3.3-22.32.23c-2.2-.39-22.01,4.9-32.68,3.26.05.48.3.97.87,1.41,8.02,1.68,26.49-1.83,27.44-1.8s3.59,1.54,15.7,3.99c9.16.49,15.36-2.78,18.78-5.36-3.97-.88-7.79-1.72-7.79-1.72Z"/>
                <path class="cls-69" d="M207.18,128.04s1.79-1.37,1.49-3.16c-.3-1.79-.63-2.39-.73-2.99-.1-.6.8-2.82,1.01-5.55.21-2.72-3.08-.1-3.6,1.07-.51,1.17-.74,4.61-1.38,5.89s-1.29,3.28-.51,4.61c.79,1.33,3.72.12,3.72.12Z"/>
              </g>
              <g>
                <path class="cls-73" d="M237.93,100.91s-.96.44-2.57-1.15l-1.61-1.6s-2.18-.6-2.4-1.09c-.22-.48,2.18.37,2.18.37,0,0-3.28-1.41-2.8-1.63.48-.22,2.7.8,2.7.8,0,0-2.96-2.05-2.2-1.85.77.2,2.62,1.45,2.62,1.45,0,0-1.84-1.72-1.37-1.82.48-.1,2.5,1.68,3.25,2.36.75.68,2.75,2.94,2.18,4.17Z"/>
                <path class="cls-61" d="M261.55,98.7s-5.46,2.51-8.08,2.82c-2.62.31-12.77-1.52-15.1-3.02-1.08-.98-1.67-2.11-2.68-2.86-1-.74-.97.6-.13,1.5.84.9.1,1.74.77,2.95.67,1.21,1.86,1.33,2.64,1.67.78.34,8.06,2.71,10.81,3.52,2.74.8,10.05-.07,11.41-.58,1.36-.51,1.74-5.01.35-6Z"/>
                <path class="cls-59" d="M236.09,99.41c.05.22.11.45.25.7.67,1.21,1.86,1.33,2.64,1.67.78.34,8.06,2.71,10.81,3.52,2.74.8,10.05-.07,11.41-.58.66-.25,1.08-1.42,1.19-2.67-2.91,1.59-11.87,4.99-26.3-2.62Z"/>
              </g>
              <g>
                <path class="cls-37" d="M271.72,91.31s-2.98.34-6.31,3c-3.41,2.58-6.93,3.89-6.93,3.89,0,0-1.78,3.5,1.71,5.75,3.34,1.93,8.94-4.85,9.35-5.24.41-.38,4.05-5.33,2.18-7.41Z"/>
                <path class="cls-67" d="M258.48,98.21s-1.78,3.5,1.71,5.75c.99.57,2.17.38,3.36-.18-.06-.14-.13-.29-.25-.43-3.03-1.98-3.17-5.01-3.14-5.87-1.02.49-1.68.73-1.68.73Z"/>
              </g>
              <path class="cls-38" d="M275.99,91.45s-1.4-.76-4.27-.14c-2.87.62-5.44,6.71-8.28,10.06-2.53,2.99-9.95,5.63-13.47,6.19-.66.11-1.13.71-1.08,1.38.17,2.29,1.13,7.31,6.08,11.86,6.69,6.15,11.69,5.6,13.49,4.83,0,0,10.34-8.62,14.82-16.08,4.27-7.1,1.21-13.43.53-14.64s-7.84-3.46-7.84-3.46Z"/>
              <path class="cls-8" d="M268.47,125.63s10.34-8.62,14.82-16.08c4.27-7.1,1.21-13.43.53-14.64-.07-.13-.22-.27-.42-.42l-3.18,1.88s2.72,3.89.18,9.03c-2.42,4.9-12.58,17.88-21.73,18.27,4.81,3.05,8.34,2.58,9.8,1.96Z"/>
              <g>
                <g>
                  <path class="cls-72" d="M284.44,90.78s-.1,1.24,2.17.84c2.27-.4,3.57-3.8,6.2-6.51,2.64-2.7,1.56-4.22,1.41-5-.15-.78,1.23-3.11-.22-5.88-1.45-2.78-4.29-3.22-5-5.09-.71-1.86-4.5-.26-5.84.88-1.34,1.14-2.41,2.83-2.67,5.61-.27,2.78-3.16,5.83-1.96,9.2,1.2,3.36,5.92,5.95,5.92,5.95Z"/>
                  <path class="cls-68" d="M291.84,78.55s1.85-2.08.72-3.89c-1.13-1.82-4.58-1.57-5.71-3.15s-.51-2.63-2.31-2.09c-.31.09-.71.24-1.16.43-.08.06-.16.12-.22.18-1.34,1.14-2.41,2.83-2.67,5.61-.05.57-.22,1.14-.43,1.73,3.93,1.38,10.94,1.91,11.8,1.19Z"/>
                  <path class="cls-61" d="M275.07,83.27c-.76,3.77,1.92,4.34,1.19,7.16s-.32,3.91,1.19,4.79c1.51.88,4.71,1.1,5.22.17s.67-2.47,1.3-3.52c.63-1.05,5.75-5.39,7.4-8.54,1.65-3.15.2-7.2-1.86-8.61-7.96-5.42-13.69,4.78-14.44,8.55Z"/>
                  <path class="cls-72" d="M292.85,78.26c-.24-.25-.63-.19-.85.08-.15.18-.47.32-1.11.3-1.66-.05-2.6,1.52-2.04,2.49s.55,1.44.35,1.97c-.2.53-1.95,1.72-1.98,2.43-.02.71-2.26,3.96-.6,4.02s5.59-3.86,6.63-6.91c.79-2.29.34-3.62-.4-4.38Z"/>
                  <path class="cls-61" d="M288.54,83.25s1.83-1.48,2.62-.15c.79,1.33-2.75,4.18-3.79,3.32-1.04-.86,1.17-3.17,1.17-3.17Z"/>
                  <path class="cls-59" d="M276.26,90.43c-.72,2.83-.32,3.91,1.19,4.79,1.51.88,4.71,1.1,5.22.17.5-.93.67-2.47,1.3-3.52.24-.41,1.16-1.31,2.29-2.44-.63-.17-1.51.76-2.23,1.04-.84.33-1.53-.41-2.6-2.04-1.07-1.64-2.1-1.14-2.86-1.34-.77-.2-1.15-.57-.05-2.26,1.1-1.69.94-2.68.97-3.63s-.78-.34-.69-.73c.09-.39.66-.93,1.3-.91.63.02,1.41-1.93,3.21-3.93.96-1.06,2.61-1.69,3.96-2.06-6.77-2.35-11.51,6.3-12.2,9.71-.76,3.77,1.92,4.34,1.19,7.16Z"/>
                </g>
                <path class="cls-67" d="M283.59,94.44c-.2-.08-.43-.08-.64,0-1.04.44-4.61,1.51-6.97-2.99,0-.12-1.06-.27-1.36-.1s-.05,3.5,2.27,5c2.33,1.5,5.73.96,6.71-.2.14-.17.26-.32.36-.45.32-.44.13-1.06-.37-1.27h0Z"/>
              </g>
              <path class="cls-66" d="M205.73,124.04c-.05-1.03.37-1.57.42-3.15.05-1.54,2.46-4.28,1.82-5.68-.96.25-2.3,1.5-2.62,2.22-.51,1.17-.74,4.61-1.38,5.89s-1.29,3.28-.51,4.61c.08.13.18.23.29.31.06-.02.12-.04.18-.06,2.09-.88,1.84-3.11,1.8-4.14Z"/>
              <path class="cls-69" d="M278.78,115.57c.47-.53.92-1.07,1.37-1.62-8.81-2.91-14.1-9.71-16.28-13.1-.14.18-.28.36-.42.52-.23.27-.51.54-.82.8,4.88,7.84,11.42,11.61,16.15,13.4Z"/>
              <g>
                <path class="cls-61" d="M281.7,113s-3.4,5.94-6.45,8.58c-3.17,2.51-13.35-1.98-16.72-8.02-1.15-1.22-2.05-2.68-2.13-3.99-.08-1.31-2.33-1.26-2.9-2.11-.57-.85,2.03-.29,2.03-.29,0,0-3.07-.57-2.21-1.38s2.48.44,2.48.44c0,0-2.54-2.22-1.48-2.07,1.06.15,2.45,1.38,2.45,1.38,0,0-2.06-2.44-.78-1.57,1.28.87,2.55,1.74,3.11,3.07.55,1.32.98,2.76,1.55,3.37.57.61,5.14,6.22,11.31,6.18,1.81-1.01,5.1-7.31,5.1-7.31l4.63,3.71Z"/>
                <path class="cls-59" d="M275.25,121.58c2.75-2.37,5.78-7.43,6.35-8.41-1.72.13-3.04.25-3.04.25,0,0-2.42,3.96-4.54,5.79-2.12,1.83-11.86-2.68-14.89-7.05-2.57-3.88-2.02-3.63-2.57-3.88-.45-.21-2.27-1.32-3.13-1.05,0,.06,0,.14.07.24.57.85,2.82.8,2.9,2.11.08,1.31.98,2.76,2.13,3.99,3.37,6.04,13.55,10.53,16.72,8.02Z"/>
                <g>
                  <path class="cls-45" d="M282.56,99.25c1.36-.44,2.64.22,2.97,1.48.32,1.25.57,3.13.2,5.52-.42,2.71-1.77,5.62-2.79,7.54-.72,1.35-2.27,2.07-3.54,1.64-1.45-.49-3.25-1.39-4.33-3-.33-.49-.48-1.11-.35-1.75.63-3.33,5.7-9.73,6.65-10.73.31-.33.74-.55,1.2-.7Z"/>
                  <path class="cls-67" d="M274.67,110.28s2.61,4.81,7.96,3.99c.01.84-.91,1.82-1.16,2.17-.25.35-4.24.87-7.73-3.22-.21-.84.73-2.53.93-2.94Z"/>
                </g>
              </g>
            </g>
            <g>
              <path class="cls-63" d="M289.09,83.52l1.79,4.09s1.06,0,1.23-1.74c-.28-.56-1.68-3.75-1.68-3.75l-1.34,1.4Z"/>
              <path class="cls-70" d="M276.33,78.18c.11.47.57.76,1.04.66.65-.13,1.6-.26,2.43-.13,1.46.22,2.02.56,2.46,1.46.45.9,2.13,2.69,3.81,3.36,1.24.49,2.04.46,2.38.4.11-.02.22-.06.32-.12.42-.26,1.74-1.15,2.12-2.18.26-.72-.17-2.15-.57-3.2-.32-.84-.93-1.53-1.73-1.95-1.41-.74-3.99-1.94-7.33-2.81-3.47-.9-5.27,2.58-5.15,3.36.05.35.14.78.23,1.15Z"/>
              <path class="cls-67" d="M290.89,81.62c.26-.72-.17-2.15-.57-3.2-.19-.5-.49-.95-.86-1.32.25.55.46,1.2.28,1.79-.45,1.34-2.69,2.91-4.03,2.39-1.34-.52-2.69-3.14-5.45-4.26-1.87-.76-3.36-.29-4.13.1.05.33.13.71.21,1.06.11.47.57.76,1.04.66.65-.13,1.6-.26,2.43-.13,1.46.22,2.02.56,2.46,1.46.45.9,2.13,2.69,3.81,3.36,1.24.49,2.04.46,2.38.4.11-.02.22-.06.32-.12.42-.26,1.74-1.15,2.12-2.18Z"/>
              <path class="cls-44" d="M278.67,74.41s-1.05.52-.6,1.12c.45.6,3.29.6,5.38,2.32,2.09,1.72,3.81,2.17,4.63,1.12.82-1.05-.82-1.79-2.24-2.61-1.42-.82-4.78-2.46-7.17-1.94Z"/>
            </g>
            <path class="cls-2" d="M278.08,75.53l-1.34-16.8,17.03.6-5.68,19.64s-1.79,1.12-4.33-.97c-2.54-2.09-5.68-2.46-5.68-2.46Z"/>
          </g>
        </g>
      </g>
    </g>
  </g>
</svg>