<?xml version="1.0" encoding="UTF-8"?>
<svg id="BACKGROUND" xmlns="http://www.w3.org/2000/svg" xmlns:xlink="http://www.w3.org/1999/xlink" viewBox="0 0 750 500">
  <defs>
    <style>
      .cls-1 {
        fill: url(#_Безымянный_градиент_101-2);
      }

      .cls-1, .cls-2, .cls-3, .cls-4, .cls-5, .cls-6, .cls-7, .cls-8, .cls-9, .cls-10, .cls-11, .cls-12, .cls-13 {
        stroke-width: 0px;
      }

      .cls-2 {
        fill: url(#_Безымянный_градиент_101-3);
      }

      .cls-14 {
        clip-path: url(#clippath);
      }

      .cls-3 {
        fill: none;
      }

      .cls-4 {
        fill: url(#_Безымянный_градиент_78-2);
      }

      .cls-5 {
        fill: url(#_Безымянный_градиент_98-2);
      }

      .cls-6 {
        fill: url(#_Безымянный_градиент_98-3);
      }

      .cls-7 {
        fill: url(#_Безымянный_градиент_98);
      }

      .cls-8 {
        fill: url(#_Безымянный_градиент_74);
      }

      .cls-9 {
        fill: url(#_Безымянный_градиент_78);
      }

      .cls-10 {
        fill: url(#_Безымянный_градиент_101);
      }

      .cls-11 {
        fill: #153168;
      }

      .cls-12 {
        fill: #112656;
      }

      .cls-13 {
        fill: #fff;
      }
    </style>
    <clipPath id="clippath">
      <rect class="cls-3" width="750" height="500"/>
    </clipPath>
    <linearGradient id="_Безымянный_градиент_101" data-name="Безымянный градиент 101" x1="60.96" y1="43.11" x2="-7.13" y2="76.37" gradientUnits="userSpaceOnUse">
      <stop offset="0" stop-color="#fbc530"/>
      <stop offset=".19" stop-color="#faba2c"/>
      <stop offset="1" stop-color="#f7931e"/>
    </linearGradient>
    <linearGradient id="_Безымянный_градиент_78" data-name="Безымянный градиент 78" x1="707.73" y1="341.56" x2="851.34" y2="341.56" gradientTransform="translate(132.48 -76.34) rotate(14.34) scale(.72 .83) skewX(28.85)" gradientUnits="userSpaceOnUse">
      <stop offset="0" stop-color="#4da8f4"/>
      <stop offset="1" stop-color="#3887d6"/>
    </linearGradient>
    <linearGradient id="_Безымянный_градиент_78-2" data-name="Безымянный градиент 78" x1="82.41" y1="257.24" x2="-183.15" y2="415.74" gradientTransform="matrix(1,0,0,1,0,0)" xlink:href="#_Безымянный_градиент_78"/>
    <linearGradient id="_Безымянный_градиент_98" data-name="Безымянный градиент 98" x1="485.96" y1="529.58" x2="905.75" y2="529.58" gradientUnits="userSpaceOnUse">
      <stop offset="0" stop-color="#7c4df4"/>
      <stop offset=".52" stop-color="#6239c3"/>
      <stop offset="1" stop-color="#4d299c"/>
    </linearGradient>
    <linearGradient id="_Безымянный_градиент_98-2" data-name="Безымянный градиент 98" x1="443.32" y1="424.42" x2="589.43" y2="424.42" xlink:href="#_Безымянный_градиент_98"/>
    <linearGradient id="_Безымянный_градиент_101-2" data-name="Безымянный градиент 101" x1="327.21" y1="391.62" x2="154.65" y2="491.4" xlink:href="#_Безымянный_градиент_101"/>
    <linearGradient id="_Безымянный_градиент_101-3" data-name="Безымянный градиент 101" x1="400.29" y1="91.63" x2="576.38" y2="-19.5" xlink:href="#_Безымянный_градиент_101"/>
    <linearGradient id="_Безымянный_градиент_74" data-name="Безымянный градиент 74" x1="581.7" y1="154.82" x2="915.08" y2="154.82" gradientUnits="userSpaceOnUse">
      <stop offset="0" stop-color="#c33071"/>
      <stop offset=".09" stop-color="#bf2e75"/>
      <stop offset="1" stop-color="#a3239d"/>
    </linearGradient>
    <linearGradient id="_Безымянный_градиент_98-3" data-name="Безымянный градиент 98" x1="16.01" y1="-35.46" x2="435.79" y2="-35.46" xlink:href="#_Безымянный_градиент_98"/>
  </defs>
  <rect class="cls-12" width="750" height="500"/>
  <g class="cls-14">
    <g>
      <path class="cls-11" d="M69.07,489.68c-10.84,0-21.4-5.62-27.2-15.67-4.19-7.25-5.3-15.7-3.13-23.78,2.17-8.09,7.35-14.85,14.6-19.03l418.3-241.51c7.25-4.18,15.7-5.3,23.78-3.13,8.09,2.17,14.85,7.35,19.03,14.6,4.19,7.25,5.3,15.7,3.13,23.78-2.17,8.09-7.35,14.85-14.6,19.03L84.68,485.49c-4.92,2.84-10.3,4.19-15.62,4.19ZM487.26,186.48c-5.26,0-10.45,1.38-15.12,4.08L53.84,432.06c-7.02,4.05-12.04,10.6-14.14,18.42-2.1,7.83-1.02,16.01,3.03,23.02,8.37,14.49,26.96,19.47,41.45,11.11l418.3-241.51c7.02-4.05,12.04-10.6,14.14-18.42,2.1-7.83,1.02-16.01-3.03-23.02-4.05-7.02-10.6-12.04-18.42-14.14-2.61-.7-5.27-1.05-7.9-1.05Z"/>
      <path class="cls-11" d="M308.54,230.26c-2.72,0-5.46-.36-8.16-1.08-8.09-2.17-14.85-7.35-19.03-14.6-4.19-7.25-5.3-15.7-3.13-23.78s7.35-14.85,14.6-19.03l418.3-241.5c7.25-4.19,15.7-5.3,23.78-3.13,8.09,2.17,14.85,7.35,19.03,14.6,4.19,7.25,5.3,15.7,3.13,23.78-2.17,8.09-7.35,14.85-14.6,19.03l-418.3,241.5c-4.83,2.79-10.19,4.21-15.62,4.21ZM726.74-72.95c-5.26,0-10.45,1.38-15.12,4.08l-418.3,241.5c-7.02,4.05-12.04,10.6-14.14,18.42-2.1,7.83-1.02,16.01,3.03,23.02,4.05,7.02,10.6,12.04,18.42,14.14,7.83,2.1,16.01,1.02,23.02-3.03L741.96-16.32l.25.43-.25-.43c7.02-4.05,12.04-10.6,14.14-18.42,2.1-7.83,1.02-16.01-3.03-23.02-4.05-7.02-10.6-12.04-18.42-14.14-2.61-.7-5.27-1.05-7.9-1.05Z"/>
      <path class="cls-11" d="M104.28,125.77c-10.84,0-21.4-5.62-27.2-15.66-8.64-14.97-3.49-34.17,11.47-42.82l418.3-241.5c14.97-8.64,34.17-3.5,42.82,11.47,8.64,14.97,3.5,34.17-11.47,42.82L119.9,121.57c-4.92,2.84-10.31,4.19-15.62,4.19ZM522.48-177.41c-5.14,0-10.35,1.31-15.12,4.06L89.06,68.15c-14.49,8.37-19.47,26.96-11.11,41.45,8.37,14.49,26.96,19.47,41.45,11.11l418.3-241.5.25.43-.25-.43c14.49-8.37,19.47-26.96,11.11-41.45-5.61-9.72-15.84-15.17-26.33-15.17Z"/>
      <path class="cls-11" d="M200.51,621.91c-2.72,0-5.46-.36-8.16-1.08-8.09-2.17-14.85-7.35-19.03-14.6-4.19-7.25-5.3-15.7-3.13-23.78,2.17-8.09,7.35-14.85,14.6-19.03l418.3-241.5c7.25-4.19,15.7-5.3,23.78-3.13,8.09,2.17,14.85,7.35,19.03,14.6,4.19,7.25,5.3,15.7,3.13,23.78-2.17,8.09-7.35,14.85-14.6,19.03l-418.3,241.5c-4.83,2.79-10.19,4.21-15.62,4.21ZM618.71,318.69c-5.26,0-10.45,1.38-15.12,4.08l-418.3,241.5c-7.02,4.05-12.04,10.6-14.14,18.42-2.1,7.83-1.02,16,3.03,23.02,4.05,7.02,10.6,12.04,18.43,14.14,7.83,2.1,16,1.02,23.02-3.03l418.3-241.5c7.02-4.05,12.04-10.6,14.14-18.42,2.1-7.83,1.02-16-3.03-23.02-4.05-7.02-10.6-12.04-18.43-14.14-2.61-.7-5.27-1.05-7.9-1.05Z"/>
    </g>
    <g>
      <path class="cls-11" d="M155.01,426.32h0c-5.92-10.25-2.41-23.37,7.85-29.29l122.7-70.84c11.43-6.6,15.34-21.21,8.74-32.63h0c-6.6-11.43-21.21-15.34-32.63-8.74l-90.45,52.22c-8.66,5-19.72,2.03-24.72-6.62h0c-5-8.66-2.03-19.72,6.62-24.72l7.27-4.2c11.43-6.6,15.34-21.21,8.74-32.63h0c-6.6-11.43-21.21-15.34-32.63-8.74L-23.92,352.73c-11.43,6.6-15.34,21.21-8.74,32.63h0c6.6,11.43,21.21,15.34,32.63,8.74l98.74-57.01c8.66-5,19.72-2.03,24.72,6.62h0c5,8.66,2.03,19.72-6.62,24.72l-55.29,31.92c-11.43,6.6-15.34,21.21-8.74,32.63h0c6.6,11.43,21.21,15.34,32.63,8.74l17.24-9.96c10.25-5.92,23.37-2.41,29.29,7.85h0c5.92,10.25,2.41,23.37-7.85,29.29l-74.8,43.19c-11.43,6.6-15.34,21.21-8.74,32.63h0c6.6,11.43,21.21,15.34,32.63,8.74l209.81-121.13c11.43-6.6,15.34-21.21,8.74-32.63h0c-6.6-11.43-21.21-15.34-32.63-8.74l-74.8,43.19c-10.25,5.92-23.37,2.41-29.29-7.85Z"/>
      <path class="cls-11" d="M671.54,121.1h0c-5.92-10.25-2.41-23.37,7.85-29.29l122.7-70.84c11.43-6.6,15.34-21.21,8.74-32.63h0c-6.6-11.43-21.21-15.34-32.63-8.74l-90.45,52.22c-8.66,5-19.72,2.03-24.72-6.62h0c-5-8.66-2.03-19.72,6.62-24.72l7.27-4.2c11.43-6.6,15.34-21.21,8.74-32.63h0c-6.6-11.43-21.21-15.34-32.63-8.74l-160.43,92.62c-11.43,6.6-15.34,21.21-8.74,32.63h0c6.6,11.43,21.21,15.34,32.63,8.74l98.74-57.01c8.66-5,19.72-2.03,24.72,6.62h0c5,8.66,2.03,19.72-6.62,24.72l-55.29,31.92c-11.43,6.6-15.34,21.21-8.74,32.63h0c6.6,11.43,21.21,15.34,32.63,8.74l17.24-9.96c10.25-5.92,23.37-2.41,29.29,7.85h0c5.92,10.25,2.41,23.37-7.85,29.29l-74.8,43.19c-11.43,6.6-15.34,21.21-8.74,32.63h0c6.6,11.43,21.21,15.34,32.63,8.74l209.81-121.13c11.43-6.6,15.34-21.21,8.74-32.63h0c-6.6-11.43-21.21-15.34-32.63-8.74l-74.8,43.19c-10.25,5.92-23.37,2.41-29.29-7.85Z"/>
      <path class="cls-11" d="M547.64,482.89h0c-5.92-10.25-2.41-23.37,7.85-29.29l122.7-70.84c11.43-6.6,15.34-21.21,8.74-32.63h0c-6.6-11.43-21.21-15.34-32.63-8.74l-90.45,52.22c-8.66,5-19.72,2.03-24.72-6.62h0c-5-8.66-2.03-19.72,6.62-24.72l7.27-4.2c11.43-6.6,15.34-21.21,8.74-32.63h0c-6.6-11.43-21.21-15.34-32.63-8.74l-160.43,92.62c-11.43,6.6-15.34,21.21-8.74,32.63h0c6.6,11.43,21.21,15.34,32.63,8.74l98.74-57.01c8.66-5,19.72-2.03,24.72,6.62h0c5,8.66,2.03,19.72-6.62,24.72l-55.29,31.92c-11.43,6.6-15.34,21.21-8.74,32.63h0c6.6,11.43,21.21,15.34,32.63,8.74l17.24-9.96c10.25-5.92,23.37-2.41,29.29,7.85h0c5.92,10.25,2.41,23.37-7.85,29.29l-74.8,43.19c-11.43,6.6-15.34,21.21-8.74,32.63h0c6.6,11.43,21.21,15.34,32.63,8.74l209.81-121.13c11.43-6.6,15.34-21.21,8.74-32.63h0c-6.6-11.43-21.21-15.34-32.63-8.74l-74.8,43.19c-10.25,5.92-23.37,2.41-29.29-7.85Z"/>
      <path class="cls-11" d="M225.58,55.49h0c-5.92-10.25-2.41-23.37,7.85-29.29l122.7-70.84c11.43-6.6,15.34-21.21,8.74-32.63h0c-6.6-11.43-21.21-15.34-32.63-8.74l-90.45,52.22c-8.66,5-19.72,2.03-24.72-6.62h0c-5-8.66-2.03-19.72,6.62-24.72l7.27-4.2c11.43-6.6,15.34-21.21,8.74-32.63h0c-6.6-11.43-21.21-15.34-32.63-8.74L46.65-18.09c-11.43,6.6-15.34,21.21-8.74,32.63h0c6.6,11.43,21.21,15.34,32.63,8.74l98.74-57.01c8.66-5,19.72-2.03,24.72,6.62h0c5,8.66,2.03,19.72-6.62,24.72l-55.29,31.92c-11.43,6.6-15.34,21.21-8.74,32.63h0c6.6,11.43,21.21,15.34,32.63,8.74l17.24-9.96c10.25-5.92,23.37-2.41,29.29,7.85h0c5.92,10.25,2.41,23.37-7.85,29.29l-74.8,43.19c-11.43,6.6-15.34,21.21-8.74,32.63h0c6.6,11.43,21.21,15.34,32.63,8.74l209.81-121.13c11.43-6.6,15.34-21.21,8.74-32.63h0c-6.6-11.43-21.21-15.34-32.63-8.74l-74.8,43.19c-10.25,5.92-23.37,2.41-29.29-7.85Z"/>
    </g>
    <path class="cls-10" d="M60.61,39.47c-6.6-11.43-21.21-15.34-32.63-8.74l-74.8,43.19c-10.05,5.8-22.83,2.53-28.91-7.26-7.69,4.5-15.55,8.69-23.59,12.52.04.07.09.14.14.21h0c5.92,10.25,2.41,23.37-7.85,29.29l-74.8,43.19c-11.43,6.6-15.34,21.21-8.74,32.63h0c6.6,11.43,21.21,15.34,32.63,8.74L51.86,72.1c11.43-6.6,15.34-21.21,8.74-32.63h0Z"/>
    <g>
      <path class="cls-9" d="M765.55,378.08l-40,23.1c-11.72,6.76-26.7,2.75-33.46-8.97h0c-6.76-11.72-2.75-26.7,8.97-33.46l40-23.1c11.72-6.76,26.7-2.75,33.46,8.97h0c6.76,11.72,2.75,26.7-8.97,33.46Z"/>
      <g>
        <path class="cls-4" d="M30.34,341.16h0c-5.92-10.25-2.41-23.37,7.85-29.29l35.1-20.27c11.43-6.6,15.34-21.21,8.74-32.63h0c-6.6-11.43-21.21-15.34-32.63-8.74l-57.47,33.18c-9.96,5.75-22.7,2.34-28.45-7.62h0c-5.75-9.96-2.34-22.7,7.62-28.45l88.68-51.2c11.43-6.6,15.34-21.21,8.74-32.63h0c-6.6-11.43-21.21-15.34-32.63-8.74l-265.24,153.14c-11.43,6.6-15.34,21.21-8.74,32.63h0c6.6,11.43,21.21,15.34,32.63,8.74l77.45-44.72c9.96-5.75,22.7-2.34,28.45,7.62h0c5.75,9.96,2.34,22.7-7.62,28.45l-11.41,6.59c-11.43,6.6-15.34,21.21-8.74,32.63h0c6.6,11.43,21.21,15.34,32.63,8.74l55.79-32.21c10.25-5.92,23.37-2.41,29.29,7.85h0c5.92,10.25,2.41,23.37-7.85,29.29l-105.13,60.69c-11.43,6.6-15.34,21.21-8.74,32.63h0c6.6,11.43,21.21,15.34,32.63,8.74l265.24-153.14c11.43-6.6,15.34-21.21,8.74-32.63h0c-6.6-11.43-21.21-15.34-32.63-8.74l-83.02,47.93c-10.25,5.92-23.37,2.41-29.29-7.85Z"/>
        <path class="cls-7" d="M757.6,545.57h0c-5.92-10.25-2.41-23.37,7.85-29.29l35.1-20.27c11.43-6.6,15.34-21.21,8.74-32.63h0c-6.6-11.43-21.21-15.34-32.63-8.74l-57.47,33.18c-9.96,5.75-22.7,2.34-28.45-7.62h0c-5.75-9.96-2.34-22.7,7.62-28.45l88.68-51.2c11.43-6.6,15.34-21.21,8.74-32.63h0c-6.6-11.43-21.21-15.34-32.63-8.74l-265.24,153.14c-11.43,6.6-15.34,21.21-8.74,32.63h0c6.6,11.43,21.21,15.34,32.63,8.74l77.45-44.72c9.96-5.75,22.7-2.34,28.45,7.62h0c5.75,9.96,2.34,22.7-7.62,28.45l-11.41,6.59c-11.43,6.6-15.34,21.21-8.74,32.63h0c6.6,11.43,21.21,15.34,32.63,8.74l55.79-32.21c10.25-5.92,23.37-2.41,29.29,7.85h0c5.92,10.25,2.41,23.37-7.85,29.29l-105.13,60.69c-11.43,6.6-15.34,21.21-8.74,32.63h0c6.6,11.43,21.21,15.34,32.63,8.74l265.24-153.14c11.43-6.6,15.34-21.21,8.74-32.63h0c-6.6-11.43-21.21-15.34-32.63-8.74l-83.02,47.93c-10.25,5.92-23.37,2.41-29.29-7.85Z"/>
        <path class="cls-5" d="M577.18,417.6l-97.1,56.06c-11.72,6.76-26.7,2.75-33.46-8.97h0c-6.76-11.72-2.75-26.7,8.97-33.46l97.1-56.06c11.72-6.76,26.7-2.75,33.46,8.97h0c6.76,11.72,2.75,26.7-8.97,33.46Z"/>
        <path class="cls-1" d="M309.63,352.12h0c-6.6-11.43-21.21-15.34-32.63-8.74l-148.27,85.6c-11.43,6.6-15.34,21.21-8.74,32.63h0c6.6,11.43,21.21,15.34,32.63,8.74l3.71-2.14c9.18-5.3,20.92-2.15,26.22,7.03h0c5.3,9.18,2.15,20.92-7.03,26.22l-128.11,73.97c-11.43,6.6-15.34,21.21-8.74,32.63h0c6.6,11.43,21.21,15.34,32.63,8.74l239.07-138.03c11.43-6.6,15.34-21.21,8.74-32.63h0c-6.6-11.43-21.21-15.34-32.63-8.74l-4.42,2.55c-9.18,5.3-20.92,2.15-26.22-7.03h0c-5.3-9.18-2.15-20.92,7.03-26.22l38.02-21.95c11.43-6.6,15.34-21.21,8.74-32.63Z"/>
        <path class="cls-2" d="M418.94,124.76h0c6.6,11.43,21.21,15.34,32.63,8.74l148.27-85.6c11.43-6.6,15.34-21.21,8.74-32.63h0c-6.6-11.43-21.21-15.34-32.63-8.74l-3.71,2.14c-9.18,5.3-20.92,2.15-26.22-7.03h0c-5.3-9.18-2.15-20.92,7.03-26.22l128.11-73.97c11.43-6.6,15.34-21.21,8.74-32.63h0c-6.6-11.43-21.21-15.34-32.63-8.74L418.2-1.89c-11.43,6.6-15.34,21.21-8.74,32.63h0c6.6,11.43,21.21,15.34,32.63,8.74l4.42-2.55c9.18-5.3,20.92-2.15,26.22,7.03h0c5.3,9.18,2.15,20.92-7.03,26.22l-38.02,21.95c-11.43,6.6-15.34,21.21-8.74,32.63Z"/>
        <path class="cls-8" d="M772.58,174.34h0c-5.92-10.25-2.41-23.37,7.85-29.29l122.7-70.84c11.43-6.6,15.34-21.21,8.74-32.63h0c-6.6-11.43-21.21-15.34-32.63-8.74l-90.45,52.22c-8.66,5-19.72,2.03-24.72-6.62h0c-5-8.66-2.03-19.72,6.62-24.72l7.27-4.2c11.43-6.6,15.34-21.21,8.74-32.63h0c-6.6-11.43-21.21-15.34-32.63-8.74l-160.43,92.62c-11.43,6.6-15.34,21.21-8.74,32.63h0c6.6,11.43,21.21,15.34,32.63,8.74l98.74-57.01c8.66-5,19.72-2.03,24.72,6.62h0c5,8.66,2.03,19.72-6.62,24.72l-55.29,31.92c-11.43,6.6-15.34,21.21-8.74,32.63h0c6.6,11.43,21.21,15.34,32.63,8.74l17.24-9.96c10.25-5.92,23.37-2.41,29.29,7.85h0c5.92,10.25,2.41,23.37-7.85,29.29l-74.8,43.19c-11.43,6.6-15.34,21.21-8.74,32.63h0c6.6,11.43,21.21,15.34,32.63,8.74l209.81-121.13c11.43-6.6,15.34-21.21,8.74-32.63h0c-6.6-11.43-21.21-15.34-32.63-8.74l-74.8,43.19c-10.25,5.92-23.37,2.41-29.29-7.85Z"/>
        <path class="cls-6" d="M287.65-19.48h0c-5.92-10.25-2.41-23.37,7.85-29.29l35.1-20.27c11.43-6.6,15.34-21.21,8.74-32.63h0c-6.6-11.43-21.21-15.34-32.63-8.74l-57.47,33.18c-9.96,5.75-22.7,2.34-28.45-7.62h0c-5.75-9.96-2.34-22.7,7.62-28.45l88.68-51.2c11.43-6.6,15.34-21.21,8.74-32.63h0c-6.6-11.43-21.21-15.34-32.63-8.74L27.96-52.74c-11.43,6.6-15.34,21.21-8.74,32.63h0c6.6,11.43,21.21,15.34,32.63,8.74l77.45-44.72c9.96-5.75,22.7-2.34,28.45,7.62h0c5.75,9.96,2.34,22.7-7.62,28.45l-11.41,6.59c-11.43,6.6-15.34,21.21-8.74,32.63h0c6.6,11.43,21.21,15.34,32.63,8.74L218.4-4.25c10.25-5.92,23.37-2.41,29.29,7.85h0c5.92,10.25,2.41,23.37-7.85,29.29l-105.13,60.69c-11.43,6.6-15.34,21.21-8.74,32.63h0c6.6,11.43,21.21,15.34,32.63,8.74L423.85-18.18c11.43-6.6,15.34-21.21,8.74-32.63h0c-6.6-11.43-21.21-15.34-32.63-8.74l-83.02,47.93c-10.25,5.92-23.37,2.41-29.29-7.85Z"/>
      </g>
    </g>
    <g>
      <path class="cls-13" d="M72.53,447.15c-.52,0-1.02-.27-1.3-.75-.41-.72-.17-1.63.55-2.05l71.84-41.48c.72-.42,1.63-.17,2.05.55.41.72.17,1.63-.55,2.05l-71.84,41.48c-.24.14-.49.2-.75.2Z"/>
      <path class="cls-13" d="M157.39,69.59c-.52,0-1.02-.27-1.3-.75-.41-.72-.17-1.63.55-2.05l71.84-41.48c.72-.41,1.63-.17,2.05.55.41.72.17,1.63-.55,2.05l-71.84,41.48c-.24.14-.49.2-.75.2Z"/>
      <path class="cls-13" d="M550.15,117.43c-.52,0-1.02-.27-1.3-.75-.41-.72-.17-1.63.55-2.05l71.84-41.48c.72-.41,1.64-.17,2.05.55.41.72.17,1.63-.55,2.05l-71.84,41.48c-.24.14-.49.2-.75.2Z"/>
      <path class="cls-13" d="M653.05,507.64c-.52,0-1.02-.27-1.3-.75-.41-.72-.17-1.63.55-2.05l71.84-41.48c.72-.41,1.63-.17,2.05.55.41.72.17,1.63-.55,2.05l-71.84,41.48c-.24.14-.49.2-.75.2Z"/>
      <path class="cls-13" d="M724.5,158.96c-.52,0-1.02-.27-1.3-.75-.41-.72-.17-1.64.55-2.05l42.67-24.58c.72-.41,1.63-.17,2.05.55.41.72.17,1.64-.55,2.05l-42.67,24.58c-.24.14-.49.2-.75.2Z"/>
      <path class="cls-13" d="M386.54,107.9c-.52,0-1.02-.27-1.3-.75-.41-.72-.17-1.64.55-2.05l42.66-24.58c.72-.41,1.63-.17,2.05.55.41.72.17,1.64-.55,2.05l-42.67,24.58c-.24.14-.49.2-.75.2Z"/>
      <path class="cls-13" d="M216.32,510.77c-.52,0-1.02-.27-1.3-.75-.41-.72-.17-1.63.55-2.05l42.66-24.58c.72-.41,1.63-.17,2.05.55.41.72.17,1.63-.55,2.05l-42.66,24.58c-.24.14-.49.2-.75.2Z"/>
      <path class="cls-13" d="M30.7,121.03c-.52,0-1.02-.27-1.3-.75-.41-.72-.17-1.64.55-2.05l42.66-24.58c.72-.41,1.63-.17,2.05.55.41.72.17,1.64-.55,2.05l-42.66,24.58c-.24.14-.49.2-.75.2Z"/>
      <path class="cls-13" d="M604.07,433.63c-.52,0-1.02-.27-1.3-.75-.41-.72-.17-1.63.55-2.05l42.67-24.58c.72-.41,1.63-.17,2.05.55.41.72.17,1.63-.55,2.05l-42.67,24.58c-.24.14-.49.2-.75.2Z"/>
      <path class="cls-13" d="M-39.15,291.78c-.52,0-1.02-.27-1.3-.75-.41-.72-.17-1.63.55-2.05l71.84-41.48c.72-.42,1.63-.17,2.05.55.41.72.17,1.63-.55,2.05l-71.84,41.48c-.24.14-.49.2-.75.2Z"/>
    </g>
    <g>
      <g>
        <path class="cls-13" d="M113.41,103.19h0c-.86,0-1.57-.7-1.57-1.57v-7.43c0-.86.7-1.57,1.57-1.57h0c.86,0,1.57.7,1.57,1.57v7.43c0,.86-.7,1.57-1.57,1.57Z"/>
        <path class="cls-13" d="M118.69,97.91h0c0,.86-.7,1.57-1.57,1.57h-7.43c-.86,0-1.57-.7-1.57-1.57h0c0-.86.7-1.57,1.57-1.57h7.43c.86,0,1.57.7,1.57,1.57Z"/>
      </g>
      <g>
        <path class="cls-13" d="M35.31,179.08h0c-.86,0-1.57-.7-1.57-1.57v-7.43c0-.86.7-1.57,1.57-1.57h0c.86,0,1.57.7,1.57,1.57v7.43c0,.86-.7,1.57-1.57,1.57Z"/>
        <path class="cls-13" d="M40.59,173.79h0c0,.86-.7,1.57-1.57,1.57h-7.43c-.86,0-1.57-.7-1.57-1.57h0c0-.86.7-1.57,1.57-1.57h7.43c.86,0,1.57.7,1.57,1.57Z"/>
      </g>
      <g>
        <path class="cls-13" d="M107.34,312.22h0c-.86,0-1.57-.7-1.57-1.57v-7.43c0-.86.7-1.57,1.57-1.57h0c.86,0,1.57.7,1.57,1.57v7.43c0,.86-.7,1.57-1.57,1.57Z"/>
        <path class="cls-13" d="M112.62,306.93h0c0,.86-.7,1.57-1.57,1.57h-7.43c-.86,0-1.57-.7-1.57-1.57h0c0-.86.7-1.57,1.57-1.57h7.43c.86,0,1.57.7,1.57,1.57Z"/>
      </g>
      <g>
        <path class="cls-13" d="M50.31,487.47h0c-.86,0-1.57-.7-1.57-1.57v-7.43c0-.86.7-1.57,1.57-1.57h0c.86,0,1.57.7,1.57,1.57v7.43c0,.86-.7,1.57-1.57,1.57Z"/>
        <path class="cls-13" d="M55.59,482.18h0c0,.86-.7,1.57-1.57,1.57h-7.43c-.86,0-1.57-.7-1.57-1.57h0c0-.86.7-1.57,1.57-1.57h7.43c.86,0,1.57.7,1.57,1.57Z"/>
      </g>
      <g>
        <path class="cls-13" d="M379.71,463.89h0c-.86,0-1.57-.7-1.57-1.57v-7.43c0-.86.7-1.57,1.57-1.57h0c.86,0,1.57.7,1.57,1.57v7.43c0,.86-.7,1.57-1.57,1.57Z"/>
        <path class="cls-13" d="M384.99,458.61h0c0,.86-.7,1.57-1.57,1.57h-7.43c-.86,0-1.57-.7-1.57-1.57h0c0-.86.7-1.57,1.57-1.57h7.43c.86,0,1.57.7,1.57,1.57Z"/>
      </g>
      <g>
        <path class="cls-13" d="M555.08,483.85h0c-.86,0-1.57-.7-1.57-1.57v-7.43c0-.86.7-1.57,1.57-1.57h0c.86,0,1.57.7,1.57,1.57v7.43c0,.86-.7,1.57-1.57,1.57Z"/>
        <path class="cls-13" d="M560.36,478.57h0c0,.86-.7,1.57-1.57,1.57h-7.43c-.86,0-1.57-.7-1.57-1.57h0c0-.86.7-1.57,1.57-1.57h7.43c.86,0,1.57.7,1.57,1.57Z"/>
      </g>
      <g>
        <path class="cls-13" d="M714.59,239.09h0c-.86,0-1.57-.7-1.57-1.57v-7.43c0-.86.7-1.57,1.57-1.57h0c.86,0,1.57.7,1.57,1.57v7.43c0,.86-.7,1.57-1.57,1.57Z"/>
        <path class="cls-13" d="M719.88,233.81h0c0,.86-.7,1.57-1.57,1.57h-7.43c-.86,0-1.57-.7-1.57-1.57h0c0-.86.7-1.57,1.57-1.57h7.43c.86,0,1.57.7,1.57,1.57Z"/>
      </g>
      <g>
        <rect class="cls-13" x="661.77" y="55.01" width="3.13" height="10.57" rx="1.57" ry="1.57"/>
        <rect class="cls-13" x="661.77" y="55.01" width="3.13" height="10.57" rx="1.57" ry="1.57" transform="translate(603.05 723.63) rotate(-90)"/>
      </g>
      <g>
        <path class="cls-13" d="M400.07,61.34h0c-.86,0-1.57-.7-1.57-1.57v-7.43c0-.86.7-1.57,1.57-1.57h0c.86,0,1.57.7,1.57,1.57v7.43c0,.86-.7,1.57-1.57,1.57Z"/>
        <path class="cls-13" d="M405.35,56.06h0c0,.86-.7,1.57-1.57,1.57h-7.43c-.86,0-1.57-.7-1.57-1.57h0c0-.86.7-1.57,1.57-1.57h7.43c.86,0,1.57.7,1.57,1.57Z"/>
      </g>
    </g>
  </g>
</svg>