<?xml version="1.0" encoding="UTF-8"?>
<svg id="Capa_2" data-name="Capa 2" xmlns="http://www.w3.org/2000/svg" viewBox="0 0 66.64 89.85">
  <defs>
    <style>
      .cls-1 {
        isolation: isolate;
      }

      .cls-2 {
        fill: #fabc9d;
      }

      .cls-2, .cls-3, .cls-4, .cls-5, .cls-6, .cls-7, .cls-8, .cls-9, .cls-10, .cls-11, .cls-12, .cls-13, .cls-14, .cls-15, .cls-16, .cls-17, .cls-18, .cls-19, .cls-20 {
        stroke-width: 0px;
      }

      .cls-3 {
        fill: #603a29;
      }

      .cls-4 {
        fill: #5186eb;
      }

      .cls-5 {
        fill: #6361c2;
      }

      .cls-6 {
        fill: #30294c;
      }

      .cls-7 {
        fill: #38211a;
      }

      .cls-8 {
        fill: #403d8b;
      }

      .cls-9 {
        fill: #403860;
      }

      .cls-10 {
        fill: #221c3a;
      }

      .cls-11 {
        fill: #b1a2a2;
      }

      .cls-12 {
        fill: #b58978;
      }

      .cls-13 {
        fill: #85b208;
      }

      .cls-14 {
        fill: #fda4fe;
      }

      .cls-15 {
        fill: #ff637b;
      }

      .cls-16 {
        fill: #fff8f8;
      }

      .cls-17 {
        fill: #ffce45;
      }

      .cls-18 {
        fill: #fcbe9f;
      }

      .cls-19 {
        fill: #eadcdb;
      }

      .cls-20 {
        fill: #eaa510;
      }
    </style>
  </defs>
  <g id="_0" data-name="0">
    <g id="_4" data-name="4">
      <g>
        <g>
          <g>
            <path class="cls-14" d="M26.76,29.91c-1.24-.92-3.92-2.09-5.93-3.28-.4-.76-1.72-5.56-2.97-7-.45-.52-1.23-.76-1.87-.51-1.03.51-.9,1.18-.62,2.09s2.42,6.29,3.92,7.52c.78.64,6.39,3.16,6.53,3.23.97.46,1.84-1.47.94-2.05Z"/>
            <path class="cls-3" d="M32.33,32.24c-.6-.66-1.45-1.09-2.34-1.2.08-.24.39-.32.64-.27.25.06.47.19.71.27.44.14.43-.31.14-.5-.95-.63-1.61-.35-2.7-.44-.02-.32.15-.48.41-.64.61-.35.09-.94-1.02,0-.61.52-.99.49-1.25.51-.56.04-.93,1.36-.3,1.69,1.18.61.87.42,2.28.77.22.05.27.11.34.32.15.47.52,1.9.83,1.52.19-.24-.3-1.71-.41-1.99.86-.09,1.07,1.48,1.92,1.46.65-.01-.79-1.45-1.23-1.92.57.14.85.24,1.52.83.16.14.47.18.56-.01.07-.13-.03-.29-.13-.4Z"/>
          </g>
          <g>
            <g>
              <path class="cls-10" d="M12.26,12.04c-1.22-.13-2.46.45-3.05,1.52-1.93,3.47,3.84,8.38-.74,10.29.11.12.31.09.46.03,3.5-1.26,4.96-2.11,5.58-5.99.68-4.24-.53-5.67-2.25-5.85Z"/>
              <g>
                <path class="cls-20" d="M21.52,64.46c-.51-.8-3.1-1.37-3.48-2.91-.16-.66-.35-.86-1.85-.69-.58.06-.68,1.1-.78,1.63-.05.27,0,.41-.03.69-.03.2.06.4.21.53.79.68,3.59,2.81,3.75,2.9,1.38.69,2.25-.59,2.23-1.41,0-.15.02-.64-.04-.74Z"/>
                <path class="cls-16" d="M21.46,64.19c-.51-.8-3.04-1.71-3.42-3.25-.16-.66-.35-.86-1.85-.69-.58.06-.51.98-.61,1.51-.05.27-.17.53-.2.81-.03.2.06.4.21.53.79.68,3.59,2.81,3.75,2.9,1.64.82,2.55-1.14,2.13-1.8Z"/>
                <path class="cls-3" d="M17.65,58.11l-1.83.45c.03.7.1,1.54.06,2.09-.06.85,2.01.77,1.94.15-.06-.5-.14-1.41-.18-2.69Z"/>
                <g>
                  <path class="cls-20" d="M11,65.8c-.11-.34-.1-.72-.21-1.06-.11-.34-.41-.67-.77-.63l-1.2-.16c-.52-.08-.85.37-.99,1.07-.1.52-.18,1.08-.09,1.29.22.48.58,1.09.87,1.53,1.25,1.85,1.47,2.4,2.46,2.78.59.23,1.93.07,2.23-.45.04-.08.07-.16.08-.25,0-.02.05-.76.05-.79.07-1.18-2.2-2.57-2.44-3.33Z"/>
                  <path class="cls-16" d="M11.04,65.03c-.11-.34-.1-.72-.21-1.06-.11-.34-.41-.67-.77-.63l-1.2-.16c-.52-.08-.77.23-.91.92-.1.52-.27,1.22-.17,1.43.22.48.58,1.09.87,1.53,1.25,1.85,1.47,2.4,2.46,2.78.59.23,1.93.07,2.23-.45.61-1.07-2.04-3.52-2.31-4.36Z"/>
                  <path class="cls-3" d="M10.41,61.23l-1.85.35c0,.7.01,1.54-.06,2.09-.1.84,1.96.89,1.93.26-.03-.51-.06-1.42-.02-2.69Z"/>
                </g>
                <path class="cls-10" d="M18.18,50.45c.12-.6.2-1.39.2-1.99,0-.49-.08-1.1-.2-1.58-.58-2.23,1.32-7.27-2.6-14.51l-7.87.44c-1.36,2.07-1.71,4.12-1.71,5.59,0,2.73,1.79,8.64,2.34,10.39.1.33.07.67-.08.98-1.87,3.95-.53,6.08.1,12.38.07.69,2.15.85,2.2.17.09-1.3.51-6.12.47-6.96-.02-.36.62-3.07.7-3.37,1.07-4.1,1.07-9.78,1.44-12.29.61,3.02,1.74,7.97,1.77,8.24.03.28-.03.58-.15.84-1.89,4.06.14,6.78.91,10.29.14.64,2.13.65,2.11.1-.06-2.26.13-7.45.38-8.72Z"/>
                <path class="cls-14" d="M8.54,24.7c.78,1.99.7,4.65-1.02,7.48-.2.32-.38.69-.51,1.09-1.09,3.16,9.24,3.2,8.72-.5-.13-.92-.22-1.86.07-2.73.55-1.67,2.24-1.24,2.76-2.75.29-.84-.34-2.19-.93-3.13-.91-1.46-.54-1.41-.14-2.53.22-.62.12-1.56-.1-1.97-.72-1.36-2.6-.28-3.58.12-6.44,2.64-5.97,3.2-5.28,4.93Z"/>
              </g>
              <path class="cls-7" d="M15.77,20.92c-.1-.46-.21-.92-.31-1.38l-2.81-1.43c.15,1.37-.32,1.93-.53,2.52-.21.59-.04,1.46,1.24,1.8,1.65.44,2.7-.27,2.41-1.51Z"/>
            </g>
            <g>
              <path class="cls-3" d="M14.42,20.46c.49.4,1.48,1.16,2.03.86.39-.21.44-.98.85-1.16.19-.09.27-.07.26-.39,0-.43.03-.71.2-1.1.27-.61.71-.83.48-2.61-.06-.47-.11-.65-1.54-1.67-.33-.23-.46-.27-.92-.22-.8.09-1.01.19-1.58.83-.3.34-.6.68-.8,1.08-.26.52-.9,1.27-.76,1.86.16.69,1.16,1.98,1.78,2.5Z"/>
              <path class="cls-14" d="M12.78,12.6c-.75.61-.28,1.31.39,1.26.44-.03.98-.4,1.02-.87.05-.55-.73-.95-1.41-.39Z"/>
              <path class="cls-10" d="M13.86,19.11c-.19-.54-.94-.48-.77-.15-1.59-.63-3.01-4.05-.29-5.91,2.26-1.54,4.59-.25,5.51,1.11.44.65.52,1.87,0,2.55,0-.22-.23,0-.47.08-.46.16-1.23.5-2.08,1.04-.29.18-1.48,1.22-1.9,1.29Z"/>
            </g>
            <path class="cls-3" d="M12.48,17.91c.05.61.71,1.32,1.11,1.43.12.03.39,0,.38-.18-.06-1.92-1.58-2.35-1.49-1.25Z"/>
          </g>
          <path class="cls-10" d="M19.1,48.96c-1.99,0-4.06-.93-5.31-3.24l-.08-.16c-1.47-2.86-1.54-5.93-.18-7.83.86-1.2,2.23-1.76,3.76-1.53.12.02.48.07,3.78,1.43l-.77,1.88c-1.39-.57-3.07-1.24-3.36-1.31-.73-.11-1.34.13-1.76.72-.73,1.02-.93,3.25.34,5.73l.04.09c1.24,2.3,3.48,2.49,5.02,1.95,1.69-.59,3.21-2.26,2.79-4.68-.04-.22-.09-.46-.14-.7-.42-2.02-1.04-5.08,1.79-8.69l1.6,1.25c-2.25,2.87-1.78,5.18-1.4,7.03.06.27.11.52.15.76.62,3.59-1.62,6.07-4.12,6.94-.67.23-1.4.36-2.14.36Z"/>
          <g>
            <path class="cls-14" d="M16.62,35.33c-1.52-.72-6.78-3.2-6.78-3.2,1.06-2.35,2.75-9.99-.44-9.98-1,0-1.72,1.07-1.98,2.04-.18.7-.37,4.18-.5,4.99-.29,1.82-.62,4.84.57,5.64,1.25.83,4.4,2.22,8.35,2.75.98.14,1.39-1.93.78-2.23Z"/>
            <path class="cls-3" d="M18.69,37.97c.04.35.31.67.65.82.28.12.57.3.67.53,0,.13-.72.44-1.15.4-.44-.04-1.02-.24-1.44-.47s-.96-1.55-1.31-1.78c-.52-.35-.2-2.06.5-1.97.48-.01,2.45.01,3.03.83.24.39.51,1.05.51,1.05l-.69-.32c-.15-.07-.33-.08-.46.01-.29.22-.32.69-.29.91Z"/>
          </g>
          <g id="_1" data-name="1">
            <g>
              <path class="cls-11" d="M28.81,34.11c-1.91,0-4.21-1.34-5.14-2.97-.46-.81-.5-1.53-.2-2.07-.22.42-.87,1.68.09,3.4.22.39,1.43,2.33,4.16,2.42,2.02-.02,2.81-1.26,3.06-1.67-.31.55-.99.89-1.96.89Z"/>
              <path class="cls-16" d="M31.1,30.64c-1-1.75-3.45-3.17-5.49-3.17-2.04,0-2.88,1.41-1.88,3.15.69,1.22,2.1,2.28,3.57,2.81.64.23,1.3.36,1.92.37.5,0,.92-.08,1.27-.23,1.07-.47,1.37-1.6.62-2.92Z"/>
              <path class="cls-19" d="M31.14,30.66c-1.33-2.44-5.76-4.25-7.54-2.54-2.14,2.06,1.32,6.06,5.36,6.21,2.54-.09,3.11-1.97,2.18-3.67ZM29.22,33.8c-2.04,0-4.49-1.43-5.49-3.17-1-1.75-.15-3.16,1.88-3.15,2.04,0,4.49,1.43,5.49,3.17s.15,3.16-1.88,3.15Z"/>
              <path class="cls-11" d="M29.38,33.12c-1.91,0-4.21-1.34-5.15-2.98-.46-.8-.5-1.53-.2-2.06l-.27.48c-.3.53-.25,1.26.2,2.06.93,1.64,3.24,2.97,5.14,2.97.97,0,1.64-.34,1.96-.88l.28-.48c-.31.55-.99.88-1.96.88Z"/>
              <path class="cls-16" d="M31.67,29.65c-1-1.75-3.45-3.17-5.49-3.17-2.04,0-2.88,1.41-1.88,3.15,1,1.75,3.45,3.17,5.49,3.17,2.04,0,2.88-1.41,1.88-3.15Z"/>
              <path class="cls-19" d="M31.71,29.67c-1.33-2.44-5.76-4.25-7.54-2.54-2.14,2.06,1.32,6.06,5.36,6.21,2.54-.09,3.11-1.97,2.18-3.67ZM29.78,32.8c-.65,0-1.34-.15-2.01-.4-1.44-.54-2.8-1.58-3.48-2.78-1-1.75-.15-3.16,1.88-3.15,2.04,0,4.49,1.43,5.49,3.17.71,1.25.48,2.33-.45,2.84-.37.2-.85.32-1.43.31Z"/>
              <path class="cls-11" d="M29.95,32.12c-1.91,0-4.22-1.34-5.15-2.98-.46-.81-.5-1.54-.2-2.07l-.27.48c-.3.53-.26,1.26.2,2.07.93,1.64,3.24,2.97,5.15,2.98.97,0,1.65-.34,1.97-.89l.27-.48c-.31.55-1,.89-1.97.89Z"/>
              <path class="cls-16" d="M32.23,28.66c-1-1.75-3.45-3.17-5.49-3.17-2.04,0-2.88,1.41-1.88,3.15,1,1.75,3.45,3.17,5.49,3.17,2.04,0,2.88-1.41,1.88-3.15Z"/>
              <path class="cls-19" d="M32.27,28.68c-1.33-2.44-5.76-4.25-7.54-2.54-2.14,2.06,1.32,6.06,5.36,6.21,2.54-.09,3.11-1.97,2.18-3.67ZM30.35,31.81c-.66,0-1.37-.15-2.06-.42-1.42-.55-2.76-1.58-3.43-2.75-1-1.75-.15-3.16,1.88-3.15,2.04,0,4.49,1.43,5.49,3.17.74,1.3.46,2.42-.57,2.9-.35.17-.8.26-1.32.26Z"/>
              <path class="cls-11" d="M30.51,31.14c-1.91,0-4.22-1.34-5.16-2.98-.46-.8-.5-1.53-.2-2.07l-.27.48c-.3.53-.26,1.26.2,2.06.93,1.64,3.24,2.98,5.16,2.98.97,0,1.65-.34,1.96-.88l.28-.48c-.32.55-1,.89-1.97.88Z"/>
              <path class="cls-19" d="M32.84,27.68c-1.33-2.44-5.76-4.25-7.54-2.54-2.14,2.06,1.32,6.06,5.36,6.21,2.54-.09,3.11-1.97,2.18-3.67ZM30.91,30.82c-2.04,0-4.49-1.43-5.49-3.17-1-1.75-.15-3.16,1.88-3.15,2.04,0,4.49,1.43,5.49,3.17,1,1.75.15,3.16-1.88,3.15Z"/>
              <path class="cls-16" d="M32.8,27.66c-1-1.75-3.45-3.17-5.49-3.17-1.91,0-2.77,1.24-2.05,2.83.05.11.1.21.17.32.65,1.15,1.94,2.15,3.32,2.71.72.29,1.47.46,2.17.46.14,0,.28,0,.41-.02,1.74-.17,2.4-1.51,1.48-3.14Z"/>
              <path class="cls-11" d="M32.1,30.58c-.39,0-.79-.05-1.2-.12l.3-.52c-1.91,0-4.23-1.34-5.16-2.98-.46-.81-.5-1.54-.2-2.07l-.39.7c-.22.4-.26.9-.07,1.46-.13-.18-.26-.37-.37-.56-.54-.95-.66-1.82-.42-2.51-.23.61-.32,1.51.4,2.81.09.17.21.35.34.53.15.2.32.41.52.62.99,1.45,3,2.59,4.76,2.68.4.08.82.13,1.25.15,1.67-.01,2.42-.68,2.77-1.12-.49.6-1.35.95-2.52.95Z"/>
              <g>
                <path class="cls-5" d="M32.97,28.89c-2.58,0-5.7-1.81-6.96-4.02-.6-1.06-.52-2.11-.27-2.69.37-.84,1.33-1.32,2.65-1.32,2.59,0,5.72,1.81,6.98,4.02.63,1.11.69,2.16.15,2.89-.39.52-1.28,1.13-2.54,1.13h0Z"/>
                <path class="cls-8" d="M28.39,20.7v.3c2.55,0,5.61,1.78,6.85,3.95.6,1.06.66,2.05.16,2.72-.37.49-1.22,1.07-2.43,1.07-2.53,0-5.6-1.78-6.83-3.95-.57-1.01-.5-2.01-.26-2.56.34-.78,1.26-1.23,2.51-1.23v-.3h0ZM28.39,20.7c-1.43,0-2.41.55-2.79,1.41-.31.71-.31,1.81.27,2.83,1.29,2.26,4.46,4.09,7.09,4.1,1.22,0,2.2-.55,2.67-1.19.55-.75.55-1.83-.14-3.05-1.29-2.26-4.46-4.09-7.09-4.1h-.02Z"/>
              </g>
              <path class="cls-19" d="M33.06,28.88c-2.63,0-5.81-1.84-7.09-4.1-.63-1.11-.69-2.12-.27-2.85l-.97,1.7c-.42.73-.36,1.74.27,2.85,1.29,2.26,4.46,4.09,7.09,4.1,1.34,0,2.28-.47,2.71-1.22l.97-1.7c-.43.76-1.37,1.23-2.71,1.22Z"/>
            </g>
            <path class="cls-8" d="M33.14,28.74c-2.91,0-5.86-2.05-7.04-4.02-.65-1.09-.76-2.13-.33-2.95,1.44-2.75,1.49-3.21,1.37-7.2,0-.18-.01-.38-.02-.57-.04-3.99,2.17-7.44,5.77-9.02,3.67-1.61,7.78-.88,10.74,1.91,2.25,2.11,3.38,5.2,3.03,8.25-.34,3.02-2.09,5.65-4.8,7.23l-.48.27c-3.47,1.95-3.83,2.15-5.51,4.87-.21.34-.49.61-.85.82-.51.29-1.15.43-1.89.43ZM27.49,16.49c0,2.39-.25,3.12-1.45,5.42-.39.72-.27,1.66.32,2.66,1.13,1.9,3.97,3.87,6.76,3.87.69.02,1.29-.13,1.76-.39.32-.18.56-.41.74-.71,1.72-2.78,2.09-2.99,5.62-4.97l.48-.27c2.62-1.53,4.31-4.08,4.65-7,.34-2.96-.76-5.95-2.94-7.99-2.87-2.7-6.86-3.41-10.41-1.85-3.49,1.53-5.64,4.88-5.59,8.74,0,.2.01.38.02.56,0,.23.02.46.02.67.02.42.03.82.04,1.19,0,.03,0,.06-.02.08Z"/>
            <g>
              <path class="cls-8" d="M32.79,17.14s-.05-.04-.04-.07c0-.03.01-.06.02-.09,0-.04.01-.07.02-.1-.04-.04,0-.05.02-.04.02,0,.02.02.02.04,0,.03,0,.07-.02.11,0,.03-.01.06-.02.09.06-.02.1-.06.14-.1.02-.02.04-.04.06-.07.03-.03.09-.09.13-.08.04.04.03.09.01.16,0,.04-.02.09-.01.11.04-.02.1-.08.15-.14.08-.09.13-.14.17-.14.04.02.04.06.03.14-.02.08-.03.12-.02.13.02,0,.05-.03.1-.08.02-.02.04-.04.05-.06.04-.05.08-.09.13-.12.02-.01.04-.01.05,0,.02.01.03.04.03.08,0,.03,0,.05-.02.08,0,.04-.02.07-.02.1,0,0,.02,0,.05-.03.03-.03.06-.06.09-.1.03-.03.06-.06.09-.09.03-.02.06-.05.09-.05.04.08.03.13.03.18,0,.03,0,.06,0,.08.06-.04.12-.11.16-.16.06-.07.1-.11.13-.11.06.04.04.12.01.19-.01.03-.03.08-.02.09.05,0,.09-.06.14-.12.05-.06.1-.13.17-.16.07.02.06.06.04.12-.01.05-.02.1-.02.14.02-.02.07-.06.11-.1.05-.05.1-.1.15-.14.03-.02.05-.03.07-.02.02,0,.03.03.02.06,0,.03,0,.06-.02.09,0,.03-.01.07-.02.1.07-.04.11-.08.14-.12.02-.02.04-.05.07-.07.03-.03.08-.07.11-.07.04.06.02.1.01.15,0,.02,0,.04-.01.06,0,.03,0,.05,0,.06.04-.02.09-.08.14-.14.09-.09.14-.15.17-.14.05.04.04.09.02.16,0,.04-.03.11-.02.12.02,0,.09-.08.14-.14.06-.06.11-.12.14-.14.06.01.07.05.07.09,0,.02,0,.04-.01.07,0,.04-.02.07-.02.1.01,0,.04-.02.06-.04.03-.03.06-.06.08-.09.03-.04.07-.07.1-.1.03-.03.07-.04.09-.03.02,0,.02.02.02.04,0,.03,0,.07-.02.11,0,.03-.01.06-.01.08.08-.02.14-.08.19-.14.08-.08.11-.11.14-.11.05.06.03.13,0,.2,0,.03-.02.07-.02.08.06-.02.1-.08.15-.14.05-.07.1-.13.17-.15.07.03.05.08.03.14-.01.05-.03.11-.02.14.02-.01.06-.06.1-.09.05-.05.11-.12.18-.17.02-.02.04-.02.06,0,.02.01.03.04.03.07,0,.03,0,.05-.01.08,0,.04-.02.08-.02.11,0,0,.02,0,.04-.02.03-.03.06-.06.1-.1.03-.03.06-.06.09-.09,0,.06-.03.09-.06.12-.03.03-.06.07-.1.1-.03.03-.07.04-.09.03-.02-.07-.01-.11,0-.15,0-.02.01-.05.01-.08-.08.02-.14.08-.19.14-.07.08-.11.11-.13.11-.05-.06-.03-.13,0-.2,0-.03.02-.07.02-.09-.06.01-.1.07-.15.13-.05.07-.1.13-.17.15-.07-.03-.05-.07-.04-.13.01-.05.03-.11.02-.14-.02.01-.06.06-.1.09-.05.05-.11.12-.17.16-.02.01-.04.02-.06,0-.02-.01-.03-.04-.03-.07,0-.03,0-.06.02-.09,0-.04.01-.07.02-.1-.08.05-.11.09-.14.12-.03.03-.05.06-.08.09-.03.03-.07.06-.1.05-.04-.07-.03-.11-.02-.15,0-.02,0-.04.01-.06,0-.03,0-.05,0-.05-.03.02-.08.08-.14.13-.1.1-.14.15-.18.15-.05-.02-.04-.09-.02-.17,0-.04.02-.1.02-.11-.02,0-.09.08-.14.13-.06.07-.12.13-.16.15-.07-.02-.06-.08-.06-.11,0-.02,0-.04.01-.06,0-.04.02-.08.01-.1-.01,0-.04.02-.07.05-.02.02-.05.05-.07.07-.04.04-.08.08-.11.12-.03.02-.05.03-.08.02-.02,0-.03-.03-.02-.05,0-.03,0-.07.02-.1,0-.03.01-.06.02-.09-.08.04-.13.09-.18.13-.1.09-.13.12-.15.12-.04-.07-.02-.14,0-.2,0-.02.01-.06.01-.07-.06.03-.11.09-.15.15-.05.07-.1.13-.16.13-.06-.05-.05-.1-.03-.15.02-.05.04-.12.02-.13-.01,0-.06.06-.1.1-.05.06-.12.13-.18.17-.06,0-.06-.05-.05-.13,0-.04,0-.09,0-.13,0,0-.03.01-.05.03-.03.03-.06.06-.09.09-.03.03-.06.07-.1.1-.03.03-.07.05-.09.04-.02-.07-.02-.11,0-.15,0-.03.01-.05.01-.08-.05,0-.09.04-.13.09-.02.02-.03.04-.05.06-.02.02-.1.1-.13.1-.04-.04-.03-.09-.02-.14.03-.12.02-.14.02-.14-.02,0-.08.08-.13.13-.06.07-.13.14-.17.16-.06-.03-.05-.08-.04-.16,0-.03.02-.09.02-.11-.02,0-.05.03-.08.07-.02.02-.04.04-.06.07-.04.05-.08.09-.12.12-.02.01-.03.02-.05.02Z"/>
              <g>
                <path class="cls-8" d="M33.71,21.15s.03-.05.03-.09l.22-1.14c-.02.09-.1.14-.23.14-.2,0-.45-.14-.55-.32-.06-.11-.05-.2.01-.26l-.87.77s-.05.05-.06.08c0-.01-2.26,4.01-2.26,4.01-.06.11-.05.25.04.41.18.32.64.59,1.02.59.19,0,.33-.07.39-.18l2.27-4.03Z"/>
                <path class="cls-8" d="M33.92,19.75c-.1-.17-.35-.32-.55-.32-.2,0-.29.14-.19.32.1.17.35.32.55.32.2,0,.29-.14.19-.32Z"/>
                <g>
                  <path class="cls-8" d="M33.33,19.85s-.03,0-.05-.02c-.06-.03-.08-.11-.05-.17l.44-.78-1.41-.88s-.07-.09-.05-.14l.39-1.13c.02-.06.09-.1.15-.08.06.02.1.09.08.16l-.36,1.04,1.42.89c.06.03.07.11.04.16l-.5.88s-.07.07-.12.06Z"/>
                  <path class="cls-8" d="M33.74,19.85s-.03,0-.05-.02c-.06-.03-.08-.11-.05-.17l.5-.88s.04-.04.06-.05l2.56-.97.87-1.11c.04-.05.12-.06.17-.02s.06.12.02.17l-.89,1.14s-.03.03-.05.04l-2.55.97-.47.84s-.07.07-.12.06Z"/>
                </g>
              </g>
            </g>
            <path class="cls-16" d="M44.72,9.54c-1.27-2.29-3.8-3.3-5.66-2.27s-2.33,3.72-1.07,6c1.27,2.29,3.8,3.3,5.66,2.27,1.86-1.03,2.33-3.72,1.07-6Z"/>
          </g>
          <g id="Axonometric_Cube" data-name="Axonometric Cube">
            <polygon id="Cube_face_-_left" data-name="Cube face - left" class="cls-10" points="22.91 45.14 17.94 42.27 17.94 38.41 22.91 41.28 22.91 45.14"/>
            <polygon id="Cube_face_-_right" data-name="Cube face - right" class="cls-6" points="27.66 42.39 22.91 45.14 22.91 41.28 27.66 38.53 27.66 42.39"/>
            <polygon id="Cube_face_-_top" data-name="Cube face - top" class="cls-9" points="22.91 41.28 17.94 38.41 22.69 35.66 27.66 38.53 22.91 41.28"/>
          </g>
          <polygon class="cls-10" points="24.7 43.25 24.01 43.65 24.01 41.5 24.7 41.1 24.7 43.25"/>
          <polygon class="cls-10" points="26.62 42.15 25.93 42.55 25.93 40.39 26.62 39.99 26.62 42.15"/>
        </g>
        <g>
          <path class="cls-18" d="M45.13,42.92c-.26-.13-.46-.24-.58-.31-.3-.19-.64-1.44-.71-2.1-.1-.95-.65-.67-.95-1.66-.04-.12-.06-.24-.14-.34-.08-.1-.22-.15-.32-.09-.19.12-.09.71,0,.9.1.21.28.37.38.58.17.37-.05.53-.46.11-.52-.53-1.93-1.93-2.05-1.36-.09.39,1.61,1.5,1.38,1.77-.16.17-1.87-1.33-2.15-1.38-.1-.02-.22.01-.27.1-.09.18.08.33.25.43.35.22,1.91,1.43,1.77,1.57-.13.13-1.77-1.24-2.15-1.18-.1.02-.19.1-.16.21.1.35,1.39,1.09,1.69,1.33.16.13.42.26.32.42-.15.2-1.46-.88-1.66-.6-.17.46.69.72,3.18,2.23.41.25,1.06.66,1.79,1.1.26-.6.54-1.18.86-1.75Z"/>
          <path class="cls-16" d="M55.69,40.98c-1.65.73-4.98,3.56-4.98,3.56,0,0-4.24-1.4-6.18-2.33-.44-.31-1.89,1.62-1.04,2.18,1.38.91,6,3.77,6.95,3.83,1.37.09,5.68-1.93,6.22-2.25,2.13-1.23.49-5.64-.97-4.99Z"/>
          <path class="cls-20" d="M49.47,82.28c-.02-.19-.03-.33,0-.48l-2.15.22c-3.59.22-5.38.09-5.42,1.35-.2,2.05,4.82,1.89,7.34,1.56,1.35-.18.31-2.07.23-2.65Z"/>
          <path class="cls-20" d="M57.02,78.59l-1.54-1.15c-.27-.37-.22-.48-.58-.77-.57-.47-2.34-.28-2.36.64-.07.59.05.86.15,1.05.31.54,1.74,2.55,2.07,3.06.87,1.33,2.75,1.02,2.72.1-.02-.57.13-.39-.46-2.92Z"/>
          <path class="cls-16" d="M49.47,81.67s-2.25.02-2.25.02c-3.59.22-5.32.29-5.31,1.08-.2,2.05,4.82,1.89,7.34,1.56,1.35-.18.31-2.07.23-2.65Z"/>
          <path class="cls-16" d="M57.18,78.65c-.1-.43-.34-.82-.69-1.1-.6-.47-1.52-1.19-1.76-1.39-.57-.47-2.17-.4-2.19.52-.07.59.05.86.15,1.05.31.54,1.74,2.55,2.07,3.06.87,1.33,2.75,1.02,2.72.1-.02-.51.1-.42-.31-2.25Z"/>
          <path class="cls-10" d="M57.6,72.3c-.03-.55-.12-1.1-.23-1.64-1.54-7.74.11-10.6-1.63-15.13.11-3.61-6.06-3.51-8.94,1.06-.85,1.34-.75,10.07-.8,13.37-.02,1.4.12,2.87.07,4.27-.13,3.49.75,5.16.51,7.35.05,1,3.1,1.17,3.08.19-.05-2.5,1.05-5.67.59-7.97-.13-.67-.2-1.43-.23-2.11-.03-.67.23-3.58,1.55-7.93,0,0,1.53,5.35,1.57,6.68.01.37.02.72.04,1.04.05,1.05.28,2.09.64,3.08.3.83.61,1.97.63,4.07.01,1.27,2.89,1.19,2.85.25-.11-3.05.42-4.4.3-6.58Z"/>
          <path class="cls-16" d="M57.82,42.31c.62,3.9-1.57,4.57-2.04,12.99.69,3.37-9.15,4.31-9.11,1.7.24-3.82.48-4.97,0-8.78-.11-.87-.15-2.24.22-3.09.28-.63,6.97-3.53,8.69-4.26,1.06-.45,2.06.36,2.23,1.45Z"/>
          <path class="cls-10" d="M62.29,89.21c.29-.3.52-.68.73-1.05l-4.21-2.43c-1.58-.91-3.42-1.25-5.19-.96-6.74,1.11-17.58,1.52-20.58-1.04-.46-.39-.67-.81-.67-1.32,0-1.68,1.89-2.27,5-3.05,2.77-.69,5.63-1.4,6.57-3.82.75-1.92.05-4.39-2.2-7.78-2-3.02.05-8.71,1.4-12.48.29-.8.56-1.56.76-2.2.41-1.3.31-2.7-.27-3.94l-2.14-4.58c-.24-.51-.84-.73-1.35-.49-.51.24-.73.84-.49,1.35l2.14,4.58c.37.78.43,1.66.17,2.48-.19.6-.44,1.3-.73,2.12-1.49,4.15-3.75,10.42-1.18,14.29,1.8,2.71,2.47,4.71,2,5.93-.56,1.43-2.9,2.02-5.17,2.58-3.06.76-6.53,1.63-6.53,5.01,0,1.1.48,2.09,1.38,2.87,4.16,3.54,17.46,2.28,22.23,1.49,1.31-.22,2.68.04,3.85.71l4.02,2.32c.13-.21.3-.4.48-.59Z"/>
          <g>
            <g class="cls-1">
              <polygon class="cls-10" points="39.94 47.71 36.89 48.17 34.06 41.37 37.12 40.92 39.94 47.71"/>
              <polygon class="cls-6" points="37.12 40.92 34.06 41.37 39.02 38.51 42.07 38.06 37.12 40.92"/>
              <polygon class="cls-9" points="42.07 38.06 44.9 44.85 39.94 47.71 37.12 40.92 42.07 38.06"/>
            </g>
            <g class="cls-1">
              <polygon class="cls-11" points="37.46 40.37 35.98 40.58 34.79 37.67 36.27 37.46 37.46 40.37"/>
              <polygon class="cls-19" points="36.27 37.46 34.79 37.67 35.44 37.31 36.93 37.1 36.27 37.46"/>
              <polygon class="cls-16" points="36.93 37.1 38.12 40.01 37.46 40.37 36.27 37.46 36.93 37.1"/>
            </g>
            <g class="cls-1">
              <polygon class="cls-11" points="39.61 39.13 38.13 39.34 36.94 36.43 38.42 36.22 39.61 39.13"/>
              <polygon class="cls-19" points="38.42 36.22 36.94 36.43 37.59 36.07 39.08 35.86 38.42 36.22"/>
              <polygon class="cls-16" points="39.08 35.86 40.27 38.76 39.61 39.13 38.42 36.22 39.08 35.86"/>
            </g>
          </g>
          <path class="cls-18" d="M37.73,46.84c-.26-.13-.5-.2-.58-.31-.3-.4-.61-1.02-.61-1.68,0-.76-.39-.95-.39-1.99,0-.12.01-.25-.03-.36-.04-.11-.17-.21-.28-.17-.21.07-.29.65-.26.86.03.23.05.45.09.68.06.42-.4.41-.53.06-.15-.38-.46-1.13-.46-1.13-.34.66-.48,1.6-.51,2.34-.03.71.12,1.2.45,1.82.24.44.49.56.89.79.47.26.92.57,1.37.85.26-.6.54-1.18.86-1.75Z"/>
          <path class="cls-16" d="M47.05,44.95c-1.32,1.23-5.13,4.96-5.13,4.96,0,0-3.04-2.22-4.69-3.6-.35-.41-2.23,1.1-1.55,1.85,1.11,1.23,5.25,5.44,6.2,5.44,1.37,0,6.09-3.23,6.5-3.71.54-.62-.99-5.27-1.34-4.94Z"/>
          <g>
            <path class="cls-2" d="M49.54,35.29c-.64.63-.99,1.56-.92,2.45,0,.1.02.21-.02.3-.06.14-.21.2-.34.28-.13.08-.26.2-.23.35.02.11.13.18.19.28.05.09.07.2.08.3.04.43.08.87.06,1.3,0,.14-.02.28.02.41.11.36.56.48.92.59.19.06.28.12.36.37.22.68.21.99.17,1.52-.08,1.05,4.39.17,3.82-1.2-.07-.18-.18-.79-.07-.99.35-.61,1.52-1.02,1.59-3.02.15-4.28-3.95-4.59-5.61-2.95Z"/>
            <path class="cls-12" d="M50.15,39.14c-.13.53.86.61.96.23.27-.59.86-.45,1.1-.08.31.49.14,1.04-.37,1.65-.22.26-.13.66.18.79,1.03.41,3.29-1.57,3.68-3.95.29-1.92-.21-3.02-1.62-3.77-.7-.37-1.81-.57-2.37-.58-2.23,0-3.33,1.43-3.14,3.07.03.27.21.5.46.6.65.25,1.45.66,1.12,2.04Z"/>
          </g>
        </g>
        <path class="cls-17" d="M63.16,88.51c0,.43-.35.97-.77,1.22-.43.25-.77.1-.77-.33s.35-.97.77-1.22c.43-.25.77-.1.77.33Z"/>
      </g>
      <g>
        <path class="cls-8" d="M46.31,6.81c2.03-2.05,4.06-4.11,6.08-6.16.34-.34-.19-.87-.53-.53-2.03,2.05-4.06,4.11-6.08,6.16-.34.34.19.87.53.53h0Z"/>
        <path class="cls-8" d="M45.31,5.72c.36-.56.71-1.12,1.07-1.68.26-.41-.39-.79-.65-.38-.36.56-.71,1.12-1.07,1.68-.26.41.39.79.65.38h0Z"/>
        <path class="cls-8" d="M46.78,8.29c1.4-.72,2.81-1.43,4.21-2.15.43-.22.05-.87-.38-.65-1.4.72-2.81,1.43-4.21,2.15-.43.22-.05.87.38.65h0Z"/>
        <path class="cls-8" d="M43.89,5.28c.37-1.52.74-3.03,1.11-4.55.11-.47-.61-.67-.72-.2-.37,1.52-.74,3.03-1.11,4.55-.11.47.61.67.72.2h0Z"/>
      </g>
      <path class="cls-17" d="M63.96,43.12c-.41.24-.75.82-.75,1.29,0,.48.34.67.75.43.41-.24.75-.82.75-1.29,0-.47-.34-.67-.75-.43Z"/>
      <g>
        <path class="cls-5" d="M55.4,26.96c-.23.14-.42.46-.42.73,0,.27.19.38.43.24s.42-.46.42-.73c0-.27-.19-.38-.43-.24Z"/>
        <path class="cls-8" d="M55.21,28.14c-.07,0-.13-.02-.19-.05-.13-.07-.2-.22-.2-.4,0-.32.22-.7.5-.86.16-.09.32-.1.45-.03.13.07.2.22.2.4,0,.32-.22.7-.5.86-.09.05-.18.08-.27.08ZM55.59,27.05s-.07.01-.12.04c-.19.11-.35.39-.35.6,0,.07.02.13.05.14.03.02.09,0,.15-.03.19-.11.35-.39.35-.6,0-.07-.02-.13-.05-.14,0,0-.02,0-.04,0Z"/>
      </g>
      <g>
        <path class="cls-5" d="M4.5,16.09c-1.04.6-1.88,2.05-1.87,3.24,0,1.19.85,1.68,1.89,1.08,1.04-.6,1.88-2.05,1.87-3.25,0-1.19-.85-1.67-1.89-1.07Z"/>
        <path class="cls-8" d="M3.67,20.82c-.21,0-.4-.05-.57-.15-.4-.23-.62-.71-.63-1.34,0-1.24.87-2.75,1.95-3.38.55-.32,1.08-.37,1.48-.13.4.23.62.71.63,1.34,0,1.24-.87,2.75-1.95,3.38-.32.18-.63.28-.92.28ZM5.35,15.99c-.23,0-.49.08-.77.24-.99.57-1.8,1.97-1.8,3.11,0,.52.17.9.48,1.08.31.18.73.13,1.18-.13.99-.57,1.8-1.97,1.8-3.12,0-.52-.17-.9-.48-1.08-.12-.07-.26-.11-.42-.11Z"/>
      </g>
      <path class="cls-4" d="M35.66,39.85c-.99.57-1.8,1.97-1.79,3.11,0,1.14.81,1.6,1.81,1.03.99-.57,1.8-1.97,1.79-3.11,0-1.14-.81-1.6-1.81-1.03Z"/>
      <path class="cls-13" d="M.75,11.49C.33,11.73,0,12.31,0,12.79c0,.48.34.67.75.43.42-.24.75-.82.75-1.3,0-.48-.34-.67-.75-.43Z"/>
      <path class="cls-14" d="M63.96,17.31c-1.48.85-2.67,2.92-2.67,4.62s1.21,2.39,2.69,1.53c1.48-.85,2.67-2.92,2.67-4.62,0-1.7-1.21-2.38-2.69-1.53Z"/>
      <path class="cls-15" d="M58.1,28.27c-.57.33-1.04,1.14-1.04,1.8,0,.66.47.93,1.04.6.57-.33,1.04-1.14,1.04-1.8,0-.66-.47-.93-1.04-.59Z"/>
    </g>
  </g>
</svg>