<?xml version="1.0" encoding="UTF-8"?>
<svg id="Capa_2" data-name="Capa 2" xmlns="http://www.w3.org/2000/svg" xmlns:xlink="http://www.w3.org/1999/xlink" viewBox="0 0 85.34 80.98">
  <defs>
    <style>
      .cls-1 {
        clip-path: url(#clippath);
      }

      .cls-2 {
        fill: none;
      }

      .cls-2, .cls-3, .cls-4, .cls-5, .cls-6, .cls-7, .cls-8, .cls-9, .cls-10, .cls-11, .cls-12, .cls-13, .cls-14, .cls-15, .cls-16, .cls-17, .cls-18, .cls-19, .cls-20, .cls-21 {
        stroke-width: 0px;
      }

      .cls-22 {
        clip-path: url(#clippath-1);
      }

      .cls-23 {
        clip-path: url(#clippath-4);
      }

      .cls-24 {
        clip-path: url(#clippath-3);
      }

      .cls-25 {
        clip-path: url(#clippath-2);
      }

      .cls-26 {
        clip-path: url(#clippath-6);
      }

      .cls-27 {
        clip-path: url(#clippath-5);
      }

      .cls-28 {
        isolation: isolate;
      }

      .cls-3 {
        fill: #7673e4;
      }

      .cls-4 {
        fill: #5186eb;
      }

      .cls-5 {
        fill: #6361c2;
      }

      .cls-6 {
        fill: #724733;
      }

      .cls-7 {
        fill: #3967c1;
      }

      .cls-8 {
        fill: #403d8b;
      }

      .cls-9 {
        fill: #221c3a;
      }

      .cls-10 {
        fill: #bb7150;
      }

      .cls-11 {
        fill: #85b208;
      }

      .cls-12 {
        fill: #fda4fe;
      }

      .cls-13 {
        fill: #ff637b;
      }

      .cls-14 {
        fill: #7f513d;
      }

      .cls-15 {
        fill: #678b03;
      }

      .cls-16 {
        fill: #f2a883;
      }

      .cls-17 {
        fill: #fff8f8;
      }

      .cls-18 {
        fill: #ffce45;
      }

      .cls-19 {
        fill: #ffc3a9;
      }

      .cls-20 {
        fill: #ffc7ae;
      }

      .cls-21 {
        fill: #eaa510;
      }
    </style>
    <clipPath id="clippath">
      <path class="cls-2" d="M62.74,62.59l10.26-5.93v11.08s-10.27,5.93-10.27,5.93v-11.08ZM62.43,62.77l-10.81,6.24v11.08l10.8-6.24v-11.08ZM73.31,56.48v11.08s9.53-5.51,9.53-5.51v-11.08l-9.53,5.5Z"/>
    </clipPath>
    <clipPath id="clippath-1">
      <path class="cls-2" d="M29.19,67.64l-9.68-5.63v-11.04l9.68,5.62v11.04ZM29.5,67.82l10.26,5.96v-11.04s-10.27-5.96-10.27-5.96v11.04ZM40.07,62.93v11.04s10.44,6.06,10.44,6.06v-11.04l-10.44-6.07Z"/>
    </clipPath>
    <clipPath id="clippath-2">
      <path class="cls-2" d="M78.38,30.9v9.94l-6.03,13.39v-9.95s6.03-13.38,6.03-13.38ZM72.04,44.97l-4.11,9.12v9.94l4.1-9.11v-9.95Z"/>
    </clipPath>
    <clipPath id="clippath-3">
      <path class="cls-2" d="M38.87,50.46l13.77,2.06v11.3s-13.77-2.06-13.77-2.06v-11.3ZM52.95,52.57v11.3s13.78,2.06,13.78,2.06v-11.3l-13.78-2.07ZM23.92,48.22v11.31l14.63,2.19v-11.3s-14.63-2.19-14.63-2.19Z"/>
    </clipPath>
    <clipPath id="clippath-4">
      <path class="cls-2" d="M41.25,23.28l-13.73,3.09-4.93-7.91,13.73-3.09,4.93,7.91ZM41.44,23.61l-13.73,3.09,4.92,7.91,13.73-3.09-4.93-7.91ZM32.82,34.94l4.92,7.91,13.73-3.09-4.92-7.91-13.73,3.09ZM55.34,20.12l-4.93-7.91-13.73,3.09,4.93,7.91,13.73-3.09ZM41.79,23.54l4.93,7.91,13.73-3.09-4.93-7.91-13.73,3.09ZM46.91,31.78l4.93,7.91,13.73-3.09-4.93-7.91-13.73,3.09ZM69.37,16.99l-4.92-7.91-13.73,3.09,4.93,7.91,13.73-3.09ZM60.75,28.32l13.73-3.09-4.92-7.91-13.73,3.09,4.93,7.91ZM74.67,25.55l-13.73,3.09,4.92,7.91,13.73-3.09-4.92-7.91Z"/>
    </clipPath>
    <clipPath id="clippath-5">
      <path class="cls-2" d="M27.36,28.19l4.66,7.48v10.42s-4.66-7.48-4.66-7.48v-10.42ZM27.13,27.81l-4.79-7.7v10.43l4.79,7.69v-10.42ZM32.25,36.04v10.42s4.57,7.35,4.57,7.35v-10.42l-4.57-7.34Z"/>
    </clipPath>
    <clipPath id="clippath-6">
      <path class="cls-2" d="M52.04,51.69l-13.75,3.1.02-10.91,13.71-3.09.02,10.9ZM52.35,51.62l13.54-3.05-.02-10.9-13.54,3.05.02,10.9ZM66.18,37.6l.02,10.9,13.3-2.99.02-10.91-13.34,3Z"/>
    </clipPath>
  </defs>
  <g id="_0" data-name="0">
    <g id="_16" data-name="16">
      <g>
        <path class="cls-8" d="M65.42,7.1c.61-2.21,1.22-4.42,1.83-6.64.13-.47-.59-.66-.72-.2-.61,2.21-1.22,4.42-1.83,6.64-.13.47.59.66.72.2h0Z"/>
        <path class="cls-8" d="M64.35,7.17l-.23-3.79c-.03-.48-.78-.48-.75,0l.23,3.79c.03.48.78.48.75,0h0Z"/>
        <path class="cls-8" d="M66.07,8.04c.58-.4,1.16-.81,1.74-1.21.39-.27.02-.92-.38-.65-.58.4-1.16.81-1.74,1.21-.39.27-.02.92.38.65h0Z"/>
      </g>
      <g>
        <path class="cls-5" d="M9.5,22.6c3.37,16.29,18.85,33.68,34.58,38.84,15.73,5.16,25.77-3.86,22.4-20.15C63.11,25,47.61,7.6,31.88,2.44,16.15-2.71,6.13,6.31,9.5,22.6Z"/>
        <path class="cls-8" d="M52.43,63.05c-2.59,0-5.41-.49-8.4-1.47-15.75-5.17-31.31-22.64-34.68-38.95-1.65-7.96-.18-14.46,4.12-18.3C17.74.52,24.29-.2,31.93,2.3c15.76,5.17,31.33,22.64,34.7,38.96,1.64,7.95.18,14.45-4.12,18.29-2.6,2.32-6.05,3.5-10.08,3.5ZM9.64,22.57c3.35,16.22,18.82,33.59,34.48,38.72,7.53,2.47,13.99,1.77,18.19-1.97,4.22-3.77,5.65-10.16,4.02-18C62.98,25.1,47.5,7.73,31.83,2.59,24.3.12,17.85.82,13.66,4.56c-4.22,3.77-5.65,10.16-4.02,18.01h0Z"/>
      </g>
      <g>
        <g>
          <polygon class="cls-8" points="51.5 43.62 41.89 49.17 32.35 43.62 0 62.3 32.15 80.98 51.3 80.98 51.5 43.62"/>
          <g>
            <g id="Cube_face_-_right" data-name="Cube face - right">
              <g class="cls-28">
                <polygon class="cls-9" points="51.11 80.88 18.96 62.2 18.93 50.14 51.07 68.82 51.11 80.88"/>
                <polygon class="cls-9" points="51.07 68.82 18.93 50.14 51.27 31.46 83.42 50.14 51.07 68.82"/>
                <polygon class="cls-5" points="83.42 50.14 83.46 62.21 51.11 80.88 51.07 68.82 83.42 50.14"/>
              </g>
            </g>
            <g class="cls-1">
              <g>
                <polygon class="cls-18" points="83.27 62.39 51.06 80.96 51.06 37.38 83.27 18.81 83.27 62.39"/>
                <path class="cls-21" d="M83.27,54.51l-6.03,1.41c-6.42,1.5-13.28,6.16-19.41,11.5l-6.77,6.44v7.11l32.21-18.57v-7.88Z"/>
                <path class="cls-14" d="M59.85,68.27c0,2.87,3.24,3.32,7.24,1.01,4-2.31,7.24-6.5,7.24-9.36,0-1.23-.04-2.21-.09-3.07-4.8,1.77-9.73,5.02-14.34,8.82-.03.78-.06,1.62-.06,2.61Z"/>
                <g>
                  <path class="cls-9" d="M78.31,32.85c.94-2.7.13-5.32-1.8-5.85-1.93-.53-4.25,1.24-5.19,3.94-.94,2.7-.13,5.32,1.8,5.85s4.25-1.24,5.19-3.94Z"/>
                  <path class="cls-9" d="M55.43,46.04c-.94-1.62-.13-5.17,1.8-7.92,1.93-2.75,4.25-3.66,5.19-2.04.94,1.62.13,5.17-1.8,7.92-1.93,2.75-4.25,3.66-5.19,2.04Z"/>
                  <g>
                    <path class="cls-6" d="M61.52,59.75c0,1.97,0,4.38,0,6.53,0,4.58,11.19-1.64,11.19-6.28,0-2,0-7.67-.01-9.88l-11.18,9.63Z"/>
                    <g>
                      <path class="cls-14" d="M75.99,44.09c-.05-.64-.34-.85-.68-.78,0-.11.01-.23.01-.34,0-6.51-3.73-9.64-8.33-6.99-4.6,2.65-8.33,10.08-8.33,16.6,0,.1,0,.21.01.31-.41.27-.8.87-.86,1.68-.23,3.31,1.56,4.83,2.36,5.22,1.51,3.31,3.99,5.07,6.81,3.45,2.9-1.67,5.45-6.53,6.94-11.72.87-1.59,2.26-4.72,2.06-7.42Z"/>
                      <path class="cls-9" d="M58.35,53.12c.25-.31.74-.35.99-.35.44,0,.54.74.67,1.26.16.64-.15,2.44.37,2.03.53-.41.28-3.14.37-4.68.08-1.44,1.09-3.38,1.82-4.9,1.35-2.8,2.62-5.26,2.38-8.86.14.92.28,1.85.61,2.66.6,1.52,1.4,1.46,2.41,1.93,4.39,2.04,4.61,5.62,5.38,9.17,0,0,.28-6.1,1.5-7.57.38-.46,1.12-.25,1.12-.25,1.71-13.83-4.24-15.48-9.71-11.97-5.92,3.8-9.73,10.53-7.91,21.54Z"/>
                    </g>
                  </g>
                </g>
              </g>
            </g>
            <g>
              <polygon class="cls-4" points="29.18 56.6 19.51 50.98 19.51 62.02 29.19 67.64 29.18 56.6"/>
              <polygon class="cls-4" points="29.5 67.82 39.76 73.79 39.76 62.75 29.49 56.78 29.5 67.82"/>
              <polygon class="cls-4" points="40.07 62.93 40.07 73.97 50.51 80.03 50.51 68.99 40.07 62.93"/>
            </g>
            <g class="cls-22">
              <g>
                <g>
                  <polygon class="cls-4" points="50.61 80.41 19.45 62.16 19.45 19.34 50.61 37.59 50.61 80.41"/>
                  <path class="cls-7" d="M50.61,72.66l-5.84-5.45c-6.21-5.81-12.84-9-18.77-10.69l-6.55-1.35v6.99l31.16,18.25v-7.75Z"/>
                </g>
                <g>
                  <path class="cls-19" d="M27.93,59.68c0,2.86,3.18,7.03,7.11,9.33,3.92,2.3,7.11,1.85,7.11-1.01,0-1.23-.04-2.24-.09-3.16-5.24-4.27-10.05-6.66-14.07-7.69-.03.74-.06,1.55-.06,2.53Z"/>
                  <path class="cls-16" d="M29.64,49.47s.02,5.73.02,10.21,10.78,11.7,10.78,7.16-.02-12.51-.02-12.51l-10.78-4.86Z"/>
                  <g>
                    <path class="cls-19" d="M43.71,53.02c-.05-.68-.33-1.22-.66-1.53,0-.11.01-.22.01-.32,0-6.38-3.6-13.65-8.03-16.25-4.44-2.6-8.03.47-8.03,6.84,0,.1,0,.21.01.31-.4-.2-.77-.05-.82.68-.22,2.98,1.51,6.49,2.28,7.77,1.45,4.94,3.85,9.47,6.57,11.07,2.79,1.64,5.25-.24,6.69-3.64.84-.57,2.18-2.07,1.99-4.94Z"/>
                    <path class="cls-9" d="M41.74,52.69c1.03-1.43,1.89-1,1.47-7.8-.21-3.42.39-5.3-1.83-8.72-.89-1.37-2.64-1.51-2.64-1.51-1.12-2.11-2.7-3.03-4.19-3.98-9.14-5.8-8.68.98-8.39,7.8.05,1.18.18,2.31.34,3.58.27-.02,1.78,3.48,2.33,3.74.21.13-1.33-6.91-.78-7.92,1.86-3.39,6.85,2.47,10.06,2.06-.38,1.76,2.78,3.39,3.33,5.71.57,2.41-.34,7.93.29,7.04Z"/>
                  </g>
                </g>
              </g>
            </g>
            <g class="cls-28">
              <polygon class="cls-8" points="67.4 66.29 23.26 59.68 23.27 47.68 67.37 54.29 67.4 66.29"/>
              <polygon class="cls-9" points="67.37 54.29 23.27 47.68 34.92 21.8 79.02 28.42 67.37 54.29"/>
              <polygon class="cls-5" points="79.02 28.42 79.05 40.41 67.4 66.29 67.37 54.29 79.02 28.42"/>
            </g>
            <g>
              <polygon class="cls-4" points="72.36 44.28 72.35 54.23 78.38 40.84 78.38 30.9 72.36 44.28"/>
              <polygon class="cls-4" points="72.04 44.97 67.94 54.09 67.94 64.03 72.04 54.92 72.04 44.97"/>
            </g>
            <g class="cls-25">
              <g>
                <g>
                  <polygon class="cls-4" points="78.77 48.64 67.77 84.36 67.77 41.54 78.77 5.82 78.77 48.64"/>
                  <path class="cls-4" d="M78.77,40.89l-2.06,4.66c-2.2,4.96-4.54,13.25-6.63,21.83l-2.31,10v6.99l11.01-35.72v-7.75Z"/>
                </g>
                <g>
                  <path class="cls-19" d="M70.76,67.19c0,2.86,1.12,1.52,2.51-2.98,1.39-4.5,2.51-10.46,2.51-13.32,0-1.23-.01-2.18-.03-3.01-1.85,4.81-3.55,10.74-4.97,16.68-.01.8-.02,1.65-.02,2.63Z"/>
                  <path class="cls-16" d="M71.36,54.03s0,5.7,0,10.18,3.81-6.97,3.81-11.52,0-12.47,0-12.47l-3.81,13.8Z"/>
                  <g>
                    <path class="cls-19" d="M76.33,33.2c-.02-.6-.12-.65-.23-.39,0-.11,0-.23,0-.34,0-6.38-1.27-7.43-2.84-2.34-1.57,5.08-2.84,14.38-2.84,20.75,0,.1,0,.2,0,.3-.14.49-.27,1.29-.29,2.11-.08,3.36.53,3.88.8,3.83.51,2.43,1.36,2.8,2.32-.31.99-3.2,1.86-9.34,2.36-15.23.3-2.03.77-5.84.7-8.38Z"/>
                    <path class="cls-9" d="M75.64,36.28c.36-3.21.67-4.27.52-10.36-.07-3.06.14-5.97-.65-5.55-.31.17-.93,3.06-.93,3.06-.39-.17-.95,1.64-1.48,3.28-3.23,10.02-3.07,16.01-2.96,22.32.02,1.09.06,2,.12,2.99.09-.48.63.39.82-.3.08-.24-.47-4.6-.28-6.56.66-6.6,2.42-9.4,3.56-15.37-.13,2.41.98-1.43,1.18-.05.2,1.43-.12,8.52.1,6.53Z"/>
                  </g>
                </g>
              </g>
            </g>
            <g>
              <polygon class="cls-12" points="38.86 61.76 52.63 63.82 52.64 52.52 38.87 50.46 38.86 61.76"/>
              <polygon class="cls-12" points="52.95 52.57 52.94 63.87 66.72 65.93 66.72 54.63 52.95 52.57"/>
              <polygon class="cls-12" points="23.92 48.22 23.92 59.52 38.55 61.71 38.56 50.41 23.92 48.22"/>
            </g>
            <g class="cls-24">
              <g>
                <polygon class="cls-12" points="67.02 81.74 23.59 74.84 23.59 31.25 67.02 38.16 67.02 81.74"/>
                <path class="cls-17" d="M67.02,73.86l-8.13-3.37c-8.66-3.58-17.9-4.35-26.16-3.85l-9.13,1.08v7.11l43.42,6.91v-7.88Z"/>
                <path class="cls-14" d="M35.45,69.09c0,2.87,4.37,5.88,9.77,6.74,5.39.86,9.77-.77,9.77-3.64,0-1.23-.05-2.24-.12-3.14-6.47-2.02-13.12-2.67-19.33-2.53-.05.75-.08,1.58-.08,2.56Z"/>
                <g>
                  <path class="cls-9" d="M60.34,48.28c1.26-1.96.17-5.22-2.43-7.27-2.6-2.05-5.73-2.13-6.99-.16-1.26,1.96-.17,5.22,2.43,7.27,2.6,2.05,5.73,2.13,6.99.16Z"/>
                  <path class="cls-9" d="M29.49,43.38c-1.26-2.36-.17-5.27,2.43-6.5s5.73-.3,6.99,2.06c1.26,2.36.17,5.27-2.43,6.5-2.6,1.22-5.73.3-6.99-2.06Z"/>
                  <g>
                    <path class="cls-6" d="M37.7,61.9c0,1.98.01,4.38.01,6.54,0,4.58,15.08,7.21,15.08,2.56,0-2,0-7.67-.01-9.88l-15.08.78Z"/>
                    <g>
                      <path class="cls-10" d="M57.21,57.68c-.06-.68-.46-1.12-.92-1.31,0-.11.02-.22.02-.33,0-6.51-5.03-12.59-11.23-13.58-6.2-.99-11.23,3.49-11.23,10.01,0,.1.01.21.01.32-.55-.05-1.08.24-1.15,1.01-.31,3.13,2.11,6.06,3.18,7.08,2.03,4.5,5.39,8.23,9.19,8.84,3.91.62,7.34-2.22,9.36-6.23,1.18-.9,3.05-2.93,2.78-5.79Z"/>
                      <path class="cls-9" d="M33.42,52.76c.34-.11,1,.24,1.33.44.6.35.72,1.17.9,1.79.22.77-.2,2.32.5,2.32.71,0,.38-2.92.5-4.39.11-1.38,1.47-2.52,2.46-3.46,1.83-1.73,3.53-3.19,3.2-6.98.19,1.03.38,2.08.82,3.14.81,2,1.88,2.57,3.25,3.84,5.92,5.51,6.21,9.26,7.25,13.42,0,0,.38-5.87,2.02-6.39.51-.16,1.52.64,1.52.64,2.31-12.47-5.71-18.83-13.08-19.65-7.99-.89-13.12,2.84-10.66,15.28Z"/>
                    </g>
                  </g>
                </g>
              </g>
            </g>
            <g id="Cube_face_-_right-2" data-name="Cube face - right">
              <g class="cls-28">
                <polygon class="cls-9" points="37.5 55.32 21.86 30.2 21.87 18.25 37.5 43.36 37.5 55.32"/>
                <polygon class="cls-3" points="37.5 43.36 21.87 18.25 64.7 8.61 80.33 33.72 37.5 43.36"/>
                <polygon class="cls-8" points="80.33 33.72 80.33 45.67 37.5 55.32 37.5 43.36 80.33 33.72"/>
              </g>
            </g>
            <g>
              <polygon class="cls-11" points="36.32 15.37 22.59 18.47 27.51 26.38 41.25 23.28 36.32 15.37"/>
              <polygon class="cls-11" points="41.44 23.61 27.7 26.7 32.63 34.61 46.36 31.52 41.44 23.61"/>
              <polygon class="cls-11" points="32.82 34.94 37.74 42.85 51.48 39.76 46.55 31.85 32.82 34.94"/>
              <polygon class="cls-11" points="55.34 20.12 50.41 12.21 36.68 15.31 41.6 23.22 55.34 20.12"/>
              <polygon class="cls-11" points="41.79 23.54 46.72 31.45 60.45 28.36 55.53 20.45 41.79 23.54"/>
              <polygon class="cls-11" points="46.91 31.78 51.83 39.69 65.57 36.6 60.64 28.69 46.91 31.78"/>
              <polygon class="cls-11" points="69.37 16.99 64.44 9.08 50.71 12.17 55.63 20.08 69.37 16.99"/>
              <polygon class="cls-11" points="60.75 28.32 74.48 25.22 69.56 17.31 55.82 20.41 60.75 28.32"/>
              <polygon class="cls-11" points="74.67 25.55 60.94 28.64 65.86 36.55 79.6 33.46 74.67 25.55"/>
            </g>
            <g>
              <polygon class="cls-18" points="52.02 40.79 38.31 43.87 38.29 54.79 52.04 51.69 52.02 40.79"/>
              <polygon class="cls-18" points="52.35 51.62 65.89 48.57 65.87 37.67 52.33 40.72 52.35 51.62"/>
              <polygon class="cls-18" points="66.18 37.6 66.2 48.5 79.5 45.51 79.52 34.59 66.18 37.6"/>
            </g>
            <g>
              <polygon class="cls-4" points="27.36 38.61 32.01 46.08 32.02 35.67 27.36 28.19 27.36 38.61"/>
              <polygon class="cls-4" points="27.13 27.81 22.34 20.12 22.34 30.54 27.12 38.23 27.13 27.81"/>
              <polygon class="cls-4" points="32.25 36.04 32.25 46.46 36.82 53.81 36.82 43.38 32.25 36.04"/>
            </g>
          </g>
        </g>
        <g class="cls-23">
          <g>
            <polygon class="cls-11" points="82.63 34.21 38.94 44.69 20.32 18.8 64.01 8.32 82.63 34.21"/>
            <path class="cls-9" d="M62.36,25.11c-.35-.49-.27-1.17-1.08-1.53-.69-.31-1.73-.05-2.51.21-4.46,1.47-1.66.66-5.8,1.25-2.59.37-13.81,2.38-13.23,3.82.13.34.55.6.92.88,3.48,2.64,1.08,4.6,5.33,8.52,1.85,1.7,10.84-.72,14-1.73,1.21-.39,2.34-.96,3.57-1.3,1.17-.33,2.43-.36,3.55-.82,5.78-2.36-2.54-6.15-4.75-9.29Z"/>
            <path class="cls-15" d="M79.26,29.53l-9.07.73c-9.66.78-18.65,3.43-26.19,6.5l-8.1,3.71,3.04,4.22,43.69-10.48-3.37-4.68Z"/>
            <g>
              <path class="cls-20" d="M47.6,37.3c1.22,1.7,6.62,2.03,12.04.73,5.43-1.3,8.83-3.74,7.61-5.44-.53-.73-1-1.31-1.45-1.83-6.93.97-13.45,2.82-19.22,4.99.28.46.6.96,1.02,1.55Z"/>
              <path class="cls-16" d="M46.65,32.1c.83,1.15,1.85,2.55,2.75,3.81,1.92,2.67,16.93-.77,14.98-3.48-.84-1.17-2.95-3.76-3.89-5.05l-13.84,4.72Z"/>
            </g>
            <g>
              <path class="cls-20" d="M61.52,22.96c-.33-.36-.86-.49-1.35-.45-.04-.06-.08-.13-.12-.19-2.64-3.67-9.58-5.5-15.5-4.08-5.92,1.42-8.58,5.55-5.94,9.22.04.06.1.12.14.17-.52.15-.86.48-.62.93,1,1.86,4.33,2.75,5.7,2.98,3.63,1.89,8.13,2.92,11.76,2.05,3.73-.89,5.64-3.59,5.8-6.49.68-.88,1.53-2.62.12-4.15Z"/>
              <path class="cls-9" d="M57.63,16.8c-1.3-.89-2.79-1.69-4.59-2.27-5.3-1.69-11.11.04-14.73,1.54-1.57.65-4.15,1.44-4.85,4.01-.42,1.55.15,3.12,1.31,4.52,1.3,1.59,2.93,3.16,3.39,3.39.23-.17.35-.28.75-.28.71,0,1.28.4,1.78.68.62.34,1.12,1.31,1.73,1.1.61-.22-1.3-1.69-2.02-2.52-.68-.78-.14-1.82.2-2.64.44-1.07,1.62-3.15,5.89-3.42,2.56-1.11,6.52-.52,8.14.06,1.24.44,2.9.96,3.38,1.78.51.88.96,2.7,1.67,2.61.7-.09-.14-.99-.12-1.48.01-.4-.08-.92.42-1.21.28-.16.5-.13.87-.11.06-.5-.75-4.06-3.21-5.75Z"/>
            </g>
          </g>
        </g>
        <g class="cls-27">
          <g>
            <g>
              <polygon class="cls-4" points="37.07 85.98 22.29 62.23 22.29 19.41 37.07 43.16 37.07 85.98"/>
              <path class="cls-4" d="M37.07,78.23l-2.77-6.48c-2.95-6.9-6.09-11.26-8.9-14l-3.11-2.5v6.99l14.78,23.75v-7.75Z"/>
            </g>
            <g>
              <path class="cls-19" d="M26.31,61.24c0,2.86,1.51,7.6,3.37,10.59,1.86,2.99,3.37,3.1,3.37.25,0-1.23-.02-2.25-.04-3.18-2.49-5.2-4.76-8.43-6.67-10.18-.02.73-.03,1.54-.03,2.52Z"/>
              <path class="cls-16" d="M27.12,51.33s0,5.74,0,10.22,5.11,13.61,5.11,9.06-.01-12.52-.01-12.52l-5.11-6.76Z"/>
              <g>
                <path class="cls-19" d="M33.79,57.37c-.02-.69-.16-1.28-.31-1.64,0-.11,0-.21,0-.32,0-6.38-1.71-14.29-3.81-17.67-2.1-3.38-3.81-.95-3.81,5.43,0,.1,0,.21,0,.32-.19-.27-.37-.18-.39.54-.1,2.95.71,6.76,1.08,8.18.69,5.2,1.83,10.16,3.12,12.23,1.32,2.13,2.49.69,3.17-2.46.4-.42,1.03-1.68.94-4.59Z"/>
                <path class="cls-9" d="M32.86,56.69c.49-1.25.89-.67.7-7.54-.1-3.46.18-5.23-.87-9.04-.42-1.52-1.25-1.98-1.25-1.98-.53-2.3-1.28-3.5-1.99-4.72-4.33-7.42-4.12-.56-3.98,6.31.02,1.19.08,2.34.16,3.64.13.02.84,3.79,1.11,4.15.1.16-.63-7.15-.37-8.06.88-3.06,3.25,3.68,4.77,3.84-.18,1.69,1.32,3.88,1.58,6.3.27,2.51-.16,7.87.14,7.09Z"/>
              </g>
            </g>
          </g>
        </g>
        <g class="cls-26">
          <g>
            <polygon class="cls-18" points="79.78 77.92 37.91 87.21 37.91 43.63 79.78 34.34 79.78 77.92"/>
            <path class="cls-17" d="M79.78,70.04l-7.84-.33c-8.35-.35-17.26,2.33-25.22,5.91l-8.8,4.49v7.11l41.87-9.29v-7.88Z"/>
            <path class="cls-14" d="M49.34,77.05c0,2.87,4.22,4.25,9.42,3.1,5.2-1.15,9.42-4.41,9.42-7.28,0-1.23-.05-2.22-.11-3.1-6.24.39-12.65,2.22-18.64,4.68-.05.77-.08,1.61-.08,2.59Z"/>
            <g>
              <path class="cls-9" d="M73.33,46.95c1.22-2.43.17-5.28-2.34-6.36-2.51-1.08-5.53.01-6.74,2.45-1.22,2.43-.17,5.28,2.34,6.36,2.51,1.08,5.53-.01,6.74-2.45Z"/>
              <path class="cls-9" d="M43.59,53.55c-1.22-1.89-.17-5.21,2.34-7.4,2.51-2.2,5.53-2.44,6.74-.55,1.22,1.89.17,5.21-2.34,7.4-2.51,2.2-5.53,2.44-6.74.55Z"/>
              <g>
                <path class="cls-6" d="M51.5,69.01c0,1.97.01,4.38.01,6.53,0,4.58,14.54,1.58,14.54-3.06,0-2,0-7.67-.01-9.88l-14.54,6.41Z"/>
                <g>
                  <path class="cls-14" d="M70.32,57.52c-.06-.65-.44-.95-.88-.97,0-.11.01-.23.01-.34,0-6.51-4.85-10.72-10.83-9.39-5.98,1.33-10.83,7.68-10.83,14.2,0,.1.01.21.01.31-.53.15-1.04.64-1.11,1.44-.29,3.24,2.03,5.28,3.07,5.9,1.96,3.74,5.19,6.22,8.86,5.41,3.77-.84,7.08-4.96,9.02-9.72,1.14-1.34,2.94-4.07,2.68-6.83Z"/>
                  <path class="cls-9" d="M47.38,61.47c.33-.24.96-.14,1.28-.06.58.13.7.9.87,1.45.21.68-.2,2.4.48,2.14.68-.26.37-3.06.48-4.57.1-1.42,1.41-3.07,2.37-4.38,1.76-2.41,3.41-4.5,3.09-8.18.18.96.37,1.93.79,2.84.78,1.7,1.82,1.86,3.13,2.63,5.71,3.31,5.99,6.95,6.99,10.72,0,0,.37-6.01,1.95-7.14.49-.35,1.46.07,1.46.07,2.23-13.34-5.51-16.7-12.62-14.77-7.7,2.09-12.65,7.73-10.28,19.26Z"/>
                </g>
              </g>
            </g>
          </g>
        </g>
      </g>
      <path class="cls-18" d="M36.16,3.56c-.3.87-1.06,1.61-1.69,1.66-.63.05-.9-.62-.59-1.49s1.06-1.61,1.69-1.66c.63-.05.9.62.59,1.49Z"/>
      <path class="cls-13" d="M85,17.49c-.82,2.35-2.88,4.36-4.59,4.48-1.71.12-2.43-1.68-1.61-4.03.82-2.35,2.88-4.36,4.59-4.48s2.43,1.68,1.61,4.03Z"/>
      <g>
        <path class="cls-5" d="M10.07,20.57c-1.57.91-2.84,3.11-2.84,4.92,0,1.81,1.28,2.54,2.86,1.63,1.57-.91,2.84-3.11,2.84-4.92,0-1.81-1.28-2.54-2.86-1.63Z"/>
        <path class="cls-8" d="M8.82,27.67c-.3,0-.57-.07-.82-.21-.59-.34-.91-1.03-.91-1.96,0-1.85,1.3-4.12,2.91-5.05.81-.47,1.59-.54,2.17-.2.59.34.91,1.03.91,1.96,0,1.85-1.3,4.12-2.91,5.05-.47.27-.93.41-1.35.41ZM10.15,20.7c-1.53.88-2.77,3.03-2.76,4.79,0,.82.27,1.42.76,1.7.49.28,1.16.21,1.87-.2,1.53-.88,2.77-3.03,2.77-4.79,0-.82-.27-1.42-.76-1.7-.49-.28-1.16-.21-1.87.2h0Z"/>
      </g>
    </g>
  </g>
</svg>