<?xml version="1.0" encoding="UTF-8"?>
<svg id="Capa_2" data-name="Capa 2" xmlns="http://www.w3.org/2000/svg" viewBox="0 0 281.23 281.23">
  <defs>
    <style>
      .cls-1 {
        fill: #152a38;
      }

      .cls-1, .cls-2 {
        stroke-width: 0px;
      }

      .cls-2 {
        fill: #fff;
      }
    </style>
  </defs>
  <g id="items">
    <circle class="cls-1" cx="140.62" cy="140.62" r="140.62"/>
    <g>
      <path class="cls-2" d="m140.62,68.03c23.64,0,26.44.09,35.78.52,8.63.39,13.32,1.84,16.44,3.05,4.13,1.61,7.08,3.52,10.18,6.62,3.1,3.1,5.02,6.05,6.62,10.18,1.21,3.12,2.65,7.81,3.05,16.44.43,9.34.52,12.14.52,35.78s-.09,26.44-.52,35.78c-.39,8.63-1.84,13.32-3.05,16.44-1.61,4.13-3.52,7.08-6.62,10.18-3.1,3.1-6.05,5.02-10.18,6.62-3.12,1.21-7.81,2.65-16.44,3.05-9.33.43-12.13.52-35.78.52s-26.44-.09-35.78-.52c-8.63-.39-13.32-1.84-16.44-3.05-4.13-1.61-7.08-3.52-10.18-6.62-3.1-3.1-5.02-6.05-6.62-10.18-1.21-3.12-2.65-7.81-3.05-16.44-.43-9.34-.52-12.14-.52-35.78s.09-26.44.52-35.78c.39-8.63,1.84-13.32,3.05-16.44,1.61-4.13,3.52-7.08,6.62-10.18,3.1-3.1,6.05-5.02,10.18-6.62,3.12-1.21,7.81-2.65,16.44-3.05,9.34-.43,12.14-.52,35.78-.52m0-15.95c-24.05,0-27.06.1-36.5.53-9.42.43-15.86,1.93-21.49,4.12-5.82,2.26-10.76,5.29-15.68,10.21-4.92,4.92-7.95,9.86-10.21,15.68-2.19,5.63-3.69,12.07-4.12,21.49-.43,9.44-.53,12.46-.53,36.5s.1,27.06.53,36.5c.43,9.42,1.93,15.86,4.12,21.49,2.26,5.82,5.29,10.76,10.21,15.68,4.92,4.92,9.86,7.95,15.68,10.21,5.63,2.19,12.07,3.69,21.49,4.12,9.44.43,12.46.53,36.5.53s27.06-.1,36.5-.53c9.42-.43,15.86-1.93,21.49-4.12,5.82-2.26,10.76-5.29,15.68-10.21,4.92-4.92,7.95-9.86,10.21-15.68,2.19-5.63,3.69-12.07,4.12-21.49.43-9.44.53-12.46.53-36.5s-.1-27.06-.53-36.5c-.43-9.42-1.93-15.86-4.12-21.49-2.26-5.82-5.29-10.76-10.21-15.68-4.92-4.92-9.86-7.95-15.68-10.21-5.63-2.19-12.07-3.69-21.49-4.12-9.44-.43-12.46-.53-36.5-.53h0Z"/>
      <path class="cls-2" d="m140.62,95.15c-25.11,0-45.46,20.36-45.46,45.46s20.36,45.46,45.46,45.46,45.46-20.36,45.46-45.46-20.36-45.46-45.46-45.46Zm0,74.98c-16.3,0-29.51-13.21-29.51-29.51s13.21-29.51,29.51-29.51,29.51,13.21,29.51,29.51-13.21,29.51-29.51,29.51Z"/>
      <circle class="cls-2" cx="187.88" cy="93.36" r="10.62"/>
    </g>
  </g>
</svg>