<?xml version="1.0" encoding="UTF-8"?>
<svg xmlns="http://www.w3.org/2000/svg" xmlns:xlink="http://www.w3.org/1999/xlink" viewBox="0 0 290.52 395.96">
  <defs>
    <style>
      .cls-1 {
        fill: url(#linear-gradient-28);
      }

      .cls-1, .cls-2, .cls-3, .cls-4, .cls-5 {
        mix-blend-mode: overlay;
      }

      .cls-1, .cls-2, .cls-6, .cls-7, .cls-8, .cls-9, .cls-10, .cls-11, .cls-12, .cls-13, .cls-14, .cls-15, .cls-16, .cls-17, .cls-18, .cls-19, .cls-20, .cls-21, .cls-22, .cls-23, .cls-24, .cls-25, .cls-26, .cls-27, .cls-28, .cls-29, .cls-30, .cls-31, .cls-32, .cls-33, .cls-34, .cls-35, .cls-36, .cls-37, .cls-38, .cls-39, .cls-40, .cls-41, .cls-42, .cls-43, .cls-44, .cls-45, .cls-46, .cls-47, .cls-48, .cls-49, .cls-50, .cls-51, .cls-52, .cls-53, .cls-54, .cls-55, .cls-56, .cls-57, .cls-58, .cls-5, .cls-59, .cls-60, .cls-61, .cls-62, .cls-63, .cls-64, .cls-65, .cls-66, .cls-67, .cls-68, .cls-69, .cls-70, .cls-71, .cls-72, .cls-73 {
        stroke-width: 0px;
      }

      .cls-1, .cls-2, .cls-59 {
        opacity: .57;
      }

      .cls-2 {
        fill: url(#linear-gradient-52);
      }

      .cls-3 {
        opacity: .35;
      }

      .cls-6 {
        fill: url(#linear-gradient);
      }

      .cls-7 {
        fill: url(#radial-gradient);
      }

      .cls-8 {
        fill: #45b1d5;
        mix-blend-mode: multiply;
        opacity: .18;
      }

      .cls-9 {
        fill: url(#linear-gradient-38);
      }

      .cls-10 {
        fill: url(#linear-gradient-33);
      }

      .cls-11 {
        fill: url(#linear-gradient-29);
      }

      .cls-12 {
        fill: url(#linear-gradient-32);
      }

      .cls-13 {
        fill: url(#linear-gradient-30);
      }

      .cls-14 {
        fill: url(#linear-gradient-31);
      }

      .cls-15 {
        fill: url(#linear-gradient-36);
      }

      .cls-16 {
        fill: url(#linear-gradient-39);
      }

      .cls-17 {
        fill: url(#linear-gradient-34);
      }

      .cls-18 {
        fill: url(#linear-gradient-37);
      }

      .cls-19 {
        fill: url(#linear-gradient-35);
      }

      .cls-20 {
        fill: url(#linear-gradient-11);
      }

      .cls-21 {
        fill: url(#linear-gradient-12);
      }

      .cls-22 {
        fill: url(#linear-gradient-13);
      }

      .cls-23 {
        fill: url(#linear-gradient-10);
      }

      .cls-24 {
        fill: url(#linear-gradient-17);
      }

      .cls-25 {
        fill: url(#linear-gradient-16);
      }

      .cls-26 {
        fill: url(#linear-gradient-19);
      }

      .cls-27 {
        fill: url(#linear-gradient-15);
      }

      .cls-28 {
        fill: url(#linear-gradient-21);
      }

      .cls-29 {
        fill: url(#linear-gradient-18);
      }

      .cls-30 {
        fill: url(#linear-gradient-14);
      }

      .cls-31 {
        fill: url(#linear-gradient-20);
      }

      .cls-32 {
        fill: url(#linear-gradient-27);
      }

      .cls-33 {
        fill: url(#linear-gradient-26);
      }

      .cls-34 {
        fill: url(#linear-gradient-45);
      }

      .cls-35 {
        fill: url(#linear-gradient-46);
      }

      .cls-36 {
        fill: url(#linear-gradient-44);
      }

      .cls-37 {
        fill: url(#linear-gradient-48);
      }

      .cls-38 {
        fill: url(#linear-gradient-49);
      }

      .cls-39 {
        fill: url(#linear-gradient-47);
      }

      .cls-40 {
        fill: url(#linear-gradient-42);
      }

      .cls-41 {
        fill: url(#linear-gradient-43);
      }

      .cls-42 {
        fill: url(#linear-gradient-40);
      }

      .cls-43 {
        fill: url(#linear-gradient-41);
      }

      .cls-44 {
        fill: url(#linear-gradient-51);
      }

      .cls-45 {
        fill: url(#linear-gradient-50);
      }

      .cls-46 {
        opacity: .38;
      }

      .cls-46, .cls-71 {
        fill: #e3eaff;
      }

      .cls-74 {
        mix-blend-mode: hard-light;
      }

      .cls-47 {
        fill: url(#linear-gradient-25);
      }

      .cls-47, .cls-48, .cls-49, .cls-50, .cls-75 {
        mix-blend-mode: screen;
      }

      .cls-48 {
        fill: url(#linear-gradient-24);
      }

      .cls-49 {
        fill: url(#linear-gradient-23);
      }

      .cls-50 {
        fill: url(#linear-gradient-22);
      }

      .cls-76 {
        opacity: .69;
      }

      .cls-77 {
        opacity: .53;
      }

      .cls-51 {
        fill: url(#linear-gradient-4);
      }

      .cls-52 {
        fill: url(#linear-gradient-2);
      }

      .cls-53 {
        fill: url(#linear-gradient-3);
      }

      .cls-54 {
        fill: url(#linear-gradient-8);
      }

      .cls-55 {
        fill: url(#linear-gradient-9);
      }

      .cls-56 {
        fill: url(#linear-gradient-7);
      }

      .cls-57 {
        fill: url(#linear-gradient-5);
      }

      .cls-58 {
        fill: url(#linear-gradient-6);
      }

      .cls-5 {
        opacity: .43;
      }

      .cls-5, .cls-70 {
        fill: #fff;
      }

      .cls-78 {
        isolation: isolate;
      }

      .cls-59 {
        fill: #eb6264;
      }

      .cls-60 {
        fill: #f2f8fd;
      }

      .cls-61 {
        fill: #faa993;
      }

      .cls-62 {
        fill: #f9fbfc;
      }

      .cls-63 {
        fill: #282a57;
      }

      .cls-64 {
        fill: #3bc9ff;
      }

      .cls-65 {
        fill: #1ae5ff;
      }

      .cls-66 {
        fill: #d1d6e4;
      }

      .cls-67 {
        fill: #d7dbd9;
      }

      .cls-68 {
        fill: #ff7723;
      }

      .cls-69 {
        fill: #f1f0f5;
      }

      .cls-72 {
        fill: #ff9a34;
      }

      .cls-73 {
        fill: #eb6e7a;
      }
    </style>
    <radialGradient id="radial-gradient" cx="160.2" cy="228.14" fx="160.2" fy="228.14" r="20.73" gradientTransform="translate(351.67 -31.78) rotate(71.29)" gradientUnits="userSpaceOnUse">
      <stop offset="0" stop-color="#ffec41"/>
      <stop offset=".2" stop-color="#ffb44e"/>
      <stop offset=".49" stop-color="#ff6760"/>
      <stop offset=".73" stop-color="#ff2f6d"/>
      <stop offset=".9" stop-color="#ff0d75"/>
      <stop offset="1" stop-color="#ff0079"/>
    </radialGradient>
    <linearGradient id="linear-gradient" x1="176.18" y1="204.69" x2="98.56" y2="474.69" gradientUnits="userSpaceOnUse">
      <stop offset="0" stop-color="#5155d4"/>
      <stop offset="1" stop-color="#45f7ff"/>
    </linearGradient>
    <linearGradient id="linear-gradient-2" x1="170.17" y1="392.29" x2="170.17" y2="261.15" gradientUnits="userSpaceOnUse">
      <stop offset="0" stop-color="#1ae5ff"/>
      <stop offset=".26" stop-color="#63e8f8"/>
      <stop offset=".7" stop-color="#eaeeee"/>
    </linearGradient>
    <linearGradient id="linear-gradient-3" x1="54.8" y1="308.36" x2="182.53" y2="373.82" xlink:href="#linear-gradient-2"/>
    <linearGradient id="linear-gradient-4" x1="155.18" y1="230.78" x2="118.31" y2="359.03" xlink:href="#linear-gradient"/>
    <linearGradient id="linear-gradient-5" y1="328.56" y2="235.78" xlink:href="#linear-gradient-2"/>
    <linearGradient id="linear-gradient-6" x1="59.72" y1="264.55" x2="174.28" y2="323.26" xlink:href="#linear-gradient-2"/>
    <linearGradient id="linear-gradient-7" x1="155.18" y1="194.98" x2="118.31" y2="323.23" xlink:href="#linear-gradient"/>
    <linearGradient id="linear-gradient-8" x1="86.63" y1="321.79" x2="78.01" y2="353.05" gradientUnits="userSpaceOnUse">
      <stop offset="0" stop-color="#ffe900"/>
      <stop offset="1" stop-color="#ff13bd"/>
    </linearGradient>
    <linearGradient id="linear-gradient-9" x1="84.89" y1="335" x2="99.72" y2="326.11" xlink:href="#linear-gradient-8"/>
    <linearGradient id="linear-gradient-10" x1="84.69" y1="343.03" x2="101.25" y2="343.03" xlink:href="#linear-gradient-8"/>
    <linearGradient id="linear-gradient-11" x1="100.64" y1="323.54" x2="91.74" y2="361.28" xlink:href="#linear-gradient-8"/>
    <linearGradient id="linear-gradient-12" x1="96.78" y1="344.58" x2="113.76" y2="332.99" xlink:href="#linear-gradient-8"/>
    <linearGradient id="linear-gradient-13" x1="98.1" y1="351.27" x2="114.67" y2="351.27" xlink:href="#linear-gradient-8"/>
    <linearGradient id="linear-gradient-14" x1="200.22" y1="339.4" x2="203.45" y2="360.42" gradientTransform="translate(399.08) rotate(-180) scale(1 -1)" xlink:href="#linear-gradient-8"/>
    <linearGradient id="linear-gradient-15" x1="205.82" y1="335" x2="220.64" y2="326.11" gradientTransform="translate(399.08) rotate(-180) scale(1 -1)" xlink:href="#linear-gradient-8"/>
    <linearGradient id="linear-gradient-16" x1="217.05" y1="318.24" x2="212.74" y2="347.88" gradientTransform="translate(399.08) rotate(-180) scale(1 -1)" xlink:href="#linear-gradient-8"/>
    <linearGradient id="linear-gradient-17" x1="211.1" y1="349.39" x2="224.85" y2="365.56" gradientTransform="translate(399.08) rotate(-180) scale(1 -1)" xlink:href="#linear-gradient-8"/>
    <linearGradient id="linear-gradient-18" x1="217.7" y1="344.58" x2="234.68" y2="332.99" gradientTransform="translate(399.08) rotate(-180) scale(1 -1)" xlink:href="#linear-gradient-8"/>
    <linearGradient id="linear-gradient-19" x1="228.89" y1="328.08" x2="225.93" y2="365.81" gradientTransform="translate(399.08) rotate(-180) scale(1 -1)" xlink:href="#linear-gradient-8"/>
    <linearGradient id="linear-gradient-20" x1="161.79" y1="266.43" x2="161.79" y2="115.33" gradientUnits="userSpaceOnUse">
      <stop offset="0" stop-color="#00cfff"/>
      <stop offset=".1" stop-color="#06bbe7" stop-opacity=".88"/>
      <stop offset=".44" stop-color="#1b7d9c" stop-opacity=".51"/>
      <stop offset=".71" stop-color="#2b4f65" stop-opacity=".23"/>
      <stop offset=".9" stop-color="#353243" stop-opacity=".06"/>
      <stop offset="1" stop-color="#392836" stop-opacity="0"/>
    </linearGradient>
    <linearGradient id="linear-gradient-21" x1="108.82" y1="282.08" x2="108.82" y2="115.06" xlink:href="#linear-gradient-20"/>
    <linearGradient id="linear-gradient-22" x1="29.55" y1="279.16" x2="56.26" y2="181.37" gradientTransform="translate(17.99 -20.54)" gradientUnits="userSpaceOnUse">
      <stop offset="0" stop-color="#000"/>
      <stop offset=".08" stop-color="#000707"/>
      <stop offset=".21" stop-color="#031a1d"/>
      <stop offset=".36" stop-color="#063a41"/>
      <stop offset=".53" stop-color="#0b6672"/>
      <stop offset=".73" stop-color="#129fb2"/>
      <stop offset=".94" stop-color="#19e4fd"/>
      <stop offset=".94" stop-color="#1ae5ff"/>
    </linearGradient>
    <linearGradient id="linear-gradient-23" x1="42.47" y1="224.99" x2="50.89" y2="194.19" gradientTransform="translate(-53.98 11.72) rotate(-21.4)" xlink:href="#linear-gradient-22"/>
    <linearGradient id="linear-gradient-24" x1="63.47" y1="158.54" x2="79.43" y2="100.12" gradientTransform="translate(21.75 70.51)" xlink:href="#linear-gradient-22"/>
    <linearGradient id="linear-gradient-25" x1="71.19" y1="126.18" x2="76.22" y2="107.77" gradientTransform="translate(66.39 51.53) rotate(20.3)" xlink:href="#linear-gradient-22"/>
    <linearGradient id="linear-gradient-26" x1="-54.8" y1="541.22" x2="-50.02" y2="629.13" gradientTransform="translate(-301.43 -170.62) rotate(125.13) scale(1 -1)" gradientUnits="userSpaceOnUse">
      <stop offset="0" stop-color="#0cf"/>
      <stop offset="1" stop-color="#6b40ea"/>
    </linearGradient>
    <linearGradient id="linear-gradient-27" x1="-22.7" y1="567.65" x2="-127.32" y2="560.44" gradientTransform="translate(137.14 -456.57) rotate(180) scale(1 -1)" xlink:href="#linear-gradient-2"/>
    <linearGradient id="linear-gradient-28" x1="-316.43" y1="-112.25" x2="-283.07" y2="55.92" gradientTransform="translate(-48.27 -6) rotate(-166.37) scale(1 -1)" gradientUnits="userSpaceOnUse">
      <stop offset="0" stop-color="#282a57" stop-opacity="0"/>
      <stop offset=".38" stop-color="#787995" stop-opacity=".37"/>
      <stop offset="1" stop-color="#fff"/>
    </linearGradient>
    <linearGradient id="linear-gradient-29" x1="163.4" y1="129.05" x2="156.53" y2="175.06" gradientUnits="userSpaceOnUse">
      <stop offset="0" stop-color="#bdf7a3"/>
      <stop offset="1" stop-color="#009ee0"/>
    </linearGradient>
    <linearGradient id="linear-gradient-30" x1="154.78" y1="-63.24" x2="176.49" y2="-12.59" gradientTransform="translate(-61.53 153.3)" gradientUnits="userSpaceOnUse">
      <stop offset="0" stop-color="#fbb03b"/>
      <stop offset=".7" stop-color="#fb8e31"/>
    </linearGradient>
    <linearGradient id="linear-gradient-31" x1="157.23" y1="-53.23" x2="178.23" y2="-21.73" gradientTransform="translate(-38.45 203.44) rotate(-18.82)" gradientUnits="userSpaceOnUse">
      <stop offset="0" stop-color="#fbc93b"/>
      <stop offset="1" stop-color="#fb8e31"/>
    </linearGradient>
    <linearGradient id="linear-gradient-32" x1="158.77" y1="-58.51" x2="161.66" y2="-41.67" gradientTransform="translate(-61.9 153.98)" xlink:href="#linear-gradient-31"/>
    <linearGradient id="linear-gradient-33" x1="86.59" y1="105.84" x2="88.52" y2="147.14" gradientTransform="translate(109.62 -8.03) rotate(49.31)" xlink:href="#linear-gradient-8"/>
    <linearGradient id="linear-gradient-34" x1="77.13" y1="129.13" x2="77.45" y2="152.68" gradientTransform="translate(109.62 -8.03) rotate(49.31)" xlink:href="#linear-gradient-8"/>
    <linearGradient id="linear-gradient-35" x1="69.38" y1="129.74" x2="90.9" y2="129.74" gradientTransform="translate(109.62 -8.03) rotate(49.31)" xlink:href="#linear-gradient-8"/>
    <linearGradient id="linear-gradient-36" x1="135.49" y1="81.16" x2="136.13" y2="94.74" gradientTransform="translate(73.11 -59.42) rotate(33.73)" xlink:href="#linear-gradient-8"/>
    <linearGradient id="linear-gradient-37" x1="132.38" y1="88.81" x2="132.49" y2="96.56" gradientTransform="translate(73.11 -59.42) rotate(33.73)" xlink:href="#linear-gradient-8"/>
    <linearGradient id="linear-gradient-38" x1="129.84" y1="89.02" x2="136.91" y2="89.02" gradientTransform="translate(73.11 -59.42) rotate(33.73)" xlink:href="#linear-gradient-8"/>
    <linearGradient id="linear-gradient-39" x1="149.38" y1="273.22" x2="150.01" y2="286.8" gradientTransform="translate(-123.99 -10.94) rotate(-6.32)" xlink:href="#linear-gradient-8"/>
    <linearGradient id="linear-gradient-40" x1="146.27" y1="280.88" x2="146.37" y2="288.62" gradientTransform="translate(-123.99 -10.94) rotate(-6.32)" xlink:href="#linear-gradient-8"/>
    <linearGradient id="linear-gradient-41" x1="143.72" y1="281.08" x2="150.79" y2="281.08" gradientTransform="translate(-123.99 -10.94) rotate(-6.32)" xlink:href="#linear-gradient-8"/>
    <linearGradient id="linear-gradient-42" x1="318.27" y1="190.92" x2="319.23" y2="211.46" gradientTransform="translate(-123.99 -10.94) rotate(-6.32)" xlink:href="#linear-gradient-8"/>
    <linearGradient id="linear-gradient-43" x1="313.57" y1="202.51" x2="313.73" y2="214.22" gradientTransform="translate(-123.99 -10.94) rotate(-6.32)" xlink:href="#linear-gradient-8"/>
    <linearGradient id="linear-gradient-44" x1="309.71" y1="202.81" x2="320.42" y2="202.81" gradientTransform="translate(-123.99 -10.94) rotate(-6.32)" xlink:href="#linear-gradient-8"/>
    <linearGradient id="linear-gradient-45" x1="120.37" y1="22.62" x2="121.26" y2="55.87" xlink:href="#linear-gradient-8"/>
    <linearGradient id="linear-gradient-46" x1="92.48" y1="70.2" x2="158.46" y2="70.2" xlink:href="#linear-gradient-8"/>
    <linearGradient id="linear-gradient-47" x1="120.84" y1="44.32" x2="124.44" y2="77.57" xlink:href="#linear-gradient-8"/>
    <linearGradient id="linear-gradient-48" x1="151.76" y1="58.09" x2="151.16" y2="37.42" gradientUnits="userSpaceOnUse">
      <stop offset="0" stop-color="#6b40ea"/>
      <stop offset=".46" stop-color="#4689f3"/>
      <stop offset="1" stop-color="#1ae5ff"/>
    </linearGradient>
    <linearGradient id="linear-gradient-49" x1="155.19" y1="62.25" x2="148" y2="20.01" xlink:href="#linear-gradient-2"/>
    <linearGradient id="linear-gradient-50" x1="148.27" y1="53.04" x2="174.94" y2="54.54" xlink:href="#linear-gradient-48"/>
    <linearGradient id="linear-gradient-51" x1="169.09" y1="20.7" x2="169.76" y2="28.99" gradientTransform="matrix(1,0,0,1,0,0)" xlink:href="#linear-gradient-26"/>
    <linearGradient id="linear-gradient-52" x1="171.95" y1="1.88" x2="170.16" y2="15.78" gradientTransform="matrix(1,0,0,1,0,0)" xlink:href="#linear-gradient-28"/>
  </defs>
  <g class="cls-78">
    <g id="Capa_2" data-name="Capa 2">
      <g id="OBJECTS">
        <g>
          <g>
            <g class="cls-4">
              <path class="cls-70" d="M44.23,161.99c1.81,0,3.28,1.47,3.28,3.28s-1.47,3.28-3.28,3.28-3.28-1.47-3.28-3.28,1.47-3.28,3.28-3.28Z"/>
              <circle class="cls-70" cx="219.49" cy="213.83" r="3.96"/>
              <path class="cls-70" d="M276.39,296.84c.74,0,1.35.6,1.35,1.35s-.6,1.35-1.35,1.35-1.35-.6-1.35-1.35.6-1.35,1.35-1.35Z"/>
              <path class="cls-70" d="M203.04,268.63c.74,0,1.35.6,1.35,1.35s-.6,1.35-1.35,1.35-1.35-.6-1.35-1.35.6-1.35,1.35-1.35Z"/>
              <path class="cls-70" d="M108.01,165.06c.74,0,1.35.6,1.35,1.35s-.6,1.35-1.35,1.35-1.35-.6-1.35-1.35.6-1.35,1.35-1.35Z"/>
              <path class="cls-70" d="M278.15,170.64c.74,0,1.35.6,1.35,1.35s-.6,1.35-1.35,1.35-1.35-.6-1.35-1.35.6-1.35,1.35-1.35Z"/>
              <path class="cls-70" d="M232.73,78.45c.74,0,1.35.6,1.35,1.35s-.6,1.35-1.35,1.35-1.35-.6-1.35-1.35.6-1.35,1.35-1.35Z"/>
              <circle class="cls-70" cx="136.08" cy="81.42" r="1.35"/>
              <path class="cls-70" d="M81.65,210.85c1.81,0,3.28,1.47,3.28,3.28s-1.47,3.28-3.28,3.28-3.28-1.47-3.28-3.28,1.47-3.28,3.28-3.28Z"/>
              <path class="cls-70" d="M1.11,210.59c.61,0,1.11.5,1.11,1.11s-.5,1.11-1.11,1.11-1.11-.5-1.11-1.11.5-1.11,1.11-1.11Z"/>
              <path class="cls-70" d="M253.15,251.79c.61,0,1.11.5,1.11,1.11s-.5,1.11-1.11,1.11-1.11-.5-1.11-1.11.5-1.11,1.11-1.11Z"/>
              <path class="cls-70" d="M208.23,257.36c.61,0,1.11.5,1.11,1.11s-.5,1.11-1.11,1.11-1.11-.5-1.11-1.11.5-1.11,1.11-1.11Z"/>
              <path class="cls-70" d="M175.94,105.54c.61,0,1.11.5,1.11,1.11s-.5,1.11-1.11,1.11-1.11-.5-1.11-1.11.5-1.11,1.11-1.11Z"/>
              <path class="cls-70" d="M72.38,45.66c.61,0,1.11.5,1.11,1.11s-.5,1.11-1.11,1.11-1.11-.5-1.11-1.11.5-1.11,1.11-1.11Z"/>
            </g>
            <g class="cls-4">
              <path class="cls-70" d="M231.32,41.7c-.61,0-1.11-.5-1.11-1.11s.5-1.11,1.11-1.11,1.11.5,1.11,1.11-.5,1.11-1.11,1.11Z"/>
              <circle class="cls-70" cx="151.28" cy="31.91" r="1.35"/>
              <path class="cls-70" d="M5.78,46.39c-.74,0-1.35-.6-1.35-1.35s.6-1.35,1.35-1.35,1.35.6,1.35,1.35-.6,1.35-1.35,1.35Z"/>
              <path class="cls-70" d="M79.13,74.6c-.74,0-1.35-.6-1.35-1.35s.6-1.35,1.35-1.35,1.35.6,1.35,1.35-.6,1.35-1.35,1.35Z"/>
              <path class="cls-70" d="M174.15,178.17c-.74,0-1.35-.6-1.35-1.35s.6-1.35,1.35-1.35,1.35.6,1.35,1.35-.6,1.35-1.35,1.35Z"/>
              <path class="cls-70" d="M4.01,172.59c-.74,0-1.35-.6-1.35-1.35s.6-1.35,1.35-1.35,1.35.6,1.35,1.35-.6,1.35-1.35,1.35Z"/>
              <path class="cls-70" d="M49.44,264.78c-.74,0-1.35-.6-1.35-1.35s.6-1.35,1.35-1.35,1.35.6,1.35,1.35-.6,1.35-1.35,1.35Z"/>
              <path class="cls-70" d="M146.08,263.16c-.74,0-1.35-.6-1.35-1.35s.6-1.35,1.35-1.35,1.35.6,1.35,1.35-.6,1.35-1.35,1.35Z"/>
              <path class="cls-70" d="M215.73,62.12c-.61,0-1.11-.5-1.11-1.11s.5-1.11,1.11-1.11,1.11.5,1.11,1.11-.5,1.11-1.11,1.11Z"/>
              <path class="cls-70" d="M281.05,132.64c-.61,0-1.11-.5-1.11-1.11s.5-1.11,1.11-1.11,1.11.5,1.11,1.11-.5,1.11-1.11,1.11Z"/>
              <path class="cls-70" d="M29.02,91.44c-.61,0-1.11-.5-1.11-1.11s.5-1.11,1.11-1.11,1.11.5,1.11,1.11-.5,1.11-1.11,1.11Z"/>
              <path class="cls-70" d="M73.94,85.87c-.61,0-1.11-.5-1.11-1.11s.5-1.11,1.11-1.11,1.11.5,1.11,1.11-.5,1.11-1.11,1.11Z"/>
              <path class="cls-70" d="M106.23,237.69c-.61,0-1.11-.5-1.11-1.11s.5-1.11,1.11-1.11,1.11.5,1.11,1.11-.5,1.11-1.11,1.11Z"/>
              <path class="cls-70" d="M209.79,297.57c-.61,0-1.11-.5-1.11-1.11s.5-1.11,1.11-1.11,1.11.5,1.11,1.11-.5,1.11-1.11,1.11Z"/>
            </g>
          </g>
          <g>
            <g>
              <circle class="cls-7" cx="183.92" cy="200.26" r="11.51" transform="translate(-87.74 188.71) rotate(-45)"/>
              <g class="cls-4">
                <path class="cls-70" d="M194.31,202.24c3.91,2.06,7.73,4.28,11.39,6.78.91.63,1.8,1.3,2.66,2,.86.71,1.7,1.45,2.4,2.38.17.24.33.49.44.8.11.29.16.75-.11,1.09-.26.32-.62.44-.91.5-.31.07-.6.08-.89.08-1.16,0-2.26-.22-3.36-.45-4.35-1-8.49-2.61-12.6-4.25-4.1-1.68-8.13-3.51-12.1-5.45-3.96-1.97-7.87-4.05-11.7-6.28-3.81-2.25-7.61-4.55-11.07-7.37-.86-.71-1.71-1.45-2.45-2.32-.36-.45-.74-.9-.91-1.56-.08-.33.01-.83.34-1.06.31-.24.63-.3.93-.34,1.19-.12,2.29.11,3.39.34,1.09.24,2.16.54,3.22.87,4.22,1.36,8.31,3.04,12.33,4.88-4.1-1.63-8.23-3.22-12.47-4.41-1.06-.3-2.12-.57-3.19-.79-1.06-.2-2.17-.39-3.18-.26-.24.04-.48.11-.61.22-.12.1-.14.23-.1.43.11.41.44.85.79,1.24.71.79,1.55,1.5,2.4,2.18,3.47,2.67,7.23,4.98,11.04,7.18,3.82,2.19,7.72,4.23,11.68,6.17,3.95,1.96,7.95,3.81,12.01,5.5,4.07,1.68,8.19,3.26,12.43,4.35,1.06.25,2.14.48,3.18.5.5.01,1.09-.06,1.28-.29.19-.18-.02-.72-.32-1.13-.61-.85-1.42-1.6-2.25-2.31-.83-.71-1.7-1.38-2.59-2.04-3.54-2.62-7.31-4.93-11.1-7.18Z"/>
              </g>
            </g>
            <g>
              <path class="cls-46" d="M243.92,190.77c-2.72,7.73-11.19,11.79-18.92,9.07-7.73-2.72-11.79-11.19-9.07-18.92,2.72-7.73,11.19-11.79,18.92-9.07,7.73,2.72,11.79,11.19,9.07,18.92Z"/>
              <path class="cls-71" d="M227.25,185.19l1.39-3.96c.29-.83,1.39-.98,1.9-.27l1.94,2.74,2.27,3.19c.43.61.13,1.46-.59,1.66l-3.76,1.07-3.23.92c-.84.24-1.6-.57-1.31-1.4l1.39-3.96Z"/>
            </g>
            <g>
              <path class="cls-6" d="M222.16,347.86l-80.22,46.62c-3.37,1.96-7.54,1.97-10.92.02l-80.79-46.64c-3.13-1.81-3.14-6.33-.01-8.15l80.7-46.9c3.07-1.79,6.87-1.79,9.95-.01l81.27,46.92c3.14,1.81,3.14,6.33.01,8.15Z"/>
              <g class="cls-78">
                <path class="cls-52" d="M203.96,296.81l-67.55,39.25-.02,32.71,66.09-38.41c.92-.53,1.48-1.52,1.48-2.58v-30.98Z"/>
                <path class="cls-53" d="M68.59,296.81v31.1c0,1.07.57,2.05,1.49,2.59l66.31,38.28.02-32.81-67.82-39.16Z"/>
                <path class="cls-60" d="M202.9,298.4l-63.59,36.95c-1.79,1.04-4,1.04-5.8,0l-64.02-36.96c-1.19-.68-1.19-2.4,0-3.08l63.16-36.7c2.06-1.2,4.6-1.2,6.66,0l63.59,36.71c1.19.68,1.19,2.4,0,3.08Z"/>
                <path class="cls-51" d="M177.02,298.79l-38.1,22.14c-1.6.93-3.58.93-5.18,0l-38.37-22.15c-1.49-.86-1.49-3.01,0-3.87l38.33-22.28c1.46-.85,3.26-.85,4.72,0l38.6,22.29c1.49.86,1.49,3.01,0,3.87Z"/>
              </g>
              <g class="cls-78">
                <path class="cls-57" d="M203.96,261.01l-67.55,39.25-.02,11.66,66.09-38.41c.92-.53,1.48-1.52,1.48-2.58v-9.93Z"/>
                <path class="cls-58" d="M68.59,261.01v10.05c0,1.07.57,2.05,1.49,2.59l66.31,38.28.02-11.76-67.82-39.16Z"/>
                <path class="cls-60" d="M202.9,262.6l-63.59,36.95c-1.79,1.04-4,1.04-5.8,0l-64.02-36.96c-1.19-.68-1.19-2.4,0-3.08l63.16-36.7c2.06-1.2,4.6-1.2,6.66,0l63.59,36.71c1.19.68,1.19,2.4,0,3.08Z"/>
                <path class="cls-56" d="M177.02,262.99l-38.1,22.14c-1.6.93-3.58.93-5.18,0l-38.37-22.15c-1.49-.86-1.49-3.01,0-3.87l38.33-22.28c1.46-.85,3.26-.85,4.72,0l38.6,22.29c1.49.86,1.49,3.01,0,3.87Z"/>
              </g>
              <g>
                <g class="cls-78">
                  <polygon class="cls-54" points="84.69 340.29 75.63 335.03 75.67 350.05 84.73 355.31 84.69 340.29"/>
                  <polygon class="cls-55" points="101.22 330.74 92.17 325.48 75.63 335.03 84.69 340.29 101.22 330.74"/>
                  <polygon class="cls-23" points="84.69 340.29 84.73 355.31 92.49 350.83 92.47 344.72 101.25 339.66 101.22 330.74 84.69 340.29"/>
                </g>
                <g class="cls-78">
                  <polygon class="cls-20" points="98.1 348.53 89.05 343.27 89.09 358.29 98.15 363.55 98.1 348.53"/>
                  <polygon class="cls-21" points="114.64 338.98 105.59 333.72 89.05 343.27 98.1 348.53 114.64 338.98"/>
                  <polygon class="cls-22" points="98.1 348.53 98.15 363.55 105.91 359.07 105.89 352.96 114.67 347.9 114.64 338.98 98.1 348.53"/>
                </g>
              </g>
              <g>
                <g class="cls-78">
                  <polygon class="cls-30" points="193.47 340.29 202.53 335.03 202.48 350.05 193.43 355.31 193.47 340.29"/>
                  <polygon class="cls-27" points="176.93 330.74 185.99 325.48 202.53 335.03 193.47 340.29 176.93 330.74"/>
                  <polygon class="cls-25" points="193.47 340.29 193.43 355.31 185.67 350.83 185.68 344.72 176.91 339.66 176.93 330.74 193.47 340.29"/>
                </g>
                <g class="cls-78">
                  <polygon class="cls-24" points="180.06 348.53 189.11 343.27 189.07 358.29 180.01 363.55 180.06 348.53"/>
                  <polygon class="cls-29" points="163.52 338.98 172.57 333.72 189.11 343.27 180.06 348.53 163.52 338.98"/>
                  <polygon class="cls-26" points="180.06 348.53 180.01 363.55 172.25 359.07 172.27 352.96 163.49 347.9 163.52 338.98 180.06 348.53"/>
                </g>
              </g>
            </g>
            <g class="cls-74">
              <g>
                <g class="cls-75">
                  <path class="cls-31" d="M188.24,91.92l-52.87,30.73-.02,169.97,51.73-30.06c.72-.42,1.16-1.19,1.16-2.02V91.92Z"/>
                </g>
                <path class="cls-28" d="M82.28,91.92v168.71c0,.83.45,1.61,1.17,2.02l51.9,29.96.02-170.05-53.09-30.65Z"/>
              </g>
            </g>
            <g>
              <g class="cls-76">
                <rect class="cls-50" x="48.38" y="173.01" width="37.98" height="26.09" rx="2.48" ry="2.48" transform="translate(-63.24 37.41) rotate(-21.4)"/>
                <path class="cls-49" d="M77.02,179.89l-22.14,8.68c-1.15.45-2.44-.12-2.89-1.26h0c-.45-1.15.12-2.44,1.26-2.89l22.14-8.68c1.15-.45,2.44.12,2.89,1.26h0c.45,1.15-.12,2.44-1.26,2.89Z"/>
              </g>
              <g class="cls-76">
                <rect class="cls-48" x="85.72" y="177.9" width="22.69" height="15.59" rx="1.48" ry="1.48" transform="translate(70.46 -22.14) rotate(20.3)"/>
                <path class="cls-47" d="M103.82,186.77l-13.32-4.93c-.69-.26-1.04-1.02-.79-1.71h0c.26-.69,1.02-1.04,1.71-.79l13.32,4.93c.69.26,1.04,1.02.79,1.71h0c-.26.69-1.02,1.04-1.71.79Z"/>
              </g>
            </g>
            <g>
              <g class="cls-4">
                <path class="cls-70" d="M108.99,227.6c.19.11.35.38.35.6l-.02,6.08c0,.22-.16.31-.35.2l-7.69-4.44c-.19-.11-.35-.38-.35-.6l.02-6.08c0-.22.16-.31.35-.2l7.69,4.44Z"/>
                <path class="cls-70" d="M114.73,240.35c.19.11.35.38.35.6l-.02,6.08c0,.22-.16.31-.35.2l-7.69-4.44c-.19-.11-.35-.38-.35-.6l.02-6.08c0-.22.16-.31.35-.2l7.69,4.44Z"/>
              </g>
              <g class="cls-4">
                <path class="cls-70" d="M67.66,227.6c.19.11.35.38.35.6l-.02,6.08c0,.22-.16.31-.35.2l-7.69-4.44c-.19-.11-.35-.38-.35-.6l.02-6.08c0-.22.16-.31.35-.2l7.69,4.44Z"/>
                <path class="cls-70" d="M73.39,240.35c.19.11.35.38.35.6l-.02,6.08c0,.22-.16.31-.35.2l-7.69-4.44c-.19-.11-.35-.38-.35-.6l.02-6.08c0-.22.16-.31.35-.2l7.69,4.44Z"/>
              </g>
              <g class="cls-4">
                <path class="cls-70" d="M192.35,227.6c-.19.11-.35.38-.35.6l.02,6.08c0,.22.16.31.35.2l7.69-4.44c.19-.11.35-.38.35-.6l-.02-6.08c0-.22-.16-.31-.35-.2l-7.69,4.44Z"/>
                <path class="cls-70" d="M186.61,240.35c-.19.11-.35.38-.35.6l.02,6.08c0,.22.16.31.35.2l7.69-4.44c.19-.11.35-.38.35-.6l-.02-6.08c0-.22-.16-.31-.35-.2l-7.69,4.44Z"/>
              </g>
              <g class="cls-3">
                <path class="cls-70" d="M117.66,152.93c.19.11.35.38.35.6l-.02,6.08c0,.22-.16.31-.35.2l-7.69-4.44c-.19-.11-.35-.38-.35-.6l.02-6.08c0-.22.16-.31.35-.2l7.69,4.44Z"/>
                <path class="cls-70" d="M123.39,165.68c.19.11.35.38.35.6l-.02,6.08c0,.22-.16.31-.35.2l-7.69-4.44c-.19-.11-.35-.38-.35-.6l.02-6.08c0-.22.16-.31.35-.2l7.69,4.44Z"/>
              </g>
            </g>
            <g>
              <g>
                <path class="cls-33" d="M158.01,102.66l14.56-20.7c1.88-2.68,5.58-3.32,8.26-1.44l43.23,30.41c2.68,1.88,3.32,5.58,1.44,8.26l-14.56,20.7c-1.88,2.68-5.58,3.32-8.26,1.44l-43.23-30.41c-2.68-1.88-3.32-5.58-1.44-8.26Z"/>
                <g>
                  <rect class="cls-32" x="174.67" y="76.44" width="37.17" height="64.71" rx="5.93" ry="5.93" transform="translate(-6.93 204.25) rotate(-54.87)"/>
                  <path class="cls-62" d="M177.74,86.4h31.85c.33,0,.6.27.6.6v44.16c0,.33-.27.6-.6.6h-31.85c-.33,0-.6-.27-.6-.6v-44.16c0-.33.27-.6.6-.6Z" transform="translate(394.31 13.46) rotate(125.13)"/>
                  <path class="cls-64" d="M170.61,96.86l3.76-5.34c.23-.32.15-.77-.17-1h0c-.32-.23-.77-.15-1,.17l-3.76,5.34c-.23.32-.15.77.17,1h0c.32.23.77.15,1-.17Z"/>
                  <path class="cls-64" d="M214.3,125.97c.87.62,2.08.41,2.7-.47.62-.87.4-2.08-.47-2.7-.87-.61-2.08-.41-2.7.47-.62.87-.4,2.08.47,2.7Z"/>
                </g>
              </g>
              <polygon class="cls-1" points="173.67 98.12 224.93 0 290.52 52.3 209.31 126.68 173.67 98.12"/>
            </g>
            <g>
              <path class="cls-5" d="M161.11,129.77h0s-.04,0-.06,0c-.06,0-.12-.01-.18-.02h0c-.41-.02-.82-.04-1.23-.04-11.59,0-21,9.29-21.21,20.83v.55h0c0,.06,0,.11,0,.17v.35h.01c.37,11.69,10.2,21,22.09,20.51,10.84-.44,19.71-9.19,20.3-20.02.64-11.75-8.3-21.55-19.71-22.34ZM174.58,151.71c-.39,7.7-6.74,13.92-14.45,14.17-8.29.27-15.12-6.22-15.43-14.37v-.97h0c.21-8.08,6.82-14.56,14.95-14.56.42,0,.84.02,1.25.06,7.93.66,14.1,7.49,13.69,15.68Z"/>
              <path class="cls-11" d="M160.87,133.38h0c0,1.44.98,2.69,2.38,3.04,6.75,1.68,11.69,7.94,11.32,15.29-.39,7.7-6.74,13.92-14.45,14.17-7.56.24-13.91-5.13-15.2-12.26-.27-1.47-1.57-2.53-3.07-2.53h0c-1.94,0-3.44,1.75-3.09,3.66,1.85,10.18,10.95,17.82,21.76,17.38,10.84-.44,19.71-9.19,20.3-20.02.57-10.46-6.45-19.38-16.05-21.77-1.98-.49-3.91,1-3.91,3.04Z"/>
            </g>
            <g>
              <rect class="cls-13" x="86.79" y="97.52" width="28.92" height="22.45" rx="1.7" ry="1.7" transform="translate(-29.67 38.48) rotate(-18.82)"/>
              <path class="cls-14" d="M110.4,94.88l-1.32-3.88c-.03-.1-.14-.15-.24-.12l-12.24,4.17c-.08.03-.13.1-.13.19l.07,3.11c0,.08-.05.16-.13.19l-11.8,4.02c-.99.34-1.52,1.41-1.18,2.4l6.02,17.67c.34.99,1.41,1.52,2.4,1.18l23.79-8.11c.99-.34,1.52-1.41,1.18-2.4l-6.08-17.85c-.07-.22-.19-.41-.33-.57Z"/>
              <rect class="cls-12" x="89.49" y="106.7" width="19.05" height="2.55" transform="translate(-29.54 37.72) rotate(-18.82)"/>
            </g>
            <g>
              <g class="cls-78">
                <polygon class="cls-10" points="72.93 143.42 66.54 153.07 53.61 152.47 60 142.82 72.93 143.42"/>
                <polygon class="cls-17" points="60 142.82 53.61 152.47 47.67 140.91 54.06 131.26 60 142.82"/>
                <polygon class="cls-19" points="72.93 143.42 60 142.82 54.06 131.26 66.98 131.85 72.93 143.42"/>
              </g>
              <g class="cls-78">
                <polygon class="cls-15" points="138.14 89.76 136.97 93.38 132.83 94.33 134 90.71 138.14 89.76"/>
                <polygon class="cls-18" points="134 90.71 132.83 94.33 129.92 91.19 131.09 87.57 134 90.71"/>
                <polygon class="cls-9" points="138.14 89.76 134 90.71 131.09 87.57 135.24 86.62 138.14 89.76"/>
              </g>
              <g class="cls-78">
                <polygon class="cls-16" points="56.72 250.78 58.15 254.31 55.59 257.7 54.16 254.18 56.72 250.78"/>
                <polygon class="cls-42" points="54.16 254.18 55.59 257.7 51.35 257.17 49.92 253.64 54.16 254.18"/>
                <polygon class="cls-43" points="56.72 250.78 54.16 254.18 49.92 253.64 52.48 250.25 56.72 250.78"/>
              </g>
              <g class="cls-78">
                <polygon class="cls-40" points="216.63 153.78 218.79 159.11 214.92 164.25 212.75 158.92 216.63 153.78"/>
                <polygon class="cls-41" points="212.75 158.92 214.92 164.25 208.51 163.44 206.34 158.11 212.75 158.92"/>
                <polygon class="cls-36" points="216.63 153.78 212.75 158.92 206.34 158.11 210.21 152.97 216.63 153.78"/>
              </g>
            </g>
            <g>
              <path class="cls-65" d="M138.52,189.84v1.56c0,.92-1.01,1.5-1.8,1.03l-7.38-4.28c-.37-.21-.6-.61-.6-1.04v-1.56c0-.92,1.01-1.5,1.8-1.03l7.38,4.28c.37.21.6.61.6,1.04Z"/>
              <path class="cls-65" d="M161.86,211.08v1.57c0,.92-1,1.49-1.8,1.03l-30.74-17.75c-.37-.21-.6-.61-.6-1.04v-1.57c0-.92,1-1.49,1.8-1.03l30.74,17.75c.37.21.6.61.6,1.04Z"/>
              <g class="cls-77">
                <path class="cls-65" d="M149.14,219.34v1.57c0,.92-1,1.49-1.8,1.03l-18.07-10.43c-.37-.21-.6-.61-.6-1.04v-1.57c0-.92,1-1.49,1.8-1.03l18.07,10.43c.37.21.6.61.6,1.04Z"/>
              </g>
              <path class="cls-65" d="M157.07,216.12v1.57c0,.92-1,1.49-1.8,1.03l-25.97-15c-.37-.21-.6-.61-.6-1.04v-1.57c0-.92,1-1.49,1.8-1.03l25.97,15c.37.21.6.61.6,1.04Z"/>
            </g>
            <g>
              <g>
                <g>
                  <path class="cls-69" d="M94.5,52.34s-2.35-.71-3.35-1.77c-.99-1.06-2.64-3.96-3.3-5.65-.66-1.68-1.63-.92-1.73-.37-.1.55-.03,3.24.75,6.04.78,2.8,1.95,3.23,2.32,4.27.36,1.04.44,1.12.91,1.3.47.17,4-1.29,4-1.29l.4-2.52Z"/>
                  <path class="cls-34" d="M142.36,57.76s-7.33-3.24-17.04-6.41c-9.15-2.98-28.57-.5-31.53-.05-.27.04-.53.13-.76.27-1.07.62-1,1.04-.2,2.79.89,1.93,22.02,2.83,25.79,3.58,3.77.76,12.27,7.2,18.18,10.56,5.91,3.36,10.98,3.2,13.41,1.23,2.44-1.98-7.84-11.97-7.84-11.97Z"/>
                  <path class="cls-35" d="M158.46,68.73s-7.1,9.11-21.95,8.31c-12.11-2.45-14.75-3.96-15.7-3.99-.95-.03-19.42,3.49-27.44,1.8-2.16-1.65.29-3.95.29-3.95,0,0,23.64-6.52,28.85-6.19,5.21.33,19.37-1.91,22.68-1.32,3.3.58,13.28,5.34,13.28,5.34Z"/>
                  <path class="cls-39" d="M147.5,69.96s-11.62,3.3-22.32.23c-2.2-.39-22.01,4.9-32.68,3.26.05.48.3.97.87,1.41,8.02,1.68,26.49-1.83,27.44-1.8s3.59,1.54,15.7,3.99c9.16.49,15.36-2.78,18.78-5.36-3.97-.88-7.79-1.72-7.79-1.72Z"/>
                  <path class="cls-69" d="M93.37,74.86s1.79-1.37,1.49-3.16c-.3-1.79-.63-2.39-.73-2.99-.1-.6.8-2.82,1.01-5.55.21-2.72-3.08-.1-3.6,1.07-.51,1.17-.74,4.61-1.38,5.89s-1.29,3.28-.51,4.61c.79,1.33,3.72.12,3.72.12Z"/>
                </g>
                <g>
                  <path class="cls-73" d="M124.13,47.72s-.96.44-2.57-1.15l-1.61-1.6s-2.18-.6-2.4-1.09c-.22-.48,2.18.37,2.18.37,0,0-3.28-1.41-2.8-1.63.48-.22,2.7.8,2.7.8,0,0-2.96-2.05-2.2-1.85.77.2,2.62,1.45,2.62,1.45,0,0-1.84-1.72-1.37-1.82.48-.1,2.5,1.68,3.25,2.36.75.68,2.75,2.94,2.18,4.17Z"/>
                  <path class="cls-61" d="M147.74,45.51s-5.46,2.51-8.08,2.82c-2.62.31-12.77-1.52-15.1-3.02-1.08-.98-1.67-2.11-2.68-2.86-1-.74-.97.6-.13,1.5.84.9.1,1.74.77,2.95.67,1.21,1.86,1.33,2.64,1.67.78.34,8.06,2.71,10.81,3.52,2.74.8,10.05-.07,11.41-.58,1.36-.51,1.74-5.01.35-6Z"/>
                  <path class="cls-59" d="M122.28,46.22c.05.22.11.45.25.7.67,1.21,1.86,1.33,2.64,1.67.78.34,8.06,2.71,10.81,3.52,2.74.8,10.05-.07,11.41-.58.66-.25,1.08-1.42,1.19-2.67-2.91,1.59-11.87,4.99-26.3-2.62Z"/>
                </g>
                <g>
                  <path class="cls-37" d="M157.91,38.13s-2.98.34-6.31,3c-3.41,2.58-6.93,3.89-6.93,3.89,0,0-1.78,3.5,1.71,5.75,3.34,1.93,8.94-4.85,9.35-5.24.41-.38,4.05-5.33,2.18-7.41Z"/>
                  <path class="cls-67" d="M144.67,45.02s-1.78,3.5,1.71,5.75c.99.57,2.17.38,3.36-.18-.06-.14-.13-.29-.25-.43-3.03-1.98-3.17-5.01-3.14-5.87-1.02.49-1.68.73-1.68.73Z"/>
                </g>
                <path class="cls-38" d="M162.18,38.27s-1.4-.76-4.27-.14c-2.87.62-5.44,6.71-8.28,10.06-2.53,2.99-9.95,5.63-13.47,6.19-.66.11-1.13.71-1.08,1.38.17,2.29,1.13,7.31,6.08,11.86,6.69,6.15,11.69,5.6,13.49,4.83,0,0,10.34-8.62,14.82-16.08,4.27-7.1,1.21-13.43.53-14.64s-7.84-3.46-7.84-3.46Z"/>
                <path class="cls-8" d="M154.66,72.45s10.34-8.62,14.82-16.08c4.27-7.1,1.21-13.43.53-14.64-.07-.13-.22-.27-.42-.42l-3.18,1.88s2.72,3.89.18,9.03c-2.42,4.9-12.58,17.88-21.73,18.27,4.81,3.05,8.34,2.58,9.8,1.96Z"/>
                <g>
                  <g>
                    <path class="cls-72" d="M170.63,37.59s-.1,1.24,2.17.84c2.27-.4,3.57-3.8,6.2-6.51,2.64-2.7,1.56-4.22,1.41-5-.15-.78,1.23-3.11-.22-5.88-1.45-2.78-4.29-3.22-5-5.09-.71-1.86-4.5-.26-5.84.88-1.34,1.14-2.41,2.83-2.67,5.61-.27,2.78-3.16,5.83-1.96,9.2,1.2,3.36,5.92,5.95,5.92,5.95Z"/>
                    <path class="cls-68" d="M178.03,25.36s1.85-2.08.72-3.89c-1.13-1.82-4.58-1.57-5.71-3.15s-.51-2.63-2.31-2.09c-.31.09-.71.24-1.16.43-.08.06-.16.12-.22.18-1.34,1.14-2.41,2.83-2.67,5.61-.05.57-.22,1.14-.43,1.73,3.93,1.38,10.94,1.91,11.8,1.19Z"/>
                    <path class="cls-61" d="M161.26,30.08c-.76,3.77,1.92,4.34,1.19,7.16s-.32,3.91,1.19,4.79c1.51.88,4.71,1.1,5.22.17s.67-2.47,1.3-3.52c.63-1.05,5.75-5.39,7.4-8.54,1.65-3.15.2-7.2-1.86-8.61-7.96-5.42-13.69,4.78-14.44,8.55Z"/>
                    <path class="cls-72" d="M179.04,25.07c-.24-.25-.63-.19-.85.08-.15.18-.47.32-1.11.3-1.66-.05-2.6,1.52-2.04,2.49s.55,1.44.35,1.97c-.2.53-1.95,1.72-1.98,2.43-.02.71-2.26,3.96-.6,4.02s5.59-3.86,6.63-6.91c.79-2.29.34-3.62-.4-4.38Z"/>
                    <path class="cls-61" d="M174.73,30.07s1.83-1.48,2.62-.15c.79,1.33-2.75,4.18-3.79,3.32-1.04-.86,1.17-3.17,1.17-3.17Z"/>
                    <path class="cls-59" d="M162.45,37.25c-.72,2.83-.32,3.91,1.19,4.79,1.51.88,4.71,1.1,5.22.17.5-.93.67-2.47,1.3-3.52.24-.41,1.16-1.31,2.29-2.44-.63-.17-1.51.76-2.23,1.04-.84.33-1.53-.41-2.6-2.04-1.07-1.64-2.1-1.14-2.86-1.34-.77-.2-1.15-.57-.05-2.26,1.1-1.69.94-2.68.97-3.63s-.78-.34-.69-.73c.09-.39.66-.93,1.3-.91.63.02,1.41-1.93,3.21-3.93.96-1.06,2.61-1.69,3.96-2.06-6.77-2.35-11.51,6.3-12.2,9.71-.76,3.77,1.92,4.34,1.19,7.16Z"/>
                  </g>
                  <path class="cls-67" d="M169.79,41.25c-.2-.08-.43-.08-.64,0-1.04.44-4.61,1.51-6.97-2.99,0-.12-1.06-.27-1.36-.1s-.05,3.5,2.27,5c2.33,1.5,5.73.96,6.71-.2.14-.17.26-.32.36-.45.32-.44.13-1.06-.37-1.27h0Z"/>
                </g>
                <path class="cls-66" d="M91.92,70.85c-.05-1.03.37-1.57.42-3.15.05-1.54,2.46-4.28,1.82-5.68-.96.25-2.3,1.5-2.62,2.22-.51,1.17-.74,4.61-1.38,5.89s-1.29,3.28-.51,4.61c.08.13.18.23.29.31.06-.02.12-.04.18-.06,2.09-.88,1.84-3.11,1.8-4.14Z"/>
                <path class="cls-69" d="M164.97,62.39c.47-.53.92-1.07,1.37-1.62-8.81-2.91-14.1-9.71-16.28-13.1-.14.18-.28.36-.42.52-.23.27-.51.54-.82.8,4.88,7.84,11.42,11.61,16.15,13.4Z"/>
                <g>
                  <path class="cls-61" d="M167.89,59.82s-3.4,5.94-6.45,8.58c-3.17,2.51-13.35-1.98-16.72-8.02-1.15-1.22-2.05-2.68-2.13-3.99-.08-1.31-2.33-1.26-2.9-2.11-.57-.85,2.03-.29,2.03-.29,0,0-3.07-.57-2.21-1.38s2.48.44,2.48.44c0,0-2.54-2.22-1.48-2.07,1.06.15,2.45,1.38,2.45,1.38,0,0-2.06-2.44-.78-1.57,1.28.87,2.55,1.74,3.11,3.07.55,1.32.98,2.76,1.55,3.37.57.61,5.14,6.22,11.31,6.18,1.81-1.01,5.1-7.31,5.1-7.31l4.63,3.71Z"/>
                  <path class="cls-59" d="M161.44,68.39c2.75-2.37,5.78-7.43,6.35-8.41-1.72.13-3.04.25-3.04.25,0,0-2.42,3.96-4.54,5.79-2.12,1.83-11.86-2.68-14.89-7.05-2.57-3.88-2.02-3.63-2.57-3.88-.45-.21-2.27-1.32-3.13-1.05,0,.06,0,.14.07.24.57.85,2.82.8,2.9,2.11.08,1.31.98,2.76,2.13,3.99,3.37,6.04,13.55,10.53,16.72,8.02Z"/>
                  <g>
                    <path class="cls-45" d="M168.75,46.06c1.36-.44,2.64.22,2.97,1.48.32,1.25.57,3.13.2,5.52-.42,2.71-1.77,5.62-2.79,7.54-.72,1.35-2.27,2.07-3.54,1.64-1.45-.49-3.25-1.39-4.33-3-.33-.49-.48-1.11-.35-1.75.63-3.33,5.7-9.73,6.65-10.73.31-.33.74-.55,1.2-.7Z"/>
                    <path class="cls-67" d="M160.86,57.1s2.61,4.81,7.96,3.99c.01.84-.91,1.82-1.16,2.17-.25.35-4.24.87-7.73-3.22-.21-.84.73-2.53.93-2.94Z"/>
                  </g>
                </g>
              </g>
              <g>
                <path class="cls-63" d="M175.28,30.34l1.79,4.09s1.06,0,1.23-1.74c-.28-.56-1.68-3.75-1.68-3.75l-1.34,1.4Z"/>
                <path class="cls-70" d="M162.52,24.99c.11.47.57.76,1.04.66.65-.13,1.6-.26,2.43-.13,1.46.22,2.02.56,2.46,1.46.45.9,2.13,2.69,3.81,3.36,1.24.49,2.04.46,2.38.4.11-.02.22-.06.32-.12.42-.26,1.74-1.15,2.12-2.18.26-.72-.17-2.15-.57-3.2-.32-.84-.93-1.53-1.73-1.95-1.41-.74-3.99-1.94-7.33-2.81-3.47-.9-5.27,2.58-5.15,3.36.05.35.14.78.23,1.15Z"/>
                <path class="cls-67" d="M177.08,28.43c.26-.72-.17-2.15-.57-3.2-.19-.5-.49-.95-.86-1.32.25.55.46,1.2.28,1.79-.45,1.34-2.69,2.91-4.03,2.39-1.34-.52-2.69-3.14-5.45-4.26-1.87-.76-3.36-.29-4.13.1.05.33.13.71.21,1.06.11.47.57.76,1.04.66.65-.13,1.6-.26,2.43-.13,1.46.22,2.02.56,2.46,1.46.45.9,2.13,2.69,3.81,3.36,1.24.49,2.04.46,2.38.4.11-.02.22-.06.32-.12.42-.26,1.74-1.15,2.12-2.18Z"/>
                <path class="cls-44" d="M164.87,21.22s-1.05.52-.6,1.12c.45.6,3.29.6,5.38,2.32,2.09,1.72,3.81,2.17,4.63,1.12.82-1.05-.82-1.79-2.24-2.61-1.42-.82-4.78-2.46-7.17-1.94Z"/>
              </g>
              <path class="cls-2" d="M164.27,22.34l-1.34-16.8,17.03.6-5.68,19.64s-1.79,1.12-4.33-.97c-2.54-2.09-5.68-2.46-5.68-2.46Z"/>
            </g>
          </g>
        </g>
      </g>
    </g>
  </g>
</svg>