<?xml version="1.0" encoding="UTF-8"?>
<svg id="Capa_2" data-name="Capa 2" xmlns="http://www.w3.org/2000/svg" viewBox="0 0 76.39 76.45">
  <defs>
    <style>
      .cls-1 {
        fill: #000;
      }

      .cls-1, .cls-2 {
        stroke-width: 0px;
      }

      .cls-2 {
        fill: #fff;
      }
    </style>
  </defs>
  <g id="OBJECTS">
    <g>
      <g>
        <path class="cls-1" d="M73.39,20.36c.7-.45,1.4-.91,2.09-1.37,1.07-.73.46-2.72-.96-2.21-.61.22-1.21.45-1.81.69.37-.64-.06-1.5-.75-1.67-.25-.41-.79-.65-1.38-.36-.38.19-.74.38-1.12.57.05-.3-.01-.61-.17-.87,1.59-.95,3.17-1.93,4.7-2.96,1.07-.72.45-2.65-.95-2.17-2.29.78-4.54,1.73-6.77,2.79.41-.25.82-.5,1.22-.76,1.71-1.1.58-3.32-1.14-3.13-.25-1.2-1.54-2.14-3.09-1.39-.17.08-.34.17-.52.26,1.51-.99,3.01-1.99,4.48-3.04,1.14-.81.18-2.45-1.12-1.85-.88.41-1.75.84-2.62,1.29-.26-.31-.67-.48-1.19-.31-3.07,1.02-6.05,2.3-8.97,3.74,1.16-.76,2.31-1.53,3.46-2.31,1.28-.87.17-2.8-1.24-2.05-3.26,1.73-6.46,3.54-9.65,5.4,2.21-1.48,4.41-2.96,6.62-4.44,1.77-1.18.26-3.64-1.67-2.77-10.39,4.69-20.23,10.27-29.55,16.6,6.27-4.73,13.04-8.9,19.91-12.57.31.02.64-.05.99-.25l3.46-2.06c1.96-1.17.24-3.95-1.79-2.96-2.73,1.31-5.35,2.72-7.89,4.21-.32-.5-.99-.79-1.77-.46-7.91,3.4-15.22,7.39-22,12.21.74-.69,1.47-1.37,2.21-2.03,3.86-3.43,8.08-6.71,11.44-10.61,1.35-1.57-.32-3.94-2.31-2.9C15.62,4.77,7.43,9.64,1.01,15.81c-1.23,1.19.43,3.45,1.92,2.4,1.67-1.17,3.31-2.33,4.96-3.48-2.34,2.12-4.65,4.29-6.51,6.73-.76,1,.34,2.27,1.44,2.22-.71.64-1.41,1.28-2.11,1.94-1.11,1.06.58,2.68,1.71,1.65,7.06-6.44,15.13-12.26,23.8-16.79-.23.28-.45.56-.67.85-6.5,4.8-12.5,10.16-18.36,15.91-.01,0-.03.02-.04.03-.14.1-.24.21-.32.33-.46.45-.92.91-1.38,1.36-.6.49-1.21.99-1.81,1.49-.16.13-.19.31-.15.48-.22.22-.44.44-.66.66-.76.77-.25,2,.59,2.31-.91.69-1.82,1.38-2.74,2.06-1.56,1.16-.23,3.63,1.59,2.63,3.92-2.13,7.77-4.41,11.59-6.73-1.51,1.05-3.02,2.11-4.52,3.18-.84.6-.41,1.8.35,1.95-1.98,1.59-3.93,3.22-5.86,4.88-1.21,1.04.52,2.59,1.74,1.68,3.03-2.28,6.12-4.49,9.23-6.66-3.79,3.16-7.52,6.38-11.21,9.66-1.35,1.04.56,3.02,1.89,1.96.22.7,1.17,1.17,1.93.51,3.68-3.17,7.33-6.32,11.08-9.36-3.86,3.33-7.56,6.76-11.1,10.18-.94.91.46,2.23,1.45,1.4.1-.09.21-.17.31-.25.26.19.57.33.9.38-2.68,2.43-5.32,4.93-7.89,7.49-1.01,1.01.54,2.5,1.59,1.54,2.21-2.01,4.47-3.97,6.75-5.9.05.04.12.06.18.09-1.63,1.48-3.21,3-4.68,4.6-.59.65.2,1.85,1.02,1.27,1.59-1.12,3.12-2.34,4.62-3.6.2.64.9,1.15,1.65,1.15-1.7,1.65-3.17,3.4-4.12,5.28-.39.77-.02,1.53.63,1.82-.86.87-1.7,1.74-2.54,2.63-1.17,1.25.62,2.98,1.91,1.85,1.01-.89,2.03-1.76,3.04-2.64.1.72,1.18,1.21,1.84.61.71-.63,1.39-1.29,2.09-1.93.25.14.54.2.84.14-.5.49-.99.99-1.48,1.49-1.1,1.15.35,3.25,1.81,2.27.4-.27.8-.55,1.2-.83.26.76,1.11,1.32,1.96.75,3.67-2.46,7.13-5.25,10.54-8.11-.2.46-.07.94.23,1.25-.35.29-.71.58-1.06.87-3.98,3.32-9.23,6.74-11.99,11.09-.73,1.16.69,2.31,1.82,1.76,4.54-2.2,8.34-6.62,12.16-9.82.34-.28.68-.57,1.02-.85-.61.97.57,1.95,1.49,1.6-1.19,1.11-2.34,2.25-3.42,3.44-1.12,1.24.36,3.49,1.94,2.42.36-.24.71-.51,1.07-.76.42.18.9.2,1.36-.05,6.93-3.73,13.47-8.35,20.12-12.55,2.76-1.74,5.59-3.43,8.39-5.16-1.03,1-2.08,1.98-3.15,2.94-3.44,3.07-8.12,5.52-10.78,9.23-1.09,1.52.96,2.93,2.38,2.3,4.33-1.93,7.87-6.66,11.18-9.91,3.5-3.43,7.09-6.93,10.03-10.82.08-.1.12-.2.15-.3.22-.16.44-.32.66-.49,1.63-1.25-.45-3.6-2.16-2.7-5.12,2.69-9.97,5.99-14.8,9.24,4.41-3.7,8.81-7.41,13.21-11.12,1.09-.92-.39-2.92-1.53-2.02-.47.37-.95.74-1.42,1.11.04-.4-.21-.78-.57-.99,1.25-1.01,2.49-2.03,3.72-3.06.73-.61.36-1.62-.32-2.02.73-.53,1.45-1.07,2.18-1.6.88-.64.07-2.09-.89-1.47-.27.17-.53.35-.8.53.09-.14.12-.29.14-.45,0,0,.02,0,.02-.02,1.75-1.18.54-3.5-1.3-3.16,1.01-.71,2.03-1.41,3.05-2.11.87-.6.63-1.72-.04-2.15.69-.36,1.38-.72,2.08-1.08,2.51-1.27.63-4.68-1.81-4.12Z"/>
        <path class="cls-1" d="M64.19,64.95c2.85-2.83,5.62-5.78,8.07-8.94.97-1.24-1.14-2.77-2.22-1.65-2.71,2.81-5.37,5.63-8.26,8.27-1.38,1.25-2.77,2.49-4.23,3.66-1.51,1.21-3.03,2-3.95,3.68-.62,1.13.41,2.64,1.78,2.24,3.39-.99,6.37-4.85,8.8-7.26Z"/>
        <path class="cls-1" d="M72.96,60.71c.58-.92-.65-2.3-1.63-1.57-2.08,1.55-3.8,3.57-5.62,5.39-1.79,1.8-4.11,3.58-5.32,5.81-.68,1.25.76,2.94,2.13,2.06,2.19-1.42,3.76-3.76,5.43-5.7,1.68-1.94,3.64-3.83,5-5.99Z"/>
        <path class="cls-1" d="M70.84,66.42c-.88.63-1.63,1.41-2.4,2.15-.79.75-1.49,1.49-2.05,2.42-.66,1.12.66,2.4,1.82,1.76.97-.54,1.73-1.22,2.51-1.98.77-.75,1.58-1.47,2.23-2.32.89-1.18-.88-2.89-2.1-2.03Z"/>
      </g>
      <path class="cls-2" d="M47.2,42.11c-.62-.35-1.18-.67-1.88-1.02-.61-.29-1.32-.73-2.02-.53-.51.15-.88.62-1.23,1-.45.49-.91.97-1.37,1.45,0,0-5.97-2.13-7.59-6.55.23-.27.46-.54.69-.8.38-.46.96-.9.99-1.54.02-.62-.2-1.24-.43-1.81-.14-.36-.29-.72-.44-1.09-.26-.66-.59-1.59-.96-1.97-.5-.52-1.35-.62-2.02-.29,0,0-3.9,1.92-2.66,5.67,0,0,2.43,10.59,14.2,12.66,0,0,4.22.56,5.33-2.01.24-.55.4-1.33.35-1.93-.05-.58-.46-.97-.94-1.24ZM37.97,18.04c-11.02.11-19.87,9.12-19.76,20.14.04,3.72,1.09,7.2,2.89,10.16l-2.42,10.17,9.97-2.97c2.88,1.56,6.19,2.44,9.7,2.41,11.02-.11,19.87-9.12,19.76-20.14-.11-11.02-9.12-19.87-20.14-19.76ZM38.55,54.63c-3.49.03-6.73-1.02-9.41-2.83l-5.68,1.7,1.4-5.88c-1.88-2.66-3-5.89-3.03-9.39-.09-9.15,7.26-16.64,16.41-16.72,9.15-.09,16.64,7.26,16.72,16.41.09,9.15-7.26,16.64-16.41,16.72Z"/>
    </g>
  </g>
</svg>