<?xml version="1.0" encoding="UTF-8"?>
<svg id="Capa_2" data-name="Capa 2" xmlns="http://www.w3.org/2000/svg" viewBox="0 0 76.28 76.33">
  <defs>
    <style>
      .cls-1 {
        fill: #000;
      }

      .cls-1, .cls-2 {
        stroke-width: 0px;
      }

      .cls-2 {
        fill: #fff;
      }
    </style>
  </defs>
  <g id="OBJECTS">
    <g>
      <g>
        <path class="cls-1" d="M4.33,12.34c4.42-3.04,9.31-5.3,13.72-8.31.99-.68.4-2.51-.85-2.08C12.15,3.68,7.44,7.09,3.09,10.16c-1.29.91-.08,3.08,1.24,2.17Z"/>
        <path class="cls-1" d="M4.78,15.97c7.09-4.83,14.56-8.43,22.02-12.53,2.08-1.14.25-4.29-1.84-3.22C17.53,3.99,10.51,9.28,3.78,14.22c-1.02.75-.08,2.48,1,1.75Z"/>
        <path class="cls-1" d="M3.34,21.79C12.41,15.76,22.38,11.42,31.29,5.05c.6-.43.26-1.48-.52-1.26-2.71.78-5.16,2.19-7.83,3.06-2.47.8-4.53,1.64-6.8,2.94-4.98,2.86-9.4,6.43-14.19,9.58-1.48.97-.1,3.4,1.38,2.42Z"/>
        <path class="cls-1" d="M46.2,54.65c3.56-3.08,7.16-6.11,10.67-9.25,3.82-3.42,8.23-6.81,11.45-10.83,1.05-1.31-.24-3.29-1.82-2.42-4.23,2.33-8.04,5.91-11.86,8.91-.1.07-.19.15-.28.23,3.02-2.62,6.05-5.23,9.12-7.79,1.23-1.03-.51-2.75-1.73-1.77-8.47,6.81-17.19,13.27-25.74,19.98-3.7,2.9-7.34,5.86-10.98,8.84-1.25,1.03-2.61,2.04-3.97,3.07,2.47-2.05,4.85-4.21,7.18-6.05,4.74-3.75,9.43-7.56,14.15-11.33,10.27-8.22,20.55-16.41,30.78-24.68,1.02-.82-.34-2.65-1.4-1.86-7.22,5.41-14.4,10.86-21.58,16.31,6.7-5.99,13.37-11.99,20.34-17.69.38-.31.48-.69.41-1.05.74-.66,1.43-1.33,2.07-2.05,1.11-1.24.04-3.8-1.75-3.09-1.53.61-3.02,1.42-4.48,2.33,1.5-1.13,2.99-2.27,4.49-3.39.79-.59.46-1.74-.21-2.01.17-.14.35-.27.51-.42,2.02-1.78-.56-4.92-2.77-3.68-1.74.98-3.38,2.15-4.97,3.4.03-1.12-1.01-2.33-2.19-1.86-.81.32-1.59.69-2.38,1.07.21-.16.43-.32.64-.48,1.14-.88.54-3.31-1.09-2.64-3.34,1.37-6.58,3.14-9.73,5.06.19-.73-.54-1.49-1.27-1.45,1.28-.96,2.56-1.92,3.85-2.89,1.45-1.09.17-3.53-1.45-2.54-2.8,1.73-5.58,3.53-8.34,5.35.25-.24.5-.48.74-.72.08-.09.15-.18.21-.27,1.16-.7,2.32-1.4,3.47-2.11,1.87-1.15.22-3.99-1.7-2.98-.59.31-1.18.63-1.77.95-.2-1.41-1.66-2.7-3.17-1.72C27.75,8.78,15.98,16.61,4.02,24.18c-1.31.83-.13,2.93,1.21,2.13,3.98-2.39,7.97-4.73,11.98-7.07C11.27,23.68,5.59,28.42.32,33.35c-.91.85.31,2.55,1.34,1.79,1.82-1.36,3.64-2.74,5.45-4.11.35.53,1.02.83,1.64.39,5.79-4.12,11.49-8.4,17.27-12.53.66-.47,1.34-.93,2.03-1.38-.97.7-1.95,1.39-2.91,2.09-3.86,2.82-7.69,5.69-11.49,8.6-3.34,2.56-8.64,5.24-10.37,9.21-.69,1.58.44,3.24,2.17,2.89.9-.19,1.77-.55,2.6-1.02.05.09.12.18.19.26-2.11,1.57-4.23,3.21-5.85,5.22-1.07,1.33.24,3.15,1.79,2.38,3.07-1.51,5.67-4.07,8.31-6.25,3.2-2.65,6.39-5.3,9.59-7.95,1.19-.99,2.4-1.97,3.6-2.95.16-.02.33-.06.5-.14.02,0,.04-.02.05-.03-6.2,4.8-12.14,9.89-17.99,15.23-.72.65.23,1.94,1.04,1.38,2.44-1.71,4.88-3.41,7.33-5.11-.1.08-.2.16-.3.24-3.91,3.12-9.97,6.56-12.37,11.06-.62,1.16.41,2.77,1.75,2.33,4.21-1.38,7.66-5.49,11.09-8.29.04-.03.07-.06.11-.09,8.67-5.59,17.1-11.71,25.46-17.7,4.97-3.56,9.88-7.2,14.85-10.76,1.56-1.11,3.2-2.11,4.86-3.1-9.05,6.51-18.01,13.14-26.78,20.06-5.17,4.08-10.29,8.22-15.36,12.44-5.63,4.69-12.12,9.35-16.77,15.08-.67.83.17,2.16,1.18,1.56,1.62-.97,3.18-2.08,4.71-3.26-1.16,1.07-2.32,2.14-3.47,3.22-.7.66.26,1.99,1.04,1.38,11.07-8.65,22.24-17.18,33.37-25.74.51-.4,1.04-.78,1.55-1.18-.73.59-1.47,1.18-2.19,1.78-9.68,7.91-20.02,15.53-29.04,24.21-.84.81-.74,1.97-.18,2.82-.83,1.37.46,2.92,1.99,2.24,1.88-.83,3.7-1.97,5.47-3.26-1.76,1.45-3.41,2.98-4.73,4.69-1.25,1.61.26,3.8,2.16,2.86,2.15-1.06,4.16-2.58,6.1-4.21-.06.08-.12.15-.18.24-1.39,2.01,1.22,3.86,2.97,3.05,4.05-1.88,7.52-5.71,10.93-8.6,3.8-3.23,7.61-6.45,11.38-9.71Z"/>
        <path class="cls-1" d="M73.76,42.57c-5.41,4.71-10.82,9.42-16.23,14.13-2.5,2.17-5,4.35-7.5,6.52-.46.4-.95.8-1.45,1.19,1.69-1.76,3.34-3.49,4.97-5.06,5.79-5.57,11.65-11.07,17.53-16.54,1.28-1.19-.08-2.95-1.45-2.7.72-.75,1.43-1.51,2.12-2.29.96-1.09-.28-2.99-1.6-2.12-6.74,4.45-12.82,10.33-19.07,15.48-3.22,2.65-6.41,5.34-9.58,8.05-2.94,2.52-6.87,4.89-8.54,8.51-.57,1.23.38,2.82,1.8,2.4.18-.05.34-.13.51-.19-.55.64-1.08,1.3-1.56,1.97-1.3,1.8,1.17,3.89,2.85,2.92,2.32-1.35,4.53-3.13,6.66-5.09-.17.29-.34.58-.47.89-.6,1.37.4,3.29,2.06,2.75.93-.3,1.74-.76,2.51-1.3-.11,1.27,1.38,2.35,2.59,1.66.61-.35,1.19-.74,1.76-1.16.19,1.05,1.12,1.93,2.31,1.55,1.39-.45,2.69-1.3,3.91-2.32-.64,1.21.84,2.55,1.98,1.87.11-.07.22-.15.34-.23-.2.29-.36.64-.46,1.14-.24,1.11.64,1.89,1.68,1.72,1.21-.2,1.54-.79,2.36-1.69.67-.74,1.39-1.44,2.11-2.13,0,.07-.02.14,0,.22.08.72.47,1.54,1.26,1.69.61.12,1.11.01,1.57-.2.08.21.18.41.3.58.48.63,1.43,1.08,2.21.77.23-.09.49-.17.7-.29.32-.19.48-.47.71-.72-.01.02.07-.04.14-.1.13-.12.24-.25.37-.37.41-.42.83-.84,1.24-1.26,1.22-1.24.06-3.23-1.4-3.11.24-.46.37-.96.25-1.51-.09-.46-.5-.82-.92-.94-.44-.13-.86-.05-1.26.12.15-.16.31-.31.47-.47,1.32-1.34-.66-3.34-2.03-2.08-1.72,1.59-3.42,3.19-5.13,4.79.65-.72,1.29-1.44,1.94-2.09,2.01-2.03,4.55-4,6.03-6.46.58-.95-.55-2-1.46-1.49-2.48,1.4-4.53,3.91-6.61,5.87-.41.39-.85.77-1.3,1.16.3-.32.59-.64.88-.94,3.08-3.19,6.72-6.72,8.81-10.68.54-1.02-.35-2.39-1.39-2.24.54-.59,1.09-1.17,1.61-1.78,1.03-1.19-.49-2.65-1.67-1.71-.28.22-.55.47-.83.69,1.81-1.75,3.61-3.49,5.42-5.24,1.38-1.33-.65-3.34-2.06-2.11Z"/>
      </g>
      <g>
        <path class="cls-2" d="M46.11,18.07h-15.49c-6.87,0-12.43,5.57-12.43,12.43v15.49c0,6.87,5.57,12.43,12.43,12.43h15.49c6.87,0,12.43-5.57,12.43-12.43v-15.49c0-6.87-5.57-12.43-12.43-12.43ZM54.67,44.5c0,5.55-4.5,10.05-10.05,10.05h-12.52c-5.55,0-10.05-4.5-10.05-10.05v-12.52c0-5.55,4.5-10.05,10.05-10.05h12.52c5.55,0,10.05,4.5,10.05,10.05v12.52Z"/>
        <path class="cls-2" d="M38.9,27.69c-5.87,0-10.63,4.76-10.63,10.63s4.76,10.63,10.63,10.63,10.63-4.76,10.63-10.63-4.76-10.63-10.63-10.63ZM38.9,44.71c-3.53,0-6.4-2.86-6.4-6.39s2.86-6.4,6.4-6.4,6.39,2.86,6.39,6.4-2.86,6.39-6.39,6.39Z"/>
        <path class="cls-2" d="M48.8,24.82c-1.49,0-2.7,1.21-2.7,2.7s1.21,2.7,2.7,2.7,2.7-1.21,2.7-2.7-1.21-2.7-2.7-2.7Z"/>
      </g>
    </g>
  </g>
</svg>