<?xml version="1.0" encoding="UTF-8"?>
<svg id="Capa_2" data-name="Capa 2" xmlns="http://www.w3.org/2000/svg" viewBox="0 0 579 523.74">
  <defs>
    <style>
      .cls-1 {
        fill: #4d4d4d;
      }

      .cls-1, .cls-2 {
        stroke: #e6e6e6;
        stroke-miterlimit: 10;
        stroke-width: 2px;
      }

      .cls-3 {
        letter-spacing: -.03em;
      }

      .cls-2 {
        fill: #f7b000;
      }

      .cls-4 {
        fill: #fff;
        font-family: CheapPotatoesBlackThin, 'Cheap Potatoes Black Thin';
        font-size: 60px;
      }
    </style>
  </defs>
  <g id="Capa_2-2" data-name="Capa 2">
    <g id="Capa_3" data-name="Capa 3">
      <path class="cls-1" d="M206.66,138.59c-.07-3.85-4.46-6.14-7.84-4.09L45.13,228c-3.41,2.07-7.84-.3-7.84-4.18V5.94c0-4.07-4.82-6.39-8.2-3.94L3.04,20.96c-1.28.94-2.04,2.4-2.04,3.95v414.61c0,3.98,4.62,6.32,8,4.08l164.12-108.79c3.4-2.25,8.01.1,8.01,4.07v168.06c0,4.07,4.81,6.4,8.19,3.95l15.63-11.35,2.05-344-.34-16.95h0ZM177.97,281.66c0,4.26-2.25,8.22-5.96,10.51l-110.64,68.02c-2.76,1.7-6.38-.22-6.38-3.38v-93.99c0-2.97,1.56-5.75,4.13-7.37l113.98-71.83c2.09-1.32,4.87.13,4.87,2.55v95.51-.02Z"/>
    </g>
    <g id="Capa_2-2" data-name="Capa 2-2">
      <path class="cls-2" d="M64.73,237.16V14.27c0-2.65-3.02-4.17-5.15-2.58l-27.06,20.15c-2.04,1.52-3.24,3.9-3.24,6.44v413.34c0,3.75,4.2,5.97,7.3,3.86l163.48-111.13c2.31-1.57,5.44.09,5.43,2.88l-.26,170.89c0,3.97,4.68,6.08,7.66,3.46l18.14-15.97c2.2-1.94,3.46-4.74,3.45-7.67l-.97-350.35c0-3.41-3.76-5.49-6.66-3.69l-155.95,96.71c-2.7,1.67-6.18-.27-6.18-3.44h.01ZM202.57,302.92l-131.74,83.7c-2.64,1.68-6.1-.22-6.1-3.35v-100.81c0-3.3,1.72-6.36,4.55-8.07l133.11-80.68c2-1.21,4.56.23,4.56,2.57v98.68c0,3.23-1.65,6.23-4.38,7.96h0Z"/>
    </g>
    <text class="cls-4" transform="translate(247 279.82)"><tspan class="cls-3" x="0" y="0">e</tspan><tspan x="42.69" y="0">cuadro</tspan></text>
  </g>
</svg>