<?xml version="1.0" encoding="UTF-8"?>
<svg id="Capa_2" data-name="Capa 2" xmlns="http://www.w3.org/2000/svg" viewBox="0 0 76.33 76.33">
  <defs>
    <style>
      .cls-1 {
        fill: #000;
      }

      .cls-1, .cls-2 {
        stroke-width: 0px;
      }

      .cls-2 {
        fill: #fff;
      }
    </style>
  </defs>
  <g id="OBJECTS">
    <g>
      <g>
        <path class="cls-1" d="M7.9,25.35c-1.06,1.06.34,3.07,1.59,2.17,5.71-4.11,11.06-8.65,16.96-12.48,5.87-3.81,12.12-7,17.91-10.92.92-.62.35-2.31-.77-1.93-6.64,2.21-12.88,6.06-18.73,9.98-5.84,3.92-11.93,8.12-16.96,13.18Z"/>
        <path class="cls-1" d="M75.62,20.4c-3.34.43-6.63,1.98-9.77,3.73-.03-.27-.14-.53-.3-.73,1.41-.81,2.82-1.63,4.23-2.45,2.18-1.27.43-4.42-1.73-3.71.64-.53,1.29-1.05,1.92-1.59,1.13-.95-.31-2.38-1.43-1.89-.26.11-.51.24-.77.36,1.79-1.11,3.58-2.23,5.35-3.36,1.52-.97.18-3.3-1.4-2.44-6.21,3.38-12.2,7.16-18.17,10.97-.82.52-1.64,1.02-2.46,1.52,7.09-4.79,14.18-9.58,21.58-13.71,1.36-.76.16-2.84-1.22-2.11-9.22,4.86-18.55,9.13-27.62,14.12,2.36-1.5,4.72-3.02,7.05-4.58,5.05-3.39,10.48-6.18,15.21-10.04.93-.76-.08-2.29-1.13-1.97-2.67.81-5.21,1.92-7.71,3.14-.29-.43-.77-.74-1.42-.79-1.83-.15-3.75.41-5.63,1.25-.05-1.04-.88-1.99-2.16-1.64-7.85,2.2-15.68,7.84-22.49,12.29-7.04,4.59-14.18,9.8-20.18,15.74-.89.88.29,2.54,1.36,1.79.82-.58,1.64-1.15,2.45-1.73-1.7,1.44-3.39,2.9-5.05,4.41-1.08.97.36,2.92,1.56,2.05,2.3-1.66,4.62-3.28,6.96-4.89-4.17,3.38-8.26,6.86-12.28,10.42-1.04.92.33,2.76,1.48,1.95,7.53-5.23,15.16-10.21,22.84-15.16-7.89,5.75-15.45,11.95-23.11,18.01-.98.78.3,2.45,1.33,1.76,5.75-3.88,11.29-7.74,17.41-10.97,1.88-.99,3.73-2.05,5.57-3.14-8.22,6.44-15.86,13.51-23.62,20.61-.74.68.25,2.04,1.08,1.42,5.78-4.27,11.7-8.3,17.63-12.32-4.72,4.2-9.36,8.47-13.97,12.67-.99.9.44,2.29,1.44,1.46,1.98-1.64,4-3.24,6.04-4.81-1.87,1.74-3.73,3.5-5.56,5.28-1.31,1.27.63,3.19,1.97,2,1-.89,2.04-1.76,3.05-2.64-.22.22-.45.44-.68.66-.76.77.24,2.2,1.14,1.56,5.04-3.53,9.95-7.23,14.89-10.9-.28.23-.57.45-.85.68-3.83,3.14-8.46,6.29-11.4,10.39-.57.8.5,1.6,1.18,1.25.62-.32,1.23-.68,1.84-1.06.32.67.96,1.09,1.83.71,0,0,0,0,0,0-1.16.97-2.22,2.02-3.09,3.24-.48.67-.25,1.5.26,2.03-.46.47-.93.94-1.37,1.42-.7.76.24,2.2,1.12,1.53,1.88-1.41,3.72-2.89,5.54-4.4.7-.48,1.39-.99,2.07-1.53-2.38,2.03-4.75,4.08-7.1,6.15-2.26,1.99.95,5.2,3.18,3.36,2.56-2.1,5.11-4.23,7.64-6.38.17.01.36,0,.55-.06,1.72-.44,3.34-1.37,4.9-2.46.3.76,1.22,1.29,2.07.85.7-.37,1.39-.77,2.08-1.19.34.17.75.2,1.17-.04.24-.14.48-.3.72-.44-1.07,1-2.04,2.09-2.79,3.35-.76,1.28.51,3.19,1.93,2.66,1.18-.45,2.24-1.1,3.24-1.84-.18.92.82,1.97,1.74,1.35-.29.3-.58.6-.85.92-1.11,1.33.26,2.97,1.7,2.33.64-.29,1.27-.63,1.89-1.01.32.69,1.11,1.15,1.81.62,2.99-2.25,5.77-4.85,8.62-7.31,3.08-2.66,6.44-5.17,9.22-8.17.78-.84-.23-2.3-1.21-1.66-.11.07-.22.15-.33.23,1.59-1.56,3.18-3.14,4.73-4.76,1.15-1.2-.6-3.04-1.77-1.87-.51.51-1.02,1.01-1.53,1.52-.04-.64-.75-1.29-1.34-.82-3.28,2.62-6.73,5.15-10.14,7.74.27-.24.55-.48.82-.72,5.95-5.2,11.88-10.42,17.78-15.68,1.35-1.2-.36-3.69-1.81-2.83-.2-.44-.67-.72-1.17-.35-1.78,1.31-3.58,2.6-5.39,3.89,1.64-1.55,3.28-3.1,4.89-4.69.9-.88.32-2.11-.57-2.47.32-.92-.41-1.91-1.32-2.03.11-.1.22-.2.33-.29,1.22-1.07-.08-2.71-1.37-2.44,1.2-.87,2.39-1.74,3.6-2.61,1.08-.77.06-2.64-1.03-1.86-.91.65-1.8,1.32-2.71,1.98-.06-.56-.62-1.09-1.2-.94-1,.27-1.99.59-2.98.95,4.14-2.14,8.54-4.3,11.67-7.54.41-.43.14-1.4-.52-1.32ZM63.92,56.45c-2.06,1.95-4.15,3.86-6.3,5.71-.33.28-.67.55-1.01.82,2.46-2.16,4.88-4.37,7.31-6.53ZM66.46,33.43c-.81.66-1.62,1.32-2.42,1.98-.02-.05-.04-.1-.06-.14.83-.61,1.65-1.23,2.49-1.84Z"/>
        <path class="cls-1" d="M65.14,66.02c2.16-2.21,4.62-4.49,6.22-7.2.53-.89-.6-1.59-1.27-1.03-2.34,1.92-4.31,4.47-6.51,6.58-2.19,2.1-5.03,3.73-6.97,6.06-.96,1.15.24,2.89,1.56,2.14,2.63-1.48,4.84-4.37,6.97-6.55Z"/>
        <path class="cls-1" d="M71.58,66.34c.26-.7-.37-1.59-1.12-1.33-.2.07-.41.16-.61.26.03-.04.06-.08.08-.12.51-.81-.56-1.48-1.18-.96-1.46,1.23-2.7,2.75-4.14,4.02-1.54,1.36-3.17,2.57-4.88,3.69-1.14.75-.05,2.69,1.05,1.9.08-.06.16-.12.24-.17.24.74,1.02,1.25,1.86.76.96-.56,1.82-1.28,2.65-2.04-.21.74.62,1.52,1.29,1.27,1.24-.45,2.11-1.67,3.02-2.63.92-.96,2.13-1.91,2.77-3.1.45-.84-.27-1.67-1.05-1.55Z"/>
        <path class="cls-1" d="M6.11,16.37c3.51-2.67,7.16-5.09,10.82-7.49-3.93,2.96-7.67,6.23-11.21,9.54-1.16,1.08.38,2.75,1.58,2-.52,1,.38,2.43,1.51,1.69,3.9-2.58,7.72-5.26,11.7-7.7,3.55-2.17,7.66-3.92,10.64-6.92.71-.71-.04-1.81-.9-1.63-4.02.86-7.75,3.68-11.19,5.94-2.74,1.8-5.47,3.66-8.12,5.64,6.51-5.14,13.45-9.3,20.51-13.66,0-.01-.01-.02-.02-.03,1.57-1.09.4-3.75-1.56-2.83-1.58.74-3.13,1.56-4.65,2.44.32-.22.64-.44.96-.66,1.5-1.06.21-3.31-1.4-2.53-7.24,3.54-13.91,9.01-20.01,14.39-.95.83.32,2.59,1.33,1.82Z"/>
      </g>
      <polygon class="cls-2" points="27.59 54.3 58.52 38.16 27.59 22.02 27.59 54.3"/>
    </g>
  </g>
</svg>