<?xml version="1.0" encoding="UTF-8"?>
<svg id="Capa_2" data-name="Capa 2" xmlns="http://www.w3.org/2000/svg" xmlns:xlink="http://www.w3.org/1999/xlink" viewBox="0 0 100.36 107.28">
  <defs>
    <style>
      .cls-1 {
        clip-path: url(#clippath);
      }

      .cls-2 {
        fill: none;
      }

      .cls-2, .cls-3, .cls-4, .cls-5, .cls-6, .cls-7, .cls-8, .cls-9, .cls-10, .cls-11, .cls-12, .cls-13, .cls-14, .cls-15, .cls-16, .cls-17, .cls-18, .cls-19, .cls-20, .cls-21 {
        stroke-width: 0px;
      }

      .cls-22 {
        clip-path: url(#clippath-1);
      }

      .cls-23 {
        clip-path: url(#clippath-4);
      }

      .cls-24 {
        clip-path: url(#clippath-3);
      }

      .cls-25 {
        clip-path: url(#clippath-2);
      }

      .cls-26 {
        clip-path: url(#clippath-7);
      }

      .cls-27 {
        clip-path: url(#clippath-8);
      }

      .cls-28 {
        clip-path: url(#clippath-6);
      }

      .cls-29 {
        clip-path: url(#clippath-5);
      }

      .cls-30 {
        clip-path: url(#clippath-9);
      }

      .cls-31 {
        clip-path: url(#clippath-20);
      }

      .cls-32 {
        clip-path: url(#clippath-21);
      }

      .cls-33 {
        clip-path: url(#clippath-14);
      }

      .cls-34 {
        clip-path: url(#clippath-13);
      }

      .cls-35 {
        clip-path: url(#clippath-12);
      }

      .cls-36 {
        clip-path: url(#clippath-10);
      }

      .cls-37 {
        clip-path: url(#clippath-15);
      }

      .cls-38 {
        clip-path: url(#clippath-17);
      }

      .cls-39 {
        clip-path: url(#clippath-16);
      }

      .cls-40 {
        clip-path: url(#clippath-19);
      }

      .cls-41 {
        clip-path: url(#clippath-11);
      }

      .cls-42 {
        clip-path: url(#clippath-18);
      }

      .cls-43 {
        isolation: isolate;
      }

      .cls-3 {
        fill: #f3e7e6;
      }

      .cls-4 {
        fill: #5186eb;
      }

      .cls-5 {
        fill: #6361c2;
      }

      .cls-6 {
        fill: #403d8b;
      }

      .cls-7 {
        fill: #221c3a;
      }

      .cls-8 {
        fill: #c48401;
      }

      .cls-9 {
        fill: #b1a2a2;
      }

      .cls-10 {
        fill: #cfbebe;
      }

      .cls-11 {
        fill: #b58978;
      }

      .cls-12 {
        fill: #85b208;
      }

      .cls-13 {
        fill: #fda4fe;
      }

      .cls-14 {
        fill: #fbbd9e;
      }

      .cls-15 {
        fill: #ff637b;
      }

      .cls-16 {
        fill: #fff;
      }

      .cls-17 {
        fill: #fff8f8;
      }

      .cls-18 {
        fill: #ffce45;
      }

      .cls-19 {
        fill: #fcbe9f;
      }

      .cls-20 {
        fill: #eadcdb;
      }

      .cls-21 {
        fill: #eaa510;
      }
    </style>
    <clipPath id="clippath">
      <path class="cls-2" d="M66.19,71.48l3.78,2.2c.31.18.5.56.5,1.11,0,1.1-.77,2.43-1.72,2.98l-3.78-2.2c.95-.55,1.73-1.88,1.72-2.98,0-.55-.19-.93-.5-1.11Z"/>
    </clipPath>
    <clipPath id="clippath-1">
      <path class="cls-2" d="M67.52,77.89l-3.78-2.2c.32.18.75.16,1.23-.12l3.78,2.2c-.48.28-.92.3-1.23.12Z"/>
    </clipPath>
    <clipPath id="clippath-2">
      <path class="cls-2" d="M64.51,81.05l-3.78-2.2c-.21-.3-.38-.65-.49-1.07l3.78,2.2c.11.42.28.77.49,1.07Z"/>
    </clipPath>
    <clipPath id="clippath-3">
      <path class="cls-2" d="M70,69.61l-3.78-2.2c.42-.12.81-.15,1.18-.12l3.78,2.2c-.37-.03-.76,0-1.18.12Z"/>
    </clipPath>
    <clipPath id="clippath-4">
      <path class="cls-2" d="M64.01,77.07l-3.78-2.2c.11-.55.27-1.1.48-1.64l3.78,2.2c-.21.54-.37,1.09-.48,1.64Z"/>
    </clipPath>
    <clipPath id="clippath-5">
      <path class="cls-2" d="M66.28,72.33l-3.78-2.2c.36-.45.76-.87,1.17-1.24l3.78,2.2c-.42.37-.81.79-1.17,1.24Z"/>
    </clipPath>
    <clipPath id="clippath-6">
      <path class="cls-2" d="M54.96,59.21l3.78,2.2c1.45.84,2.34,2.63,2.35,5.17.01,5.12-3.58,11.34-8.03,13.91l-3.78-2.2c4.45-2.57,8.05-8.8,8.03-13.91,0-2.54-.9-4.33-2.35-5.17Z"/>
    </clipPath>
    <clipPath id="clippath-7">
      <path class="cls-2" d="M47.33,81.05l-3.78-2.2c1.47.85,3.5.73,5.73-.56l3.78,2.2c-2.24,1.29-4.27,1.41-5.73.56Z"/>
    </clipPath>
    <clipPath id="clippath-8">
      <path class="cls-2" d="M63.41,48.83l-3.78-2.2c.31.18.75.16,1.22-.12l3.78,2.2c-.48.28-.91.3-1.22.12Z"/>
    </clipPath>
    <clipPath id="clippath-9">
      <path class="cls-2" d="M62.07,42.42l3.78,2.2c.31.18.5.56.51,1.11,0,1.1-.77,2.44-1.72,2.99l-3.78-2.2c.95-.55,1.73-1.89,1.72-2.99,0-.54-.19-.93-.51-1.11Z"/>
    </clipPath>
    <clipPath id="clippath-10">
      <path class="cls-2" d="M43.94,84.79l-3.78-2.2c-.4-.34-.75-.74-1.06-1.2l3.78,2.2c.31.46.67.86,1.06,1.2Z"/>
    </clipPath>
    <clipPath id="clippath-11">
      <path class="cls-2" d="M58.72,56.28l-3.78-2.2c.53.04,1.02.13,1.49.29l3.78,2.2c-.47-.16-.97-.25-1.49-.29Z"/>
    </clipPath>
    <clipPath id="clippath-12">
      <path class="cls-2" d="M60.4,51.99l-3.78-2.2c-.22-.29-.38-.65-.49-1.07l3.78,2.2c.12.41.28.77.49,1.07Z"/>
    </clipPath>
    <clipPath id="clippath-13">
      <path class="cls-2" d="M65.88,40.55l-3.78-2.2c.42-.11.82-.16,1.18-.12l3.78,2.2c-.37-.03-.77.02-1.18.12Z"/>
    </clipPath>
    <clipPath id="clippath-14">
      <path class="cls-2" d="M41.84,81.3l-3.78-2.2c-.16-.56-.28-1.17-.35-1.83l3.78,2.2c.07.66.19,1.26.35,1.83Z"/>
    </clipPath>
    <clipPath id="clippath-15">
      <path class="cls-2" d="M54.35,57.17l-3.78-2.2c.64-.28,1.26-.5,1.86-.65l3.78,2.2c-.6.15-1.22.36-1.86.65Z"/>
    </clipPath>
    <clipPath id="clippath-16">
      <path class="cls-2" d="M59.89,48l-3.78-2.2c.11-.54.27-1.09.48-1.63l3.78,2.2c-.21.54-.37,1.09-.48,1.63Z"/>
    </clipPath>
    <clipPath id="clippath-17">
      <path class="cls-2" d="M62.16,43.26l-3.78-2.2c.36-.45.76-.87,1.18-1.24l3.78,2.2c-.42.37-.82.79-1.18,1.24Z"/>
    </clipPath>
    <clipPath id="clippath-18">
      <path class="cls-2" d="M41.48,76.35l-3.78-2.2c.07-.77.19-1.56.36-2.35l3.78,2.2c-.18.8-.3,1.58-.36,2.35Z"/>
    </clipPath>
    <clipPath id="clippath-19">
      <path class="cls-2" d="M49.87,60.15l-3.78-2.2c.57-.51,1.16-.98,1.76-1.41l3.78,2.2c-.6.42-1.19.9-1.76,1.41Z"/>
    </clipPath>
    <clipPath id="clippath-20">
      <path class="cls-2" d="M42.88,70.52l-3.78-2.2c.3-.77.62-1.53.99-2.28l3.78,2.2c-.37.75-.7,1.51-.99,2.28Z"/>
    </clipPath>
    <clipPath id="clippath-21">
      <path class="cls-2" d="M45.79,64.92l-3.78-2.2c.5-.74,1.02-1.45,1.58-2.13l3.78,2.2c-.56.68-1.08,1.39-1.58,2.13Z"/>
    </clipPath>
  </defs>
  <g id="_0" data-name="0">
    <g id="_7" data-name="7">
      <g>
        <path class="cls-5" d="M32.93,26.54c-9.7,5.6-17.54,19.17-17.5,30.32.03,11.14,7.92,15.66,17.62,10.06,9.7-5.6,17.54-19.19,17.5-30.33-.03-11.14-7.92-15.64-17.62-10.04Z"/>
        <path class="cls-6" d="M25.17,69.47c-1.7,0-3.27-.4-4.66-1.2-3.36-1.93-5.22-5.99-5.24-11.42-.03-11.17,7.85-24.83,17.58-30.45,4.76-2.74,9.23-3.19,12.62-1.24,3.36,1.93,5.21,5.98,5.23,11.41.03,11.18-7.85,24.85-17.58,30.46-2.8,1.62-5.5,2.43-7.95,2.43ZM40.81,24.27c-2.39,0-5.05.8-7.8,2.4-9.64,5.57-17.46,19.11-17.43,30.19.02,5.32,1.82,9.29,5.09,11.16,3.28,1.89,7.65,1.45,12.31-1.24,9.64-5.57,17.46-19.12,17.43-30.2-.02-5.32-1.82-9.28-5.08-11.15-1.34-.77-2.86-1.15-4.51-1.15Z"/>
      </g>
      <g>
        <polygon class="cls-6" points="0 102.81 7.74 107.28 32.18 107.28 33.87 83.26 0 102.81"/>
        <g>
          <path class="cls-16" d="M26.35,104.06s-.05,0-.08-.02c-.05-.03-.07-.08-.07-.13l.03-47.93s0-.05.02-.08l9.53-16.51s.03-.04.05-.05l30.8-17.78s.1-.03.15,0c.05.03.07.08.07.13v58.92c0,.05-.02.1-.07.13l-40.36,23.3s-.05.02-.08.02ZM26.53,56.02l-.03,47.63,40.06-23.13V21.95s-30.55,17.63-30.55,17.63l-9.49,16.44Z"/>
          <g class="cls-43">
            <polygon class="cls-9" points="32.18 107.28 30.58 106.34 30.61 58.41 32.21 59.35 32.18 107.28"/>
            <polygon class="cls-3" points="32.21 59.35 30.61 58.41 40.14 41.91 41.74 42.84 32.21 59.35"/>
            <polygon class="cls-17" points="41.74 42.84 40.14 41.91 70.94 24.12 72.54 25.06 41.74 42.84"/>
            <polygon class="cls-20" points="72.54 25.06 72.55 83.97 32.18 107.28 32.21 59.35 41.74 42.84 72.54 25.06"/>
          </g>
        </g>
        <g class="cls-43">
          <polygon class="cls-9" points="67.75 83.77 63.97 81.57 63.72 79.76 67.5 81.96 67.75 83.77"/>
          <polygon class="cls-17" points="73.48 71.59 69.7 69.39 71.4 68.68 75.18 70.88 73.48 71.59"/>
          <g class="cls-43">
            <g class="cls-1">
              <path class="cls-9" d="M68.75,77.77l-3.78-2.2c.95-.55,1.73-1.88,1.72-2.98,0-.55-.19-.93-.5-1.11l3.78,2.2c.31.18.5.56.5,1.11,0,1.1-.77,2.43-1.72,2.98h0Z"/>
            </g>
          </g>
          <g class="cls-43">
            <g class="cls-22">
              <path class="cls-9" d="M67.52,77.89l-3.78-2.2c.32.18.75.16,1.23-.12l3.78,2.2c-.48.28-.92.3-1.23.12h0Z"/>
            </g>
          </g>
          <polygon class="cls-9" points="63.49 83.23 59.71 81.03 60.73 78.86 64.51 81.05 63.49 83.23"/>
          <polygon class="cls-9" points="71.18 69.49 67.4 67.29 68.78 65.31 72.56 67.51 71.18 69.49"/>
          <g class="cls-43">
            <g class="cls-25">
              <path class="cls-9" d="M64.51,81.05l-3.78-2.2c-.21-.3-.38-.65-.49-1.07l3.78,2.2c.11.42.28.77.49,1.07h0Z"/>
            </g>
          </g>
          <g class="cls-43">
            <g class="cls-24">
              <path class="cls-9" d="M70,69.61l-3.78-2.2c.42-.12.81-.15,1.18-.12l3.78,2.2c-.37-.03-.76,0-1.18.12h0Z"/>
            </g>
          </g>
          <g class="cls-43">
            <g class="cls-23">
              <path class="cls-9" d="M64.01,77.07l-3.78-2.2c.11-.55.27-1.1.48-1.64l3.78,2.2c-.21.54-.37,1.09-.48,1.64h0Z"/>
            </g>
          </g>
          <g class="cls-43">
            <g class="cls-29">
              <path class="cls-9" d="M66.28,72.33l-3.78-2.2c.36-.45.76-.87,1.17-1.24l3.78,2.2c-.42.37-.81.79-1.17,1.24h0Z"/>
            </g>
          </g>
          <polygon class="cls-9" points="62.31 80.69 58.53 78.5 58.53 76.13 62.31 78.33 62.31 80.69"/>
          <polygon class="cls-10" points="62.31 78.33 58.53 76.13 60.23 74.87 64.01 77.07 62.31 78.33"/>
          <polygon class="cls-17" points="67.7 68.99 63.91 66.79 65.97 65.6 69.75 67.8 67.7 68.99"/>
          <polygon class="cls-9" points="67.46 71.08 63.67 68.89 63.91 66.79 67.7 68.99 67.46 71.08"/>
          <polygon class="cls-9" points="64.49 75.43 60.71 73.23 59.67 72.25 63.45 74.45 64.49 75.43"/>
          <g>
            <path class="cls-13" d="M75.19,73.25l-1.7,1.26c-.11.55-.27,1.1-.48,1.64l1.04.98-1.45,2.51-1.38-.39c-.36.45-.76.87-1.17,1.24l-.24,2.1-2.05,1.19-.25-1.81c-.42.12-.81.15-1.18.12l-1.37,1.98-1.46-.83,1.02-2.17c-.21-.3-.38-.65-.49-1.07l-1.71.71v-2.37s1.69-1.26,1.69-1.26c.11-.55.27-1.1.48-1.64l-1.04-.98,1.45-2.51,1.38.39c.36-.45.76-.87,1.17-1.24l.24-2.1,2.05-1.19.25,1.81c.42-.12.81-.15,1.18-.12l1.38-1.98,1.45.84-1.02,2.17c.21.3.38.65.49,1.07l1.71-.71v2.37ZM68.75,77.77c.95-.55,1.73-1.88,1.72-2.98,0-1.1-.78-1.54-1.74-.99-.95.55-1.73,1.88-1.72,2.99,0,1.1.78,1.53,1.74.98h0Z"/>
            <path class="cls-5" d="M64.95,84.16s-.03,0-.05-.01l-1.46-.83s-.06-.08-.04-.13l1-2.12c-.19-.28-.34-.59-.44-.95l-1.6.67s-.07,0-.09,0c-.03-.02-.04-.05-.04-.08v-2.37s0-.06.03-.08l1.67-1.23c.11-.53.26-1.05.45-1.55l-.99-.94s-.04-.08-.02-.12l1.45-2.51s.07-.06.11-.05l1.32.38c.35-.43.72-.82,1.11-1.18l.24-2.06s.02-.06.05-.08l2.05-1.19s.06-.02.09,0c.03.01.05.04.06.08l.24,1.7c.36-.09.71-.12,1.04-.1l1.35-1.94s.09-.06.13-.03l1.45.84s.06.08.04.13l-1,2.12c.19.28.34.59.44.95l1.6-.67s.07,0,.09,0c.03.02.05.05.05.08v2.37s0,.06-.03.08l-1.67,1.24c-.11.53-.26,1.05-.45,1.55l.99.94s.04.08.02.12l-1.45,2.51s-.07.06-.11.05l-1.32-.37c-.35.43-.73.83-1.12,1.18l-.24,2.06s-.02.06-.05.08l-2.06,1.19s-.06.02-.09,0c-.03-.01-.05-.04-.06-.08l-.24-1.7c-.36.09-.71.12-1.04.1l-1.34,1.93s-.05.04-.08.04ZM63.62,83.19l1.3.74,1.32-1.91s.05-.04.09-.04c.36.03.75,0,1.14-.12.03,0,.06,0,.08.01.02.02.04.04.04.07l.23,1.67,1.88-1.09.23-2.05s.01-.05.03-.06c.41-.36.8-.78,1.16-1.23.03-.03.07-.05.11-.03l1.3.37,1.37-2.38-.98-.93s-.04-.07-.02-.11c.2-.52.36-1.07.48-1.62,0-.02.02-.04.04-.06l1.66-1.23v-2.17s-1.58.65-1.58.65c-.03,0-.06,0-.08,0s-.04-.04-.05-.06c-.1-.39-.26-.74-.47-1.04-.02-.03-.02-.07,0-.1l.98-2.09-1.29-.74-1.33,1.91s-.06.04-.09.04c-.36-.03-.75,0-1.14.12-.03,0-.06,0-.08-.01-.02-.02-.04-.04-.04-.07l-.23-1.66-1.88,1.09-.23,2.05s-.01.05-.03.06c-.41.37-.8.78-1.16,1.23-.03.03-.07.05-.11.03l-1.3-.37-1.37,2.38.98.93s.04.07.02.11c-.2.53-.36,1.07-.48,1.62,0,.02-.02.05-.04.06l-1.66,1.23v2.17s1.58-.65,1.58-.65c.03-.01.06-.01.08,0,.03.01.04.04.05.06.1.39.26.74.47,1.04.02.03.02.07,0,.1l-.98,2.09ZM67.98,78.11c-.18,0-.35-.04-.5-.13-.36-.21-.55-.63-.56-1.19,0-1.13.79-2.51,1.77-3.07.5-.29.97-.33,1.33-.12.36.21.56.63.56,1.2,0,1.12-.79,2.5-1.77,3.07-.29.17-.57.25-.83.25ZM69.52,73.66c-.22,0-.47.08-.73.23-.93.53-1.68,1.83-1.67,2.9,0,.49.16.85.46,1.02.3.17.7.13,1.13-.12.93-.53,1.68-1.83,1.67-2.89,0-.49-.16-.86-.46-1.02-.12-.07-.25-.1-.4-.1Z"/>
          </g>
          <polygon class="cls-9" points="63.45 74.45 59.67 72.25 61.12 69.74 64.9 71.93 63.45 74.45"/>
          <polygon class="cls-3" points="64.9 71.93 61.12 69.74 62.5 70.13 66.28 72.33 64.9 71.93"/>
          <polygon class="cls-9" points="57.34 83.86 53.56 81.66 52.43 80.1 56.21 82.3 57.34 83.86"/>
          <polygon class="cls-17" points="64.23 68.46 60.45 66.26 62.38 66.46 66.16 68.66 64.23 68.46"/>
          <polygon class="cls-9" points="52.05 87.64 48.27 85.44 47.95 83.09 51.73 85.28 52.05 87.64"/>
          <polygon class="cls-17" points="64.59 62.98 60.81 60.78 63.02 59.87 66.8 62.07 64.59 62.98"/>
          <polygon class="cls-9" points="46.8 88.98 43.02 86.78 43.58 83.98 47.36 86.17 46.8 88.98"/>
          <polygon class="cls-17" points="63.2 58.87 59.41 56.67 61.58 54.8 65.36 56.99 63.2 58.87"/>
          <g class="cls-43">
            <g class="cls-28">
              <path class="cls-9" d="M53.06,80.49l-3.78-2.2c4.45-2.57,8.05-8.8,8.03-13.91,0-2.54-.9-4.33-2.35-5.17l3.78,2.2c1.45.84,2.34,2.63,2.35,5.17.01,5.12-3.58,11.34-8.03,13.91h0Z"/>
            </g>
          </g>
          <g class="cls-43">
            <g class="cls-26">
              <path class="cls-9" d="M47.33,81.05l-3.78-2.2c1.47.85,3.5.73,5.73-.56l3.78,2.2c-2.24,1.29-4.27,1.41-5.73.56h0Z"/>
            </g>
          </g>
          <polygon class="cls-9" points="63.63 54.71 59.85 52.52 59.6 50.7 63.38 52.9 63.63 54.71"/>
          <polygon class="cls-17" points="69.36 42.52 65.58 40.32 67.29 39.62 71.07 41.82 69.36 42.52"/>
          <polygon class="cls-9" points="42.61 87.62 38.83 85.42 40.16 82.59 43.94 84.79 42.61 87.62"/>
          <polygon class="cls-9" points="60.21 56.57 56.43 54.37 58.21 51.8 61.99 54 60.21 56.57"/>
          <g class="cls-43">
            <g class="cls-27">
              <path class="cls-9" d="M63.41,48.83l-3.78-2.2c.31.18.75.16,1.22-.12l3.78,2.2c-.48.28-.91.3-1.22.12h0Z"/>
            </g>
          </g>
          <g class="cls-43">
            <g class="cls-30">
              <path class="cls-9" d="M64.64,48.71l-3.78-2.2c.95-.55,1.73-1.89,1.72-2.99,0-.54-.19-.93-.51-1.11l3.78,2.2c.31.18.5.56.51,1.11,0,1.1-.77,2.44-1.72,2.99h0Z"/>
            </g>
          </g>
          <g class="cls-43">
            <g class="cls-36">
              <path class="cls-9" d="M43.94,84.79l-3.78-2.2c-.4-.34-.75-.74-1.06-1.2l3.78,2.2c.31.46.67.86,1.06,1.2h0Z"/>
            </g>
          </g>
          <g class="cls-43">
            <g class="cls-41">
              <path class="cls-9" d="M58.72,56.28l-3.78-2.2c.53.04,1.02.13,1.49.29l3.78,2.2c-.47-.16-.97-.25-1.49-.29h0Z"/>
            </g>
          </g>
          <polygon class="cls-9" points="59.37 54.17 55.59 51.97 56.62 49.8 60.4 51.99 59.37 54.17"/>
          <polygon class="cls-9" points="67.07 40.42 63.28 38.23 64.66 36.25 68.44 38.44 67.07 40.42"/>
          <g class="cls-43">
            <g class="cls-35">
              <path class="cls-9" d="M60.4,51.99l-3.78-2.2c-.22-.29-.38-.65-.49-1.07l3.78,2.2c.12.41.28.77.49,1.07h0Z"/>
            </g>
          </g>
          <g class="cls-43">
            <g class="cls-34">
              <path class="cls-9" d="M65.88,40.55l-3.78-2.2c.42-.11.82-.16,1.18-.12l3.78,2.2c-.37-.03-.77.02-1.18.12h0Z"/>
            </g>
          </g>
          <polygon class="cls-9" points="40.72 85.46 36.94 83.27 36.14 81.5 39.92 83.7 40.72 85.46"/>
          <polygon class="cls-10" points="39.92 83.7 36.14 81.5 38.06 79.1 41.84 81.3 39.92 83.7"/>
          <polygon class="cls-9" points="56.21 56.52 52.43 54.32 53.57 51.46 57.35 53.66 56.21 56.52"/>
          <polygon class="cls-17" points="57.35 53.66 53.57 51.46 55.49 51.28 59.28 53.48 57.35 53.66"/>
          <g class="cls-43">
            <g class="cls-33">
              <path class="cls-9" d="M41.84,81.3l-3.78-2.2c-.16-.56-.28-1.17-.35-1.83l3.78,2.2c.07.66.19,1.26.35,1.83h0Z"/>
            </g>
          </g>
          <g class="cls-43">
            <g class="cls-37">
              <path class="cls-9" d="M54.35,57.17l-3.78-2.2c.64-.28,1.26-.5,1.86-.65l3.78,2.2c-.6.15-1.22.36-1.86.65h0Z"/>
            </g>
          </g>
          <g class="cls-43">
            <g class="cls-39">
              <path class="cls-9" d="M59.89,48l-3.78-2.2c.11-.54.27-1.09.48-1.63l3.78,2.2c-.21.54-.37,1.09-.48,1.63h0Z"/>
            </g>
          </g>
          <g class="cls-43">
            <g class="cls-38">
              <path class="cls-9" d="M62.16,43.26l-3.78-2.2c.36-.45.76-.87,1.18-1.24l3.78,2.2c-.42.37-.82.79-1.18,1.24h0Z"/>
            </g>
          </g>
          <polygon class="cls-9" points="58.2 51.63 54.41 49.43 54.41 47.07 58.19 49.27 58.2 51.63"/>
          <polygon class="cls-10" points="58.19 49.27 54.41 47.07 56.11 45.8 59.89 48 58.19 49.27"/>
          <polygon class="cls-17" points="63.58 39.92 59.8 37.72 61.86 36.54 65.64 38.73 63.58 39.92"/>
          <polygon class="cls-9" points="63.34 42.02 59.56 39.82 59.8 37.72 63.58 39.92 63.34 42.02"/>
          <polygon class="cls-9" points="60.38 46.37 56.6 44.17 55.56 43.18 59.34 45.38 60.38 46.37"/>
          <polygon class="cls-3" points="60.79 42.87 57.01 40.67 58.38 41.06 62.16 43.26 60.79 42.87"/>
          <polygon class="cls-9" points="59.34 45.38 55.56 43.18 57.01 40.67 60.79 42.87 59.34 45.38"/>
          <g>
            <path class="cls-4" d="M71.07,44.18l-1.7,1.26c-.11.54-.27,1.09-.48,1.63l1.04.98-1.45,2.51-1.38-.39c-.36.45-.76.86-1.17,1.24l-.24,2.1-2.05,1.19-.25-1.81c-.42.11-.81.15-1.18.12l-1.37,1.98-1.46-.83,1.03-2.18c-.22-.29-.38-.65-.49-1.07l-1.71.7v-2.36s1.7-1.27,1.7-1.27c.11-.54.27-1.09.48-1.63l-1.04-.99,1.45-2.51,1.37.39c.36-.45.76-.87,1.18-1.24l.23-2.1,2.06-1.19.25,1.82c.42-.11.82-.16,1.18-.12l1.37-1.98,1.46.83-1.03,2.18c.21.3.38.65.49,1.07l1.7-.7v2.36ZM64.64,48.71c.95-.55,1.73-1.89,1.72-2.99,0-1.1-.78-1.54-1.74-.99-.95.55-1.72,1.89-1.72,2.98,0,1.1.78,1.54,1.73.99h0Z"/>
            <path class="cls-5" d="M60.83,55.1s-.03,0-.05-.01l-1.46-.83s-.06-.08-.04-.13l1-2.12c-.18-.26-.33-.58-.44-.94l-1.6.66s-.07,0-.09,0c-.03-.02-.04-.05-.04-.08v-2.36s0-.06.03-.08l1.68-1.25c.1-.5.25-1.02.45-1.55l-.99-.95s-.04-.08-.02-.12l1.45-2.51s.07-.06.11-.05l1.31.37c.35-.43.73-.83,1.12-1.18l.23-2.06s.02-.06.05-.08l2.06-1.19s.06-.02.09,0c.03.01.05.04.06.08l.23,1.71c.38-.09.73-.13,1.05-.1l1.34-1.93s.09-.06.13-.03l1.46.83s.06.08.04.13l-1,2.12c.19.27.34.59.44.94l1.6-.66s.07,0,.09,0c.03.02.04.05.04.08v2.36s0,.06-.03.08l-1.67,1.24c-.11.53-.26,1.05-.45,1.55l.99.94s.04.08.02.12l-1.45,2.51s-.07.06-.11.05l-1.32-.37c-.34.42-.71.81-1.12,1.17l-.24,2.07s-.02.06-.05.08l-2.05,1.19s-.06.02-.09,0c-.03-.01-.05-.04-.06-.08l-.24-1.7c-.37.09-.73.12-1.04.1l-1.34,1.93s-.05.04-.08.04ZM59.5,54.13l1.3.74,1.32-1.91s.06-.04.09-.04c.35.03.73,0,1.14-.12.03,0,.06,0,.08.01.02.02.04.04.04.07l.23,1.67,1.88-1.09.23-2.05s.01-.05.03-.06c.42-.38.81-.79,1.16-1.22.03-.03.07-.04.1-.03l1.3.37,1.37-2.38-.98-.93s-.04-.07-.02-.11c.2-.52.36-1.06.48-1.62,0-.02.02-.05.04-.06l1.66-1.23v-2.16s-1.57.64-1.57.64c-.03,0-.06,0-.08,0s-.04-.04-.05-.06c-.11-.4-.27-.75-.48-1.04-.02-.03-.02-.07,0-.1l.99-2.09-1.3-.74-1.32,1.91s-.06.04-.09.04c-.34-.03-.73.01-1.15.12-.03,0-.06,0-.08-.01-.02-.02-.04-.04-.04-.07l-.23-1.67-1.89,1.09-.23,2.05s-.02.05-.03.06c-.41.36-.8.77-1.17,1.23-.03.03-.07.04-.11.03l-1.3-.37-1.37,2.37.98.94s.04.07.02.11c-.21.55-.37,1.09-.48,1.61,0,.02-.02.05-.04.06l-1.67,1.24v2.16s1.58-.65,1.58-.65c.03-.01.06,0,.08,0,.03.01.04.04.05.06.12.41.28.76.48,1.04.02.03.03.07,0,.1l-.99,2.09ZM63.87,49.05c-.18,0-.35-.04-.5-.13-.36-.21-.56-.63-.56-1.2,0-1.13.79-2.5,1.77-3.07.49-.28.97-.33,1.33-.12.36.21.56.63.56,1.2,0,1.13-.79,2.51-1.77,3.07-.29.16-.57.25-.82.25ZM65.4,44.6c-.22,0-.47.07-.72.22-.92.53-1.67,1.83-1.67,2.9,0,.49.16.86.46,1.03.3.17.69.13,1.12-.12.93-.54,1.68-1.84,1.67-2.9,0-.49-.16-.85-.46-1.02-.12-.07-.26-.1-.4-.1Z"/>
          </g>
          <g class="cls-43">
            <g class="cls-42">
              <path class="cls-9" d="M41.48,76.35l-3.78-2.2c.07-.77.19-1.56.36-2.35l3.78,2.2c-.18.8-.3,1.58-.36,2.35h0Z"/>
            </g>
          </g>
          <g class="cls-43">
            <g class="cls-40">
              <path class="cls-9" d="M49.87,60.15l-3.78-2.2c.57-.51,1.16-.98,1.76-1.41l3.78,2.2c-.6.42-1.19.9-1.76,1.41h0Z"/>
            </g>
          </g>
          <polygon class="cls-10" points="39.27 77.99 35.49 75.8 37.7 74.15 41.48 76.35 39.27 77.99"/>
          <polygon class="cls-9" points="39.28 80.39 35.5 78.19 35.49 75.8 39.27 77.99 39.28 80.39"/>
          <polygon class="cls-9" points="51.63 58.74 47.85 56.55 48.16 53.82 51.94 56.02 51.63 58.74"/>
          <polygon class="cls-17" points="51.94 56.02 48.16 53.82 50.24 52.62 54.02 54.82 51.94 56.02"/>
          <g class="cls-43">
            <g class="cls-31">
              <path class="cls-9" d="M42.88,70.52l-3.78-2.2c.3-.77.62-1.53.99-2.28l3.78,2.2c-.37.75-.7,1.51-.99,2.28h0Z"/>
            </g>
          </g>
          <g class="cls-43">
            <g class="cls-32">
              <path class="cls-9" d="M45.79,64.92l-3.78-2.2c.5-.74,1.02-1.45,1.58-2.13l3.78,2.2c-.56.68-1.08,1.39-1.58,2.13h0Z"/>
            </g>
          </g>
          <polygon class="cls-9" points="39.92 73.79 36.14 71.6 36.94 68.92 40.72 71.12 39.92 73.79"/>
          <polygon class="cls-10" points="40.72 71.12 36.94 68.92 39.1 68.32 42.88 70.52 40.72 71.12"/>
          <polygon class="cls-3" points="46.81 60.62 43.03 58.42 44.96 56.4 48.74 58.6 46.81 60.62"/>
          <polygon class="cls-9" points="47.36 62.79 43.58 60.59 43.03 58.42 46.81 60.62 47.36 62.79"/>
          <polygon class="cls-9" points="43.87 68.23 40.09 66.04 38.75 64.75 42.53 66.95 43.87 68.23"/>
          <polygon class="cls-9" points="42.53 66.95 38.75 64.75 40.22 62.21 44 64.4 42.53 66.95"/>
          <polygon class="cls-3" points="44 64.4 40.22 62.21 42.01 62.72 45.79 64.92 44 64.4"/>
          <g>
            <path class="cls-18" d="M66.81,64.47l-2.21,1.64c-.07.77-.2,1.56-.36,2.35l1.92.2-.8,2.68-2.15.6c-.3.77-.63,1.53-1,2.29l1.35,1.27-1.47,2.55-1.79-.51c-.49.74-1.02,1.45-1.57,2.12l.55,2.17-1.93,2.02-1.13-1.55c-.57.51-1.16.98-1.76,1.41l-.31,2.72-2.08,1.2-.32-2.35c-.64.28-1.26.5-1.86.65l-1.14,2.86-1.93.19.56-2.81c-.53-.04-1.02-.13-1.49-.29l-1.78,2.57-1.48-.84,1.33-2.82c-.4-.34-.75-.74-1.06-1.2l-2.16,1.87-.79-1.76,1.92-2.4c-.16-.56-.28-1.17-.35-1.83l-2.21.91v-2.39s2.2-1.64,2.2-1.64c.07-.77.19-1.56.36-2.35l-1.92-.2.8-2.67,2.16-.6c.3-.77.62-1.53.99-2.28l-1.34-1.28,1.47-2.55,1.79.51c.5-.74,1.02-1.45,1.58-2.13l-.56-2.17,1.93-2.02,1.13,1.55c.57-.51,1.16-.98,1.76-1.41l.31-2.72,2.08-1.2.32,2.35c.64-.28,1.26-.5,1.86-.65l1.14-2.86,1.93-.19-.56,2.81c.53.04,1.02.13,1.49.29l1.78-2.57,1.48.84-1.33,2.82c.39.35.75.75,1.06,1.2l2.16-1.87.8,1.76-1.92,2.41c.16.56.28,1.17.35,1.82l2.21-.91v2.4ZM53.06,80.49c4.45-2.57,8.05-8.8,8.03-13.91s-3.63-7.18-8.09-4.61c-4.45,2.57-8.05,8.8-8.03,13.91.01,5.12,3.64,7.18,8.09,4.61h0Z"/>
            <path class="cls-5" d="M46.8,89.08s-.06-.01-.07-.03c-.02-.02-.03-.06-.02-.09l.54-2.7c-.47-.04-.92-.13-1.33-.26l-1.74,2.51s-.09.05-.13.03l-1.48-.84s-.06-.08-.04-.13l1.3-2.76c-.36-.32-.68-.68-.96-1.08l-2.08,1.8s-.06.03-.09.02c-.03,0-.06-.03-.07-.06l-.79-1.76s-.01-.07.01-.1l1.89-2.36c-.15-.53-.26-1.09-.33-1.66l-2.09.86s-.06.01-.09,0c-.03-.02-.04-.05-.04-.08v-2.39s0-.06.03-.08l2.17-1.62c.06-.71.18-1.45.34-2.21l-1.81-.19s-.06-.02-.07-.04c-.02-.03-.02-.06-.01-.08l.8-2.67s.04-.06.07-.07l2.11-.59c.29-.75.61-1.48.95-2.18l-1.29-1.23s-.04-.08-.02-.12l1.47-2.55s.07-.06.11-.05l1.71.49c.49-.72.99-1.4,1.51-2.03l-.54-2.12s0-.07.02-.09l1.93-2.02s.05-.03.08-.03c.03,0,.06.02.07.04l1.07,1.47c.57-.5,1.12-.94,1.65-1.32l.31-2.68s.02-.06.05-.08l2.08-1.2s.07-.02.09,0c.03.01.05.04.06.08l.3,2.22c.57-.25,1.15-.45,1.71-.59l1.12-2.81s.05-.06.08-.06l1.93-.19s.06,0,.08.03c.02.02.03.06.02.09l-.54,2.7c.47.04.92.13,1.33.26l1.74-2.51s.09-.06.13-.03l1.48.84s.06.08.04.13l-1.3,2.76c.36.33.68.69.95,1.08l2.08-1.8s.06-.03.09-.02c.03,0,.06.03.07.06l.8,1.76s.01.07-.01.1l-1.89,2.37c.14.5.25,1.05.33,1.65l2.09-.86s.06,0,.09,0c.03.02.04.05.04.08v2.4s0,.06-.03.08l-2.17,1.61c-.07.71-.18,1.46-.34,2.21l1.81.19s.06.02.07.04c.02.03.02.06.01.08l-.8,2.68s-.04.06-.07.07l-2.11.59c-.27.71-.6,1.45-.95,2.19l1.29,1.22s.04.08.02.12l-1.47,2.55s-.07.06-.11.05l-1.72-.49c-.46.69-.97,1.38-1.51,2.03l.54,2.12s0,.07-.02.09l-1.93,2.02s-.05.03-.08.03c-.03,0-.06-.02-.07-.04l-1.07-1.47c-.57.5-1.11.94-1.65,1.32l-.3,2.67s-.02.06-.05.08l-2.08,1.2s-.06.02-.09,0c-.03-.01-.05-.04-.06-.08l-.3-2.22c-.58.25-1.15.45-1.71.59l-1.12,2.81s-.05.06-.08.06l-1.93.19h0ZM45.87,85.78c.48.15.98.25,1.5.29.03,0,.05.02.07.04.02.02.02.05.02.08l-.53,2.67,1.73-.17,1.12-2.8s.04-.05.07-.06c.6-.15,1.22-.37,1.85-.64.03-.01.06-.01.09,0,.03.01.05.04.05.07l.3,2.2,1.91-1.1.3-2.67s.02-.05.04-.07c.57-.4,1.14-.86,1.75-1.41.02-.02.05-.02.08-.02.03,0,.05.02.07.04l1.06,1.46,1.81-1.89-.54-2.12s0-.06.02-.09c.56-.68,1.09-1.39,1.57-2.12.02-.04.07-.06.11-.04l1.72.49,1.39-2.41-1.29-1.22s-.04-.08-.02-.12c.38-.77.71-1.54,1-2.28.01-.03.04-.05.07-.06l2.1-.58.75-2.51-1.8-.19s-.05-.02-.07-.04c-.02-.02-.02-.05-.02-.08.17-.8.29-1.59.36-2.34,0-.03.02-.05.04-.07l2.17-1.61v-2.2s-2.08.86-2.08.86c-.03.01-.06,0-.09,0-.03-.02-.04-.04-.05-.07-.08-.66-.2-1.27-.35-1.8,0-.03,0-.07.02-.09l1.88-2.36-.72-1.58-2.06,1.78s-.05.02-.08.02c-.03,0-.05-.02-.07-.04-.29-.43-.64-.83-1.04-1.18-.03-.03-.04-.08-.02-.12l1.29-2.74-1.32-.75-1.73,2.5s-.07.05-.11.04c-.45-.15-.94-.24-1.47-.28-.03,0-.05-.02-.07-.04-.02-.02-.02-.05-.02-.08l.53-2.67-1.73.17-1.12,2.8s-.04.05-.07.06c-.6.15-1.22.37-1.85.64-.03.01-.06.01-.09,0-.03-.01-.05-.04-.05-.07l-.3-2.2-1.91,1.1-.31,2.67s-.02.05-.04.07c-.56.39-1.14.87-1.75,1.4-.02.02-.05.02-.08.02-.03,0-.05-.02-.07-.04l-1.06-1.46-1.81,1.9.54,2.12s0,.06-.02.09c-.54.65-1.07,1.37-1.57,2.12-.02.04-.07.05-.11.04l-1.71-.49-1.39,2.41,1.28,1.23s.04.08.02.12c-.35.72-.69,1.49-.99,2.27-.01.03-.04.05-.07.06l-2.11.59-.75,2.51,1.8.19s.05.02.07.04c.02.02.02.05.02.08-.18.8-.3,1.59-.36,2.34,0,.03-.02.05-.04.07l-2.17,1.61v2.2s2.08-.86,2.08-.86c.03-.01.06-.01.09,0,.03.02.05.04.05.08.07.62.19,1.23.35,1.81,0,.03,0,.06-.02.09l-1.88,2.35.71,1.58,2.06-1.78s.05-.02.08-.02c.03,0,.05.02.07.04.3.44.65.84,1.04,1.18.03.03.04.08.02.12l-1.29,2.74,1.32.75,1.73-2.5s.05-.04.08-.04ZM49.45,81.7c-.79,0-1.51-.18-2.16-.55-1.55-.89-2.41-2.76-2.42-5.26-.01-5.14,3.61-11.42,8.08-14,2.19-1.26,4.26-1.47,5.82-.57,1.55.89,2.41,2.76,2.42,5.27.01,5.14-3.61,11.42-8.08,14-1.29.74-2.54,1.12-3.66,1.12ZM56.63,60.96c-1.09,0-2.31.37-3.57,1.1-4.42,2.55-8,8.75-7.98,13.83,0,2.43.83,4.23,2.31,5.09,1.5.86,3.49.66,5.62-.57,4.42-2.55,8-8.75,7.98-13.83,0-2.43-.83-4.24-2.31-5.09-.61-.35-1.3-.53-2.05-.53Z"/>
          </g>
        </g>
        <g>
          <path class="cls-19" d="M92.62,54.09c.05.12.47,2.37,1.13,3.91.53-.51,1.07-1.01,1.58-1.54-.61-1.03-1.61-2.82-1.61-2.82,0,0,.1-1.28-.12-1.68-.17-.31-.37-.63-.65-.85-.34-.27-.87-.19-1.24-.05-.14.05-.25.27-.08.36-.19.08-.34.31-.2.48-.19.09-.17.33-.09.48.01.02-.02.21,0,.26.02.11.06.2.12.29.04.07.09.13.14.18.11.11.17.22.3.32.12.09.23.19.34.29.1.09.34.25.39.37Z"/>
          <g>
            <g>
              <g class="cls-43">
                <polygon class="cls-18" points="91.67 1.41 90.54 .76 91.85 0 92.98 .66 91.67 1.41"/>
                <polygon class="cls-8" points="91.66 83.08 90.53 82.42 90.54 .76 91.67 1.41 91.66 83.08"/>
                <polygon class="cls-21" points="91.67 1.41 92.98 .66 92.97 82.33 91.66 83.08 91.67 1.41"/>
              </g>
              <g class="cls-43">
                <polygon class="cls-8" points="80.06 89.78 78.92 89.13 78.93 7.46 80.07 8.11 80.06 89.78"/>
                <polygon class="cls-18" points="80.07 8.11 78.93 7.46 80.24 6.7 81.37 7.36 80.07 8.11"/>
                <polygon class="cls-21" points="80.06 89.78 80.07 8.11 81.37 7.36 81.36 89.03 80.06 89.78"/>
              </g>
            </g>
            <g>
              <g class="cls-43">
                <polygon class="cls-18" points="80.51 12.8 79.94 12.47 92.86 5.01 93.43 5.34 80.51 12.8"/>
                <polygon class="cls-8" points="80.51 14.87 79.94 14.54 79.94 12.47 80.51 12.8 80.51 14.87"/>
                <polygon class="cls-21" points="80.51 12.8 93.43 5.34 93.43 7.41 80.51 14.87 80.51 12.8"/>
              </g>
              <g class="cls-43">
                <polygon class="cls-8" points="80.52 24.93 79.95 24.6 79.95 22.52 80.52 22.85 80.52 24.93"/>
                <polygon class="cls-18" points="80.52 22.85 79.95 22.52 92.87 15.06 93.44 15.39 80.52 22.85"/>
                <polygon class="cls-21" points="80.52 24.93 80.52 22.85 93.44 15.39 93.44 17.47 80.52 24.93"/>
              </g>
              <g class="cls-43">
                <polygon class="cls-8" points="80.53 34.98 79.97 34.65 79.96 32.58 80.53 32.91 80.53 34.98"/>
                <polygon class="cls-18" points="80.53 32.91 79.96 32.58 92.89 25.12 93.45 25.45 80.53 32.91"/>
                <polygon class="cls-21" points="80.53 34.98 80.53 32.91 93.45 25.45 93.45 27.52 80.53 34.98"/>
              </g>
              <g class="cls-43">
                <polygon class="cls-8" points="80.54 45.03 79.98 44.7 79.98 42.63 80.54 42.95 80.54 45.03"/>
                <polygon class="cls-18" points="80.54 42.95 79.98 42.63 92.9 35.17 93.46 35.5 80.54 42.95"/>
                <polygon class="cls-21" points="80.54 45.03 80.54 42.95 93.46 35.5 93.47 37.57 80.54 45.03"/>
              </g>
              <g class="cls-43">
                <polygon class="cls-8" points="80.56 55.09 79.99 54.76 79.99 52.68 80.55 53.01 80.56 55.09"/>
                <polygon class="cls-18" points="80.55 53.01 79.99 52.68 92.91 45.22 93.47 45.55 80.55 53.01"/>
                <polygon class="cls-21" points="80.56 55.09 80.55 53.01 93.47 45.55 93.48 47.63 80.56 55.09"/>
              </g>
              <g class="cls-43">
                <polygon class="cls-8" points="80.57 65.14 80 64.81 80 62.73 80.56 63.06 80.57 65.14"/>
                <polygon class="cls-18" points="80.56 63.06 80 62.73 92.92 55.28 93.49 55.6 80.56 63.06"/>
                <polygon class="cls-21" points="80.57 65.14 80.56 63.06 93.49 55.6 93.49 57.68 80.57 65.14"/>
              </g>
              <g class="cls-43">
                <polygon class="cls-8" points="80.58 75.19 80.01 74.86 80.01 72.79 80.58 73.12 80.58 75.19"/>
                <polygon class="cls-18" points="80.58 73.12 80.01 72.79 92.93 65.33 93.5 65.66 80.58 73.12"/>
                <polygon class="cls-21" points="80.58 75.19 80.58 73.12 93.5 65.66 93.5 67.73 80.58 75.19"/>
              </g>
              <g class="cls-43">
                <polygon class="cls-8" points="80.59 85.25 80.02 84.92 80.02 82.84 80.59 83.17 80.59 85.25"/>
                <polygon class="cls-18" points="80.59 83.17 80.02 82.84 92.94 75.38 93.51 75.71 80.59 83.17"/>
                <polygon class="cls-21" points="80.59 85.25 80.59 83.17 93.51 75.71 93.51 77.79 80.59 85.25"/>
              </g>
            </g>
          </g>
          <g>
            <g>
              <g>
                <path class="cls-21" d="M91.42,100.07c-.12-.5-.37-.95-.67-1.36l-2.17-.28c-1.51.2-2.84.51-4.32.73-.63.09-1.05.06-1.09.51,0,.03,0,.57,0,.6.01.39.33.76,1.06.83,2.12.21,4.15.22,6.21.3.57.02.93-.15.97-.62,0-.04.01-.7.01-.71Z"/>
                <path class="cls-21" d="M100.09,95.4c-.13-.34-.35-.64-.63-.88-1.25-1.04-1.78-1.41-2.25-1.77-1.39-1.09-2.85-1.07-2.92-.09,0,.02,0,.55,0,.57,0,.16.03.32.1.49.3.72,3.17,3.42,3.68,3.75.15.09.31.17.48.2.56.09,2.41.1,1.54-2.28Z"/>
                <path class="cls-17" d="M91.36,99.75c-.12-.51-.3-1.11-.61-1.53l-2.13-.1c-1.51.2-2.88.11-4.36.33-1.24.18-1.65,2-.04,2.16,2.12.21,4.15.22,6.21.3.75.03,1.13-.27.93-1.16Z"/>
                <path class="cls-17" d="M100.09,94.77c-.13-.34-.35-.64-.63-.88-1.25-1.04-1.78-1.41-2.25-1.77-1.63-1.28-3.37-.32-2.82.97.3.72,3.17,3.42,3.68,3.75.15.09.31.17.48.2.56.09,2.41.1,1.54-2.28Z"/>
                <path class="cls-7" d="M94.58,73.09c-1.85-1.52-3.55-.82-4.62,1.11-.53.95-.93,2.97-1.07,3.66-.53,2.45-.68,5.01-.65,7.51.02,1.28.04,2.56.05,3.83.03,2.23-.11,7.38-.08,9.61,0,1.18,2.84,1.12,2.99.23.57-2.06,1.35-6.92,1.32-9.06-.01-.71-.17-1.41-.17-2.12,0-1.14.44-2.22.84-3.28.77-2.07,1.41-4.19,1.91-6.33.4-1.69,1.06-3.85-.52-5.15Z"/>
                <path class="cls-7" d="M99.13,86.04c-.11-.3-.2-.53-.29-.75-.26-.69-.37-1.43-.31-2.16.2-2.44,1.15-6.37-1.09-10.37l-3.82,4.56c.3,2.96.62,5.98,1.8,8.71.17.39.35.77.46,1.18.08.29.11.59.15.89.13,1.07.85,4.22,1.56,7.08.47,1,2.76.6,2.76-.08-.42-6.35-.55-7.22-1.23-9.06Z"/>
                <path class="cls-17" d="M91.59,63.44c-.77.35-1.77.57-2,1.39-.14.51.08,1.04.24,1.55.92,2.79.6,5.08-.43,8.59-.77,2.65,9.14,2.71,8.67-1.17-.46-3.8.45-6.42,1.18-8.89.14-.46.23-.94.25-1.42.08-2.41-1.34-3.63-3.28-2.55-1.62.9-2.82,1.66-4.64,2.5Z"/>
              </g>
              <path class="cls-19" d="M87.94,66.99c-.07.08-1.44,1.75-1.52,1.79-.05.03-.12.04-.17.05-1.11.29-2.32.35-3.46.49-.5.06-1.67.37-2.14-.04-.14-.12-.39-1.26-.44-1.25-.39.05-.23.68-.2.92.03.29-.02.44-.41.36-.33-.07-.55-.21-.69-.48v-.9s-.07.07-.08.08c-.08.08-.15.16-.21.25-.11.17-.31.51-.14.7-.05.08-.08.19-.07.28,0,.09.07.16.08.25,0,.06,0,.13,0,.19,0,.09.04.12.06.21.01.05,0,.11,0,.16,0,.34.32.59.6.73.3.14.63.18.96.21.19.02,6.53.4,7.34.15.26-.08,2.45-1.93,2.45-1.93l-1.96-2.23Z"/>
              <path class="cls-17" d="M89.37,64.59c-.47.4-2.08,2.57-2.46,3.05-.55.72,1.49,2.97,2.26,2.48,1.09-.69,2.78-2.19,3-4.02.14-1.14-.93-3.13-2.8-1.51Z"/>
            </g>
            <g>
              <path class="cls-14" d="M91.37,57.26c-.02.13-.62.77-.68.89-.11.19.15.5.15.57,0,.22-.05.39-.11.59-.12.4-.17.82.01,1.15.23.4.83.45,1.11.82.1.13.15.29.2.45l.3,1.35c.08.67,4.11-.39,3.71-1.47-.09-.26-.06-.62-.06-.62.2-.26.55-.74.82-1.33.68-1.48.23-3.23-1.15-4.09-.49-.31-1.1-.51-1.82-.57-.61-.05-1.53.09-2.07.96-.2.32-.31.72-.41,1.3Z"/>
              <path class="cls-11" d="M92.56,57.78c.17.13.21.37.11.56-.13.25-.28.53-.23.67.05.14.18.18.33-.01.58-.76,1.72.35.58,1.15-1.02.71-.67,1.36.12,1.59.52.15,1.13.06,1.71-.15,1.29-.48,3.09-2.59,2.17-4.39-.2-3.84-5.55-3.88-5.75-.83-.03.5.61,1.14.96,1.42Z"/>
            </g>
          </g>
          <path class="cls-19" d="M92.57,52.11c-.47-.09-.58.36-.1.54.17.06.65.31,1.01.73.13.16.02-1.02.01-1.13,0,0-.32-.03-.92-.14Z"/>
        </g>
      </g>
      <path class="cls-12" d="M13.62,37.16c-.25.73-.89,1.35-1.42,1.39-.53.04-.75-.52-.5-1.25.26-.73.89-1.35,1.42-1.39.53-.04.75.52.5,1.25Z"/>
      <path class="cls-13" d="M52.05,23.42c-.25.73-.89,1.35-1.42,1.39-.53.04-.75-.52-.5-1.25.26-.73.89-1.35,1.42-1.39.53-.04.75.52.5,1.25Z"/>
      <path class="cls-15" d="M21.86,41.71c-1,2.87-3.51,5.31-5.59,5.46-2.09.15-2.96-2.05-1.96-4.92,1-2.87,3.51-5.31,5.59-5.46,2.09-.15,2.96,2.05,1.96,4.92Z"/>
    </g>
  </g>
</svg>