<?xml version="1.0" encoding="UTF-8"?>
<svg id="Capa_2" data-name="Capa 2" xmlns="http://www.w3.org/2000/svg" viewBox="0 0 281.23 281.23">
  <defs>
    <style>
      .cls-1 {
        fill: #152a38;
      }

      .cls-1, .cls-2 {
        stroke-width: 0px;
      }

      .cls-2 {
        fill: #fff;
      }
    </style>
  </defs>
  <g id="items">
    <circle class="cls-1" cx="140.62" cy="140.62" r="140.62"/>
    <path class="cls-2" d="m209.07,83.5c-.54-1.57-1.18-2-2.18-2.38-2.19-.83-5.9.42-5.9.42,0,0-131.42,47.24-138.93,52.47-1.62,1.13-2.16,1.78-2.43,2.55-1.3,3.73,2.74,5.37,2.74,5.37l33.87,11.04s1.26.18,1.71-.1c7.71-4.87,77.53-48.96,81.56-50.44.64-.19,1.1.03.98.47-1.61,5.66-62.26,59.56-62.26,59.56,0,0-.23.28-.38.63l-.08-.05-3.16,33.6s-1.32,10.29,8.97,0c7.26-7.26,14.29-13.34,17.81-16.3,11.65,8.04,24.18,16.94,29.59,21.59,2.72,2.34,4.99,2.72,6.86,2.65,5.14-.19,6.57-5.83,6.57-5.83,0,0,23.95-96.39,24.75-109.3.08-1.26.19-2.07.2-2.94.01-1.21-.1-2.42-.29-2.99Z"/>
  </g>
</svg>