<?xml version="1.0" encoding="UTF-8"?>
<svg id="Capa_2" data-name="Capa 2" xmlns="http://www.w3.org/2000/svg" viewBox="0 0 281.23 281.23">
  <defs>
    <style>
      .cls-1 {
        fill: #fff;
        fill-rule: evenodd;
      }

      .cls-1, .cls-2 {
        stroke-width: 0px;
      }

      .cls-2 {
        fill: #152a38;
      }
    </style>
  </defs>
  <g id="items">
    <circle class="cls-2" cx="140.62" cy="140.62" r="140.62"/>
    <g id="WA_Logo" data-name="WA Logo">
      <path class="cls-1" d="m208.26,74.71c-16.84-16.86-39.24-26.14-63.1-26.15-49.17,0-89.18,40-89.2,89.17,0,15.72,4.1,31.06,11.91,44.58l-12.66,46.21,47.29-12.4c13.03,7.1,27.7,10.85,42.63,10.85h.04c49.16,0,89.18-40.01,89.2-89.17,0-23.83-9.26-46.23-26.1-63.09Zm-63.1,137.2h-.03c-13.3,0-26.35-3.58-37.74-10.33l-2.71-1.61-28.06,7.36,7.49-27.35-1.76-2.8c-7.42-11.8-11.34-25.44-11.34-39.45.02-40.87,33.28-74.11,74.17-74.11,19.8,0,38.42,7.73,52.42,21.74,14,14.01,21.7,32.63,21.7,52.44-.02,40.87-33.28,74.12-74.14,74.12Zm40.67-55.51c-2.23-1.12-13.19-6.51-15.23-7.25-2.04-.74-3.53-1.12-5.01,1.12-1.49,2.23-5.76,7.25-7.06,8.74-1.3,1.49-2.6,1.67-4.83.56-2.23-1.12-9.41-3.47-17.92-11.06-6.63-5.91-11.1-13.21-12.4-15.44-1.3-2.23-.14-3.44.98-4.55,1-1,2.23-2.6,3.34-3.9,1.11-1.3,1.49-2.23,2.23-3.72s.37-2.79-.19-3.9c-.56-1.12-5.01-12.08-6.87-16.54-1.81-4.34-3.65-3.76-5.01-3.83-1.3-.06-2.79-.08-4.27-.08s-3.9.56-5.94,2.79c-2.04,2.23-7.8,7.62-7.8,18.59s7.99,21.56,9.1,23.05c1.11,1.49,15.72,23.99,38.08,33.64,5.32,2.3,9.47,3.67,12.71,4.69,5.34,1.7,10.2,1.46,14.04.88,4.28-.64,13.19-5.39,15.04-10.6,1.86-5.2,1.86-9.67,1.3-10.6-.56-.93-2.04-1.49-4.27-2.6Z"/>
    </g>
  </g>
</svg>